<?xml version="1.0" encoding="UTF-8"?>
<svg id="Layer_2" data-name="Layer 2" xmlns="http://www.w3.org/2000/svg" viewBox="0 0 111.16 111.16">
  <defs>
    <style>
      .cls-1 {
        fill: #fff;
      }

      .cls-2 {
        fill: #cef848;
      }

      .cls-3 {
        fill: #287100;
      }

      .cls-4 {
        fill: #8ac900;
      }

      .cls-5 {
        fill: #4fb000;
      }
    </style>
  </defs>
  <g id="Layer_1-2" data-name="Layer 1">
    <g>
      <g>
        <circle class="cls-4" cx="55.58" cy="55.58" r="55.58" transform="translate(-11.58 96.41) rotate(-76.3)"/>
        <circle class="cls-4" cx="55.58" cy="55.58" r="51.99" transform="translate(-.38 110.78) rotate(-89.61)"/>
        <path class="cls-5" d="M74.67,68.96c-19.96-1.27-36.18-17.32-37.69-37.26-.13-1.69-.15-3.36-.07-5.01.22-4.62-5.11-7.37-8.69-4.44-10.17,8.36-16.45,21.28-15.7,35.63,1.15,22.03,19.19,39.86,41.23,40.77,17.52.72,32.83-9.02,40.22-23.48,2.09-4.09-1.74-8.7-6.17-7.51-4.15,1.11-8.57,1.58-13.13,1.29Z"/>
        <ellipse class="cls-2" cx="72.2" cy="34.77" rx="16.63" ry="27.79" transform="translate(.09 69.74) rotate(-51.58)"/>
        <path class="cls-3" d="M55.58,0C24.88,0,0,24.88,0,55.58s24.88,55.58,55.58,55.58,55.58-24.88,55.58-55.58S86.28,0,55.58,0ZM55.58,102.88c-26.12,0-47.3-21.18-47.3-47.3S29.46,8.28,55.58,8.28s47.3,21.18,47.3,47.3-21.18,47.3-47.3,47.3Z"/>
      </g>
      <polygon class="cls-3" points="61.22 37.76 84.45 21.97 84.45 89.19 61.22 73.4 61.22 89.19 11.74 55.58 61.22 21.97 61.22 37.76"/>
      <polygon class="cls-1" points="20.64 55.58 56.22 79.75 56.22 63.96 79.45 79.75 79.45 31.41 56.22 47.2 56.22 31.41 20.64 55.58"/>
    </g>
  </g>
</svg>