<?xml version="1.0" encoding="UTF-8"?>
<svg id="Layer_2" data-name="Layer 2" xmlns="http://www.w3.org/2000/svg" viewBox="0 0 129.14 275.36">
  <defs>
    <style>
      .cls-1 {
        fill: #b7b6a5;
      }

      .cls-2 {
        fill: #fff;
      }

      .cls-3 {
        fill: #d1cfbd;
      }

      .cls-4 {
        fill: #e2e0c9;
      }

      .cls-5 {
        fill: #40413c;
      }
    </style>
  </defs>
  <g id="Layer_1-2" data-name="Layer 1">
    <g>
      <rect class="cls-5" x="29.67" y="90.47" width="69.79" height="21.45"/>
      <path class="cls-5" d="M119.79,15.57s-1.23-5.55-3.68-8C105.87-2.68,25.51-2.36,13.03,7.56c-2.71,2.15-3.68,8-3.68,8l.16,62.11s-1.28,9.6,3.52,11.85c4.8,2.24,51.54.96,51.54.96,0,0,46.74,1.28,51.54-.96,4.8-2.24,3.52-11.85,3.52-11.85l.16-62.11Z"/>
      <path class="cls-4" d="M119.79,21.81s-1.23-5.56-3.68-8C105.87,3.56,25.51,3.88,13.03,13.81c-2.71,2.15-3.68,8-3.68,8l.16,62.11s-1.28,9.6,3.52,11.85c4.8,2.24,51.54.96,51.54.96,0,0,46.74,1.28,51.54-.96,4.8-2.24,3.52-11.85,3.52-11.85l.16-62.11Z"/>
      <path class="cls-2" d="M104.43,44.37c-.69-.96-24.26-5.24-39.86-5.24s-39.16,4.27-39.86,5.24c-.69.96-1.73,41.62,0,44.18,1.73,2.56,77.98,2.56,79.71,0,1.73-2.56.69-43.22,0-44.18Z"/>
      <path class="cls-5" d="M107.36,16.12c-1.03-.28-10.66-1.95-20.82-2.66-9.89-.69-19.48-.42-21.8-.34v-.11s-10.98-.16-22.31.96c-10.13,1-19.69,2.94-20.72,3.25-2.12.64,3.36,21.92,3.36,21.92,0,0,9.04-2.31,20.36-4.04,9-1.37,28.3-1.73,38.83-.43,11.38,1.4,20.49,3.45,20.49,3.45,0,0,4.74-21.42,2.6-22Z"/>
      <g>
        <path class="cls-5" d="M14.88,19.57l6.72,22.89v45.14l-6.72,1.44s.01-22.56,0-30.89c-.02-9.17,0-38.58,0-38.58Z"/>
        <path class="cls-5" d="M114.26,19.57l-6.72,22.89v45.14l6.72,1.44s-.01-22.56,0-30.89c.02-9.17,0-38.58,0-38.58Z"/>
      </g>
      <path class="cls-5" d="M91.94,94.24c0,.57-.31,1.04-.7,1.04h-53.35c-.39,0-.7-.47-.7-1.04h0c0-.57.31-1.04.7-1.04h53.35c.39,0,.7.47.7,1.04h0Z"/>
      <g>
        <path class="cls-3" d="M32.22,83.92c0,.53-.28.97-.62.97h0c-.34,0-.62-.43-.62-.97v-36.64c0-.53.28-.97.62-.97h0c.34,0,.62.43.62.97v36.64Z"/>
        <path class="cls-3" d="M41.64,83.92c0,.53-.28.97-.62.97h0c-.34,0-.62-.43-.62-.97v-36.64c0-.53.28-.97.62-.97h0c.34,0,.62.43.62.97v36.64Z"/>
        <path class="cls-3" d="M51.06,83.92c0,.53-.28.97-.62.97h0c-.34,0-.62-.43-.62-.97v-36.64c0-.53.28-.97.62-.97h0c.34,0,.62.43.62.97v36.64Z"/>
        <path class="cls-3" d="M60.48,83.92c0,.53-.28.97-.62.97h0c-.34,0-.62-.43-.62-.97v-36.64c0-.53.28-.97.62-.97h0c.34,0,.62.43.62.97v36.64Z"/>
        <path class="cls-3" d="M69.9,83.92c0,.53-.28.97-.62.97h0c-.34,0-.62-.43-.62-.97v-36.64c0-.53.28-.97.62-.97h0c.34,0,.62.43.62.97v36.64Z"/>
        <path class="cls-3" d="M79.32,83.92c0,.53-.28.97-.62.97h0c-.34,0-.62-.43-.62-.97v-36.64c0-.53.28-.97.62-.97h0c.34,0,.62.43.62.97v36.64Z"/>
        <path class="cls-3" d="M88.73,83.92c0,.53-.28.97-.62.97h0c-.34,0-.62-.43-.62-.97v-36.64c0-.53.28-.97.62-.97h0c.34,0,.62.43.62.97v36.64Z"/>
        <path class="cls-3" d="M98.15,83.92c0,.53-.28.97-.62.97h0c-.34,0-.62-.43-.62-.97v-36.64c0-.53.28-.97.62-.97h0c.34,0,.62.43.62.97v36.64Z"/>
      </g>
      <rect class="cls-4" x="8.93" y="100.45" width="110.56" height="174.91"/>
      <rect class="cls-2" x="20.13" y="108.36" width="88.15" height="160.34"/>
      <polygon class="cls-1" points="8.93 275.36 20.13 268.7 20.13 108.36 108.28 108.36 119.48 100.45 8.93 100.45 8.93 275.36"/>
      <rect class="cls-4" x="24.15" y="108.36" width="1.6" height="160.34"/>
      <rect class="cls-4" x="30.66" y="108.36" width="1.6" height="160.34"/>
      <rect class="cls-4" x="37.18" y="108.36" width="1.6" height="160.34"/>
      <rect class="cls-4" x="43.69" y="108.36" width="1.6" height="160.34"/>
      <rect class="cls-4" x="50.21" y="108.36" width="1.6" height="160.34"/>
      <rect class="cls-4" x="56.72" y="108.36" width="1.6" height="160.34"/>
      <rect class="cls-4" x="63.24" y="108.36" width="1.6" height="160.34"/>
      <rect class="cls-4" x="69.75" y="108.36" width="1.6" height="160.34"/>
      <rect class="cls-4" x="76.27" y="108.36" width="1.6" height="160.34"/>
      <rect class="cls-4" x="82.79" y="108.36" width="1.6" height="160.34"/>
      <rect class="cls-4" x="89.3" y="108.36" width="1.6" height="160.34"/>
      <rect class="cls-4" x="95.82" y="108.36" width="1.6" height="160.34"/>
      <rect class="cls-4" x="102.33" y="108.36" width="1.6" height="160.34"/>
      <path class="cls-5" d="M114.27,19.57v6.66l2.09-1.11,12.55,1.11s1.14-3.15-1.71-4.63c-2.85-1.48-9.7-.74-9.7-.74l-3.23-1.3Z"/>
      <path class="cls-5" d="M14.87,19.57v6.66l-2.09-1.11L.23,26.23s-1.14-3.15,1.71-4.63c2.85-1.48,9.7-.74,9.7-.74l3.23-1.3Z"/>
      <rect class="cls-2" x="48.99" width="31.15" height="1.78"/>
    </g>
  </g>
</svg>