<?xml version="1.0" encoding="UTF-8"?>
<svg id="Layer_2" data-name="Layer 2" xmlns="http://www.w3.org/2000/svg" viewBox="0 0 130.53 254.89">
  <defs>
    <style>
      .cls-1 {
        fill: #548dac;
      }

      .cls-2 {
        fill: #383a37;
      }

      .cls-3 {
        fill: #fff;
      }

      .cls-4 {
        fill: #f05a22;
      }

      .cls-5 {
        fill: #ff8710;
      }

      .cls-6 {
        fill: #2f302a;
      }

      .cls-7 {
        fill: #b7121a;
      }

      .cls-8 {
        fill: #bad0da;
      }

      .cls-9 {
        fill: #9cbed9;
      }

      .cls-10 {
        fill: #84adcd;
      }

      .cls-11 {
        fill: #474845;
      }

      .cls-12 {
        fill: #cb242b;
      }

      .cls-13 {
        fill: #72a8cb;
      }

      .cls-14 {
        fill: #40413c;
      }
    </style>
  </defs>
  <g id="Layer_1-2" data-name="Layer 1">
    <g>
      <g>
        <rect class="cls-1" x="119.06" y="63.51" width="2.55" height="132.17"/>
        <rect class="cls-1" x="8.99" y="63.51" width="2.55" height="132.17"/>
        <g>
          <path class="cls-2" d="M117.44,22.48v215.48h6.71v10.51c0,3.54-3.07,6.41-6.86,6.41H13.2c-3.79,0-6.87-2.87-6.87-6.41v-10.51h6.81V22.48h-6.81v-14.23c0-3.54,3.07-6.41,6.87-6.41h104.09c3.79,0,6.86,2.87,6.86,6.41v14.23h-6.71Z"/>
          <g>
            <rect class="cls-13" x="6.34" y="195.68" width="5.1" height="44.25"/>
            <rect class="cls-13" x="6.34" y="22.45" width="5.1" height="41.06"/>
          </g>
          <g>
            <path class="cls-10" d="M103.29,207.28c0,2.37-1.92,4.29-4.29,4.29H31.6c-2.37,0-4.29-1.92-4.29-4.29v-88.05c0-2.37,1.92-4.29,4.29-4.29h67.4c2.37,0,4.29,1.92,4.29,4.29,0,0,0,88.05,0,88.05Z"/>
            <path class="cls-13" d="M20.15,248.14c-4.75,0-8.61-3.86-8.61-8.61V14.63c0-4.75,3.86-8.61,8.61-8.61h90.29c4.75,0,8.61,3.86,8.61,8.61v224.91c0,4.74-3.86,8.61-8.61,8.61H20.15Z"/>
            <path class="cls-4" d="M110.45,18.14h8.61v-3.51c0-2.21-.84-4.23-2.21-5.75h-6.4v9.26h0Z"/>
            <path class="cls-4" d="M20.15,18.14h-8.61v-3.51c0-2.21.84-4.23,2.21-5.75h6.4v9.26h0Z"/>
            <path class="cls-10" d="M116.2,239.54c0,3.17-2.57,5.75-5.75,5.75H20.15c-3.18,0-5.75-2.58-5.75-5.75V14.63c0-3.18,2.57-5.75,5.75-5.75h90.29c3.17,0,5.75,2.57,5.75,5.75v224.91Z"/>
            <polygon class="cls-9" points="20.15 79.68 20.15 8.88 41.87 8.88 33.15 79.62 20.15 79.68"/>
            <polygon class="cls-9" points="110.45 79.68 110.45 8.88 88.73 8.88 97.45 79.62 110.45 79.68"/>
            <g>
              <polygon class="cls-10" points="34.21 191.69 14.4 214.27 14.4 234.32 34.9 208.98 34.21 191.69"/>
              <polygon class="cls-10" points="96.38 191.69 116.2 214.27 116.2 234.32 95.7 208.98 96.38 191.69"/>
            </g>
            <g>
              <polygon class="cls-10" points="96.38 129.81 116.2 96.56 116.2 85.25 95.7 119.63 96.38 129.81"/>
              <polygon class="cls-10" points="34.21 129.81 14.4 96.56 14.4 85.25 34.9 119.63 34.21 129.81"/>
            </g>
            <polygon class="cls-14" points="103.29 155.3 116.2 155.3 116.2 214.27 103.29 199.56 103.29 155.3"/>
            <path class="cls-9" d="M99.59,203.23c0,2.37-1.92,4.29-4.29,4.29h-60c-2.37,0-4.29-1.92-4.29-4.29v-80.65c0-2.37,1.92-4.29,4.29-4.29h60c2.37,0,4.29,1.92,4.29,4.29v80.65Z"/>
            <polygon class="cls-14" points="27.31 155.3 14.4 155.3 14.4 214.27 27.31 199.56 27.31 155.3"/>
            <rect class="cls-10" x="103.29" y="149.48" width="12.91" height="5.82"/>
            <rect class="cls-10" x="14.4" y="149.48" width="12.91" height="5.82"/>
            <polygon class="cls-14" points="116.2 96.56 116.2 149.48 103.29 149.48 103.19 118.31 116.2 96.56"/>
            <polygon class="cls-14" points="14.3 96.56 14.3 149.48 27.21 149.48 27.31 118.31 14.3 96.56"/>
          </g>
          <path class="cls-14" d="M97.97,211.57H32.62l-18.22,22.76s48.47,6.49,101.8,0l-18.22-22.76Z"/>
          <path class="cls-14" d="M14.53,85.23s-.07.01-.1.02c.02,0,.06-.01.1-.02Z"/>
          <path class="cls-14" d="M15.16,85.11c-.1.02-.19.03-.26.05.08-.02.16-.03.26-.05Z"/>
          <polygon class="cls-14" points="116.2 85.25 98.71 114.58 65.3 114.76 32.1 114.94 14.4 85.25 116.2 85.25"/>
          <g>
            <rect class="cls-13" x="119.06" y="195.68" width="5.1" height="44.25"/>
            <rect class="cls-13" x="119.06" y="22.45" width="5.1" height="41.06"/>
            <g>
              <rect class="cls-10" x="119.06" y="30.3" width="5.1" height="25.36"/>
              <rect class="cls-9" x="119.06" y="35.71" width="5.1" height="14.53"/>
            </g>
            <g>
              <rect class="cls-10" x="6.34" y="30.3" width="5.1" height="25.36"/>
              <rect class="cls-9" x="6.34" y="35.71" width="5.1" height="14.53"/>
            </g>
          </g>
          <path class="cls-6" d="M14.4,85.43c0-3.18,2.57-5.75,5.75-5.75h90.29c3.17,0,5.75,2.57,5.75,5.75H14.4Z"/>
          <path class="cls-10" d="M14.44,85.25s.06-.01.1-.02c-.04,0-.07.01-.1.02Z"/>
          <path class="cls-10" d="M14.89,85.16c.08-.02.16-.03.26-.05-.1.02-.19.03-.26.05Z"/>
          <g>
            <path class="cls-8" d="M13.75,8.88h28.12v-2.86h-21.72c-2.54,0-4.83,1.11-6.4,2.86Z"/>
            <path class="cls-8" d="M116.85,8.88c-1.58-1.75-3.86-2.86-6.4-2.86h-21.72v2.86h28.12Z"/>
          </g>
          <rect class="cls-11" x="41.87" y="6.01" width="46.86" height="2.86"/>
          <rect class="cls-3" x="49.16" width="32.18" height="1.84"/>
          <g>
            <g>
              <rect class="cls-10" x="119.06" y="203.53" width="5.1" height="25.83"/>
              <rect class="cls-9" x="119.06" y="208.94" width="5.1" height="15"/>
            </g>
            <g>
              <rect class="cls-10" x="6.34" y="203.53" width="5.1" height="25.83"/>
              <rect class="cls-9" x="6.34" y="208.94" width="5.1" height="15"/>
            </g>
          </g>
          <rect class="cls-3" x="51.89" y="247.06" width="26.81" height="1.08"/>
          <g>
            <path class="cls-7" d="M38.51,245.16v2.98h-18.36c-3.19,0-5.97-1.74-7.46-4.32h24.48c.74,0,1.34.6,1.34,1.34Z"/>
            <path class="cls-12" d="M13.15,244.54c1.57,2.19,4.12,3.61,7,3.61h17.64v-2.98c0-.34-.28-.63-.63-.63H13.15Z"/>
            <path class="cls-5" d="M37.79,247.06v1.08h-17.64c-1.51,0-2.93-.39-4.16-1.08h21.8Z"/>
          </g>
          <g>
            <path class="cls-7" d="M92.07,245.16v2.98h18.36c3.19,0,5.97-1.74,7.46-4.32h-24.48c-.74,0-1.34.6-1.34,1.34Z"/>
            <path class="cls-12" d="M117.43,244.54c-1.57,2.19-4.11,3.61-7,3.61h-17.64v-2.98c0-.34.28-.63.63-.63h24.01Z"/>
            <path class="cls-5" d="M92.79,247.06v1.08h17.64c1.51,0,2.93-.39,4.16-1.08h-21.8Z"/>
          </g>
          <path class="cls-10" d="M116.23,88.47v6.41l2.01-1.07,12.07,1.07s1.1-3.03-1.65-4.45c-2.74-1.42-9.33-.71-9.33-.71l-3.11-1.25Z"/>
          <path class="cls-10" d="M14.3,88.47v6.41l-2.01-1.07-12.07,1.07s-1.1-3.03,1.65-4.45c2.74-1.42,9.33-.71,9.33-.71l3.11-1.25Z"/>
        </g>
      </g>
      <g>
        <path class="cls-8" d="M90.11,198.94c0,1.39-1.12,2.5-2.5,2.5h0c-1.38,0-2.5-1.12-2.5-2.5v-71.37c0-1.38,1.12-2.5,2.5-2.5h0c1.38,0,2.5,1.12,2.5,2.5v71.37Z"/>
        <path class="cls-8" d="M75.24,198.94c0,1.39-1.12,2.5-2.5,2.5h0c-1.38,0-2.5-1.12-2.5-2.5v-71.37c0-1.38,1.12-2.5,2.5-2.5h0c1.38,0,2.5,1.12,2.5,2.5v71.37Z"/>
        <path class="cls-8" d="M60.36,198.94c0,1.39-1.12,2.5-2.5,2.5h0c-1.38,0-2.5-1.12-2.5-2.5v-71.37c0-1.38,1.12-2.5,2.5-2.5h0c1.38,0,2.5,1.12,2.5,2.5v71.37Z"/>
        <path class="cls-8" d="M45.49,198.94c0,1.39-1.12,2.5-2.5,2.5h0c-1.38,0-2.5-1.12-2.5-2.5v-71.37c0-1.38,1.12-2.5,2.5-2.5h0c1.38,0,2.5,1.12,2.5,2.5v71.37Z"/>
      </g>
    </g>
  </g>
</svg>