<?xml version="1.0" encoding="UTF-8"?>
<svg id="Layer_2" data-name="Layer 2" xmlns="http://www.w3.org/2000/svg" viewBox="0 0 126.3 270.89">
  <defs>
    <style>
      .cls-1 {
        fill: #585953;
      }

      .cls-2 {
        fill: #fff;
      }

      .cls-3 {
        fill: #eff3d6;
      }

      .cls-4 {
        fill: #fdffee;
      }

      .cls-5 {
        fill: #c5c9a3;
      }

      .cls-6 {
        fill: #40413c;
      }
    </style>
  </defs>
  <g id="Layer_1-2" data-name="Layer 1">
    <g>
      <path class="cls-6" d="M109.06,2.38c0,1.32-1.1,2.38-2.45,2.38H17.95c-1.35,0-2.45-1.07-2.45-2.38h0c0-1.32,1.1-2.38,2.45-2.38h88.66c1.35,0,2.45,1.07,2.45,2.38h0Z"/>
      <path class="cls-6" d="M31.03,9.91c0,1.04-.87,1.88-1.93,1.88h0c-1.07,0-1.93-.84-1.93-1.88v-5.64c0-1.04.87-1.88,1.93-1.88h0c1.07,0,1.93.84,1.93,1.88v5.64Z"/>
      <path class="cls-6" d="M99.98,10.82c0,1.04-.87,1.88-1.93,1.88h0c-1.07,0-1.93-.84-1.93-1.88v-5.64c0-1.04.87-1.88,1.93-1.88h0c1.07,0,1.93.84,1.93,1.88v5.64Z"/>
      <path class="cls-5" d="M56.17,11.03s-34.8-3.01-39.82,0c-5.03,3.01-8.15,6.02-8.52,12.41-.37,6.39-1.56,214.45,0,217.65,1.56,3.2,2.72,11.42,13.55,12.96,10.83,1.54,81.58,2.61,88.15,0,6.57-2.61,9.23-6.39,9.49-16.56.28-10.84-.6-47.76-2.88-217.93-.04-5.14-4.7-8.44-8.66-9.86-3.96-1.42-51.31,1.34-51.31,1.34Z"/>
      <path class="cls-3" d="M15.5,77.49l47.55-1.5,47.55,1.5-1.03-15.8s-5.15-49.15-5.93-51.16c-.77-2.01-.19-2.66-2.84-2.51-11.51.66-70.3-.18-74.75,0-1.82.07-3.87-.25-4.64,3.51-.77,3.76-5.93,50.15-5.93,50.15v15.8Z"/>
      <path class="cls-3" d="M106.16,243.23c0,2.45-2.08,4.43-4.64,4.43H24.59c-2.56,0-4.64-1.98-4.64-4.43V98.59c0-2.45,2.08-4.43,4.64-4.43h76.94c2.56,0,4.64,1.98,4.64,4.43v144.64Z"/>
      <path class="cls-4" d="M92.45,61.69h-58.77V20.31c0-2.76-.45-3.76,3.38-3.76s49.71-.25,51.77,0c2.06.25,3.61.25,3.61,3.26v41.88Z"/>
      <g>
        <path class="cls-3" d="M43.72,54.92c0,.69-.58,1.25-1.29,1.25h0c-.71,0-1.29-.56-1.29-1.25V20.81c0-.69.58-1.25,1.29-1.25h0c.71,0,1.29.56,1.29,1.25v34.1Z"/>
        <path class="cls-3" d="M54.03,54.92c0,.69-.58,1.25-1.29,1.25h0c-.71,0-1.29-.56-1.29-1.25V20.81c0-.69.58-1.25,1.29-1.25h0c.71,0,1.29.56,1.29,1.25v34.1Z"/>
        <path class="cls-3" d="M64.34,54.92c0,.69-.58,1.25-1.29,1.25h0c-.71,0-1.29-.56-1.29-1.25V20.81c0-.69.58-1.25,1.29-1.25h0c.71,0,1.29.56,1.29,1.25v34.1Z"/>
        <path class="cls-3" d="M74.65,54.92c0,.69-.58,1.25-1.29,1.25h0c-.71,0-1.29-.56-1.29-1.25V20.81c0-.69.58-1.25,1.29-1.25h0c.71,0,1.29.56,1.29,1.25v34.1Z"/>
        <path class="cls-3" d="M84.96,54.92c0,.69-.58,1.25-1.29,1.25h0c-.71,0-1.29-.56-1.29-1.25V20.81c0-.69.58-1.25,1.29-1.25h0c.71,0,1.29.56,1.29,1.25v34.1Z"/>
      </g>
      <path class="cls-6" d="M20.19,80.06c-2.3.81.19,8.65,1.16,9.97.97,1.32,83.51,1.32,83.7,0,.19-1.32,3.09-8.65,1.16-9.97-1.93-1.32-83.9-.75-86.02,0Z"/>
      <path class="cls-6" d="M111.19,80.62v6.77l2.13-1.13,12.76,1.13s1.16-3.2-1.74-4.7c-2.9-1.5-9.86-.75-9.86-.75l-3.29-1.32Z"/>
      <path class="cls-6" d="M15.11,80.62v6.77l-2.13-1.13-12.76,1.13s-1.16-3.2,1.74-4.7c2.9-1.5,9.86-.75,9.86-.75l3.29-1.32Z"/>
      <path class="cls-6" d="M98.82,251.07c0,.86-.72,1.56-1.6,1.56H28.9c-.89,0-1.6-.7-1.6-1.56h0c0-.86.72-1.56,1.6-1.56h68.32c.89,0,1.6.7,1.6,1.56h0Z"/>
      <path class="cls-6" d="M17.24,153.81c0,1.56-1.13,2.83-2.51,2.83h0c-1.39,0-2.51-1.27-2.51-2.83v-59.97c0-1.56,1.13-2.83,2.51-2.83h0c1.39,0,2.51,1.27,2.51,2.83v59.97Z"/>
      <path class="cls-6" d="M17.24,234.26c0,1.79-1.13,3.23-2.51,3.23h0c-1.39,0-2.51-1.45-2.51-3.23v-70.62c0-1.79,1.13-3.23,2.51-3.23h0c1.39,0,2.51,1.45,2.51,3.23v70.62Z"/>
      <path class="cls-6" d="M114.09,153.81c0,1.56-1.13,2.83-2.51,2.83h0c-1.39,0-2.51-1.27-2.51-2.83v-59.97c0-1.56,1.13-2.83,2.51-2.83h0c1.39,0,2.51,1.27,2.51,2.83v59.97Z"/>
      <path class="cls-6" d="M114.09,234.26c0,1.79-1.13,3.23-2.51,3.23h0c-1.39,0-2.51-1.45-2.51-3.23v-70.62c0-1.79,1.13-3.23,2.51-3.23h0c1.39,0,2.51,1.45,2.51,3.23v70.62Z"/>
      <path class="cls-6" d="M107.26,266.38c0,2.49-2.37,4.51-5.3,4.51h-40.36c-2.93,0-5.3-2.02-5.3-4.51v-6.98c0-2.49,2.37-4.51,5.3-4.51h40.36c2.93,0,5.3,2.02,5.3,4.51v6.98Z"/>
      <rect class="cls-1" x="61.96" y="258.33" width="19.81" height="9.28"/>
      <polygon class="cls-5" points="22.46 253.88 26.52 262.72 47.78 263.28 52.42 254.26 49.72 254.26 46.24 261.4 27.87 261.21 24.59 253.32 21.88 252.75 22.46 253.88"/>
      <rect class="cls-2" x="47.47" y="6.46" width="31.15" height="1.78"/>
    </g>
  </g>
</svg>