<?xml version="1.0" encoding="UTF-8"?>
<svg id="Layer_2" data-name="Layer 2" xmlns="http://www.w3.org/2000/svg" viewBox="0 0 232.58 121.04">
  <defs>
    <style>
      .cls-1 {
        fill: #fff;
      }
    </style>
  </defs>
  <g id="Layer_1-2" data-name="Layer 1">
    <g>
      <g>
        <g>
          <path d="M19.06,121.04c-4,0-7.89-1.66-10.67-4.55-3.17-3.33-4.61-7.81-3.96-12.32L14,37.01c.96-6.78,6.4-11.97,13.23-12.62l21.66-2.06c1.74-.17,3.48-.25,5.16-.25,11.1,0,21.05,3.72,28.77,10.75,8.92,8.13,13.64,19.47,13.64,32.8,0,14.02-4.2,26.01-12.47,35.64-8.36,9.74-20.18,15.58-34.18,16.91l-29.34,2.79c-.42.04-.91.07-1.4.07Z"/>
          <path d="M75.77,115.84c-4.77,0-9.26-2.32-12.03-6.2-3.05-4.26-3.59-9.9-1.42-14.68l31.5-69.44c2.17-4.8,6.8-8.11,12.06-8.6l15.84-1.5c.42-.04.91-.07,1.4-.07,7.23,0,13.36,5.18,14.56,12.31l11.06,65.5c.68,4.02-.35,8.19-2.83,11.43-2.5,3.26-6.26,5.34-10.33,5.73l-16.22,1.54c-.41.04-.91.07-1.4.07-5.12,0-9.69-2.63-12.35-6.67l-.04.1c-2.12,4.96-6.79,8.36-12.18,8.88l-16.22,1.54c-.42.04-.91.07-1.4.07Z"/>
          <path d="M136.24,110.2c-4.01,0-7.89-1.66-10.66-4.55-3.15-3.29-4.59-7.75-3.97-12.25l9.38-67.73c.95-6.82,6.39-12.03,13.24-12.68l23.06-2.19c1.2-.11,2.4-.17,3.57-.17,7.66,0,14.89,2.48,20.91,7.16,7.58,5.9,11.75,14.59,11.75,24.47,0,8.07-2.12,15.07-6.3,20.81-.33.45-.67.89-1.02,1.32,2.06,4.53,5.29,10.78,9.61,18.6,2.42,4.37,2.46,9.62.12,14.04-2.33,4.41-6.69,7.33-11.66,7.8l-17.72,1.68c-.42.04-.91.07-1.4.07-4.06,0-7.89-1.69-10.63-4.53-2.39,3.64-6.34,6.11-10.93,6.55l-15.94,1.51c-.42.04-.91.07-1.4.07ZM161.56,38.92h0Z"/>
          <path d="M192.68,104.65c-4.01,0-7.9-1.66-10.67-4.56-3.13-3.26-4.58-7.73-3.96-12.24l9.38-67.54c.95-6.81,6.39-12.03,13.24-12.67l15.75-1.49c.41-.04.91-.07,1.4-.07,4.01,0,7.9,1.66,10.67,4.56,3.13,3.26,4.58,7.73,3.96,12.24l-9.38,67.54c-.95,6.81-6.39,12.03-13.24,12.67l-15.75,1.49c-.41.04-.91.07-1.4.07Z"/>
        </g>
        <g>
          <path d="M18.8,120.68c-4,0-7.89-1.66-10.67-4.55-3.17-3.33-4.61-7.81-3.96-12.32L13.74,36.65c.96-6.78,6.4-11.97,13.23-12.62l21.66-2.06c1.74-.17,3.48-.25,5.16-.25,11.1,0,21.05,3.72,28.77,10.75,8.92,8.13,13.64,19.47,13.64,32.8,0,14.02-4.2,26.01-12.47,35.64-8.36,9.74-20.18,15.58-34.18,16.91l-29.34,2.79c-.42.04-.91.07-1.4.07Z"/>
          <path d="M75.52,115.48c-4.77,0-9.26-2.32-12.03-6.2-3.05-4.26-3.59-9.9-1.42-14.68l31.5-69.44c2.17-4.8,6.8-8.11,12.06-8.6l15.84-1.5c.42-.04.91-.07,1.4-.07,7.23,0,13.36,5.18,14.56,12.31l11.06,65.5c.68,4.02-.35,8.19-2.83,11.43-2.5,3.26-6.26,5.34-10.33,5.73l-16.22,1.54c-.41.04-.91.07-1.4.07-5.12,0-9.69-2.63-12.35-6.67l-.04.1c-2.12,4.96-6.79,8.36-12.18,8.88l-16.22,1.54c-.42.04-.91.07-1.4.07Z"/>
          <path d="M135.99,109.84c-4.01,0-7.89-1.66-10.66-4.55-3.15-3.29-4.59-7.75-3.97-12.25l9.38-67.73c.95-6.82,6.39-12.03,13.24-12.68l23.06-2.19c1.2-.11,2.4-.17,3.57-.17,7.66,0,14.89,2.48,20.91,7.16,7.58,5.9,11.75,14.59,11.75,24.47,0,8.07-2.12,15.07-6.3,20.81-.33.45-.67.89-1.02,1.32,2.06,4.53,5.29,10.78,9.61,18.6,2.42,4.37,2.46,9.62.12,14.04-2.33,4.41-6.69,7.33-11.66,7.8l-17.72,1.68c-.42.04-.91.07-1.4.07-4.06,0-7.89-1.69-10.63-4.53-2.39,3.64-6.34,6.11-10.93,6.55l-15.94,1.51c-.42.04-.91.07-1.4.07ZM161.31,38.56h0Z"/>
          <path d="M192.43,104.29c-4.01,0-7.9-1.66-10.67-4.56-3.13-3.26-4.58-7.73-3.96-12.24l9.38-67.54c.95-6.81,6.39-12.03,13.24-12.67l15.75-1.49c.41-.04.91-.07,1.4-.07,4.01,0,7.9,1.66,10.67,4.56,3.13,3.26,4.58,7.73,3.96,12.24l-9.38,67.54c-.95,6.81-6.39,12.03-13.24,12.67l-15.75,1.49c-.41.04-.91.07-1.4.07Z"/>
        </g>
        <g>
          <path d="M18.55,120.32c-4,0-7.89-1.66-10.67-4.55-3.17-3.33-4.61-7.81-3.96-12.32L13.49,36.29c.96-6.78,6.4-11.97,13.23-12.62l21.66-2.06c1.74-.17,3.48-.25,5.16-.25,11.1,0,21.05,3.72,28.77,10.75,8.92,8.13,13.64,19.47,13.64,32.8,0,14.02-4.2,26.01-12.47,35.64-8.36,9.74-20.18,15.58-34.18,16.91l-29.34,2.79c-.42.04-.91.07-1.4.07Z"/>
          <path d="M75.27,115.13c-4.77,0-9.26-2.32-12.03-6.2-3.05-4.26-3.59-9.9-1.42-14.68l31.5-69.44c2.17-4.8,6.8-8.11,12.06-8.6l15.84-1.5c.42-.04.91-.07,1.4-.07,7.23,0,13.36,5.18,14.56,12.31l11.06,65.5c.68,4.02-.35,8.19-2.83,11.43-2.5,3.26-6.26,5.34-10.33,5.73l-16.22,1.54c-.41.04-.91.07-1.4.07-5.12,0-9.69-2.63-12.35-6.67l-.04.1c-2.12,4.96-6.79,8.36-12.18,8.88l-16.22,1.54c-.42.04-.91.07-1.4.07Z"/>
          <path d="M135.74,109.48c-4.01,0-7.89-1.66-10.66-4.55-3.15-3.29-4.59-7.75-3.97-12.25l9.38-67.73c.95-6.82,6.39-12.03,13.24-12.68l23.06-2.19c1.2-.11,2.4-.17,3.57-.17,7.66,0,14.89,2.48,20.91,7.16,7.58,5.9,11.75,14.59,11.75,24.47,0,8.07-2.12,15.07-6.3,20.81-.33.45-.67.89-1.02,1.32,2.06,4.53,5.29,10.78,9.61,18.6,2.42,4.37,2.46,9.62.12,14.04-2.33,4.41-6.69,7.33-11.66,7.8l-17.72,1.68c-.42.04-.91.07-1.4.07-4.06,0-7.89-1.69-10.63-4.53-2.39,3.64-6.34,6.11-10.93,6.55l-15.94,1.51c-.42.04-.91.07-1.4.07ZM161.06,38.21h0Z"/>
          <path d="M192.17,103.94c-4.01,0-7.9-1.66-10.67-4.56-3.13-3.26-4.58-7.73-3.96-12.24l9.38-67.54c.95-6.81,6.39-12.03,13.24-12.67l15.75-1.49c.41-.04.91-.07,1.4-.07,4.01,0,7.9,1.66,10.67,4.56,3.13,3.26,4.58,7.73,3.96,12.24l-9.38,67.54c-.95,6.81-6.39,12.03-13.24,12.67l-15.75,1.49c-.41.04-.91.07-1.4.07Z"/>
        </g>
        <g>
          <path d="M18.3,119.97c-4,0-7.89-1.66-10.67-4.55-3.17-3.33-4.61-7.81-3.96-12.32L13.24,35.93c.96-6.78,6.4-11.97,13.23-12.62l21.66-2.06c1.74-.17,3.48-.25,5.16-.25,11.1,0,21.05,3.72,28.77,10.75,8.92,8.13,13.64,19.47,13.64,32.8,0,14.02-4.2,26.01-12.47,35.64-8.36,9.74-20.18,15.58-34.18,16.91l-29.34,2.79c-.42.04-.91.07-1.4.07Z"/>
          <path d="M75.02,114.77c-4.77,0-9.26-2.32-12.03-6.2-3.05-4.26-3.59-9.9-1.42-14.68l31.5-69.44c2.17-4.8,6.8-8.11,12.06-8.6l15.84-1.5c.42-.04.91-.07,1.4-.07,7.23,0,13.36,5.18,14.56,12.31l11.06,65.5c.68,4.02-.35,8.19-2.83,11.43-2.5,3.26-6.26,5.34-10.33,5.73l-16.22,1.54c-.41.04-.91.07-1.4.07-5.12,0-9.69-2.63-12.35-6.67l-.04.1c-2.12,4.96-6.79,8.36-12.18,8.88l-16.22,1.54c-.42.04-.91.07-1.4.07Z"/>
          <path d="M135.49,109.12c-4.01,0-7.89-1.66-10.66-4.55-3.15-3.29-4.59-7.75-3.97-12.25l9.38-67.73c.95-6.82,6.39-12.03,13.24-12.68l23.06-2.19c1.2-.11,2.4-.17,3.57-.17,7.66,0,14.89,2.48,20.91,7.16,7.58,5.9,11.75,14.59,11.75,24.47,0,8.07-2.12,15.07-6.3,20.81-.33.45-.67.89-1.02,1.32,2.06,4.53,5.29,10.78,9.61,18.6,2.42,4.37,2.46,9.62.12,14.04-2.33,4.41-6.69,7.33-11.66,7.8l-17.72,1.68c-.42.04-.91.07-1.4.07-4.06,0-7.89-1.69-10.63-4.53-2.39,3.64-6.34,6.11-10.93,6.55l-15.94,1.51c-.42.04-.91.07-1.4.07ZM160.8,37.85h0Z"/>
          <path d="M191.92,103.58c-4.01,0-7.9-1.66-10.67-4.56-3.13-3.26-4.58-7.73-3.96-12.24l9.38-67.54c.95-6.81,6.39-12.03,13.24-12.67l15.75-1.49c.41-.04.91-.07,1.4-.07,4.01,0,7.9,1.66,10.67,4.56,3.13,3.26,4.58,7.73,3.96,12.24l-9.38,67.54c-.95,6.81-6.39,12.03-13.24,12.67l-15.75,1.49c-.41.04-.91.07-1.4.07Z"/>
        </g>
        <g>
          <path d="M18.05,119.61c-4,0-7.89-1.66-10.67-4.55-3.17-3.33-4.61-7.81-3.96-12.32L12.99,35.58c.96-6.78,6.4-11.97,13.23-12.62l21.66-2.06c1.74-.17,3.48-.25,5.16-.25,11.1,0,21.05,3.72,28.77,10.75,8.92,8.13,13.64,19.47,13.64,32.8,0,14.02-4.2,26.01-12.47,35.64-8.36,9.74-20.18,15.58-34.18,16.91l-29.34,2.79c-.42.04-.91.07-1.4.07Z"/>
          <path d="M74.77,114.41c-4.77,0-9.26-2.32-12.03-6.2-3.05-4.26-3.59-9.9-1.42-14.68l31.5-69.44c2.17-4.8,6.8-8.11,12.06-8.6l15.84-1.5c.42-.04.91-.07,1.4-.07,7.23,0,13.36,5.18,14.56,12.31l11.06,65.5c.68,4.02-.35,8.19-2.83,11.43-2.5,3.26-6.26,5.34-10.33,5.73l-16.22,1.54c-.41.04-.91.07-1.4.07-5.12,0-9.69-2.63-12.35-6.67l-.04.1c-2.12,4.96-6.79,8.36-12.18,8.88l-16.22,1.54c-.42.04-.91.07-1.4.07Z"/>
          <path d="M135.23,108.77c-4.01,0-7.89-1.66-10.66-4.55-3.15-3.29-4.59-7.75-3.97-12.25l9.38-67.73c.95-6.82,6.39-12.03,13.24-12.68l23.06-2.19c1.2-.11,2.4-.17,3.57-.17,7.66,0,14.89,2.48,20.91,7.16,7.58,5.9,11.75,14.59,11.75,24.47,0,8.07-2.12,15.07-6.3,20.81-.33.45-.67.89-1.02,1.32,2.06,4.53,5.29,10.78,9.61,18.6,2.42,4.37,2.46,9.62.12,14.04-2.33,4.41-6.69,7.33-11.66,7.8l-17.72,1.68c-.42.04-.91.07-1.4.07-4.06,0-7.89-1.69-10.63-4.53-2.39,3.64-6.34,6.11-10.93,6.55l-15.94,1.51c-.42.04-.91.07-1.4.07ZM160.55,37.49h0Z"/>
          <path d="M191.67,103.22c-4.01,0-7.9-1.66-10.67-4.56-3.13-3.26-4.58-7.73-3.96-12.24l9.38-67.54c.95-6.81,6.39-12.03,13.24-12.67l15.75-1.49c.41-.04.91-.07,1.4-.07,4.01,0,7.9,1.66,10.67,4.56,3.13,3.26,4.58,7.73,3.96,12.24l-9.38,67.54c-.95,6.81-6.39,12.03-13.24,12.67l-15.75,1.49c-.41.04-.91.07-1.4.07Z"/>
        </g>
        <g>
          <path d="M17.8,119.25c-4,0-7.89-1.66-10.67-4.55-3.17-3.33-4.61-7.81-3.96-12.32L12.74,35.22c.96-6.78,6.4-11.97,13.23-12.62l21.66-2.06c1.74-.17,3.48-.25,5.16-.25,11.1,0,21.05,3.72,28.77,10.75,8.92,8.13,13.64,19.47,13.64,32.8,0,14.02-4.2,26.01-12.47,35.64-8.36,9.74-20.18,15.58-34.18,16.91l-29.34,2.79c-.42.04-.91.07-1.4.07Z"/>
          <path d="M74.51,114.05c-4.77,0-9.26-2.32-12.03-6.2-3.05-4.26-3.59-9.9-1.42-14.68l31.5-69.44c2.17-4.8,6.8-8.11,12.06-8.6l15.84-1.5c.42-.04.91-.07,1.4-.07,7.23,0,13.36,5.18,14.56,12.31l11.06,65.5c.68,4.02-.35,8.19-2.83,11.43-2.5,3.26-6.26,5.34-10.33,5.73l-16.22,1.54c-.41.04-.91.07-1.4.07-5.12,0-9.69-2.63-12.35-6.67l-.04.1c-2.12,4.96-6.79,8.36-12.18,8.88l-16.22,1.54c-.42.04-.91.07-1.4.07Z"/>
          <path d="M134.98,108.41c-4.01,0-7.89-1.66-10.66-4.55-3.15-3.29-4.59-7.75-3.97-12.25l9.38-67.73c.95-6.82,6.39-12.03,13.24-12.68l23.06-2.19c1.2-.11,2.4-.17,3.57-.17,7.66,0,14.89,2.48,20.91,7.16,7.58,5.9,11.75,14.59,11.75,24.47,0,8.07-2.12,15.07-6.3,20.81-.33.45-.67.89-1.02,1.32,2.06,4.53,5.29,10.78,9.61,18.6,2.42,4.37,2.46,9.62.12,14.04-2.33,4.41-6.69,7.33-11.66,7.8l-17.72,1.68c-.42.04-.91.07-1.4.07-4.06,0-7.89-1.69-10.63-4.53-2.39,3.64-6.34,6.11-10.93,6.55l-15.94,1.51c-.42.04-.91.07-1.4.07ZM160.3,37.13h0Z"/>
          <path d="M191.42,102.86c-4.01,0-7.9-1.66-10.67-4.56-3.13-3.26-4.58-7.73-3.96-12.24l9.38-67.54c.95-6.81,6.39-12.03,13.24-12.67l15.75-1.49c.41-.04.91-.07,1.4-.07,4.01,0,7.9,1.66,10.67,4.56,3.13,3.26,4.58,7.73,3.96,12.24l-9.38,67.54c-.95,6.81-6.39,12.03-13.24,12.67l-15.75,1.49c-.41.04-.91.07-1.4.07Z"/>
        </g>
        <g>
          <path d="M17.55,118.89c-4,0-7.89-1.66-10.67-4.55-3.17-3.33-4.61-7.81-3.96-12.32L12.48,34.86c.96-6.78,6.4-11.97,13.23-12.62l21.66-2.06c1.74-.17,3.48-.25,5.16-.25,11.1,0,21.05,3.72,28.77,10.75,8.92,8.13,13.64,19.47,13.64,32.8,0,14.02-4.2,26.01-12.47,35.64-8.36,9.74-20.18,15.58-34.18,16.91l-29.34,2.79c-.42.04-.91.07-1.4.07Z"/>
          <path d="M74.26,113.7c-4.77,0-9.26-2.32-12.03-6.2-3.05-4.26-3.59-9.9-1.42-14.68l31.5-69.44c2.17-4.8,6.8-8.11,12.06-8.6l15.84-1.5c.42-.04.91-.07,1.4-.07,7.23,0,13.36,5.18,14.56,12.31l11.06,65.5c.68,4.02-.35,8.19-2.83,11.43-2.5,3.26-6.26,5.34-10.33,5.73l-16.22,1.54c-.41.04-.91.07-1.4.07-5.12,0-9.69-2.63-12.35-6.67l-.04.1c-2.12,4.96-6.79,8.36-12.18,8.88l-16.22,1.54c-.42.04-.91.07-1.4.07Z"/>
          <path d="M134.73,108.05c-4.01,0-7.89-1.66-10.66-4.55-3.15-3.29-4.59-7.75-3.97-12.25l9.38-67.73c.95-6.82,6.39-12.03,13.24-12.68l23.06-2.19c1.2-.11,2.4-.17,3.57-.17,7.66,0,14.89,2.48,20.91,7.16,7.58,5.9,11.75,14.59,11.75,24.47,0,8.07-2.12,15.07-6.3,20.81-.33.45-.67.89-1.02,1.32,2.06,4.53,5.29,10.78,9.61,18.6,2.42,4.37,2.46,9.62.12,14.04-2.33,4.41-6.69,7.33-11.66,7.8l-17.72,1.68c-.42.04-.91.07-1.4.07-4.06,0-7.89-1.69-10.63-4.53-2.39,3.64-6.34,6.11-10.93,6.55l-15.94,1.51c-.42.04-.91.07-1.4.07ZM160.05,36.78h0Z"/>
          <path d="M191.17,102.51c-4.01,0-7.9-1.66-10.67-4.56-3.13-3.26-4.58-7.73-3.96-12.24l9.38-67.54c.95-6.81,6.39-12.03,13.24-12.67l15.75-1.49c.41-.04.91-.07,1.4-.07,4.01,0,7.9,1.66,10.67,4.56,3.13,3.26,4.58,7.73,3.96,12.24l-9.38,67.54c-.95,6.81-6.39,12.03-13.24,12.67l-15.75,1.49c-.41.04-.91.07-1.4.07Z"/>
        </g>
        <g>
          <path d="M17.29,118.54c-4,0-7.89-1.66-10.67-4.55-3.17-3.33-4.61-7.81-3.96-12.32L12.23,34.5c.96-6.78,6.4-11.97,13.23-12.62l21.66-2.06c1.74-.17,3.48-.25,5.16-.25,11.1,0,21.05,3.72,28.77,10.75,8.92,8.13,13.64,19.47,13.64,32.8,0,14.02-4.2,26.01-12.47,35.64-8.36,9.74-20.18,15.58-34.18,16.91l-29.34,2.79c-.42.04-.91.07-1.4.07Z"/>
          <path d="M74.01,113.34c-4.77,0-9.26-2.32-12.03-6.2-3.05-4.26-3.59-9.9-1.42-14.68l31.5-69.44c2.17-4.8,6.8-8.11,12.06-8.6l15.84-1.5c.42-.04.91-.07,1.4-.07,7.23,0,13.36,5.18,14.56,12.31l11.06,65.5c.68,4.02-.35,8.19-2.83,11.43-2.5,3.26-6.26,5.34-10.33,5.73l-16.22,1.54c-.41.04-.91.07-1.4.07-5.12,0-9.69-2.63-12.35-6.67l-.04.1c-2.12,4.96-6.79,8.36-12.18,8.88l-16.22,1.54c-.42.04-.91.07-1.4.07Z"/>
          <path d="M134.48,107.7c-4.01,0-7.89-1.66-10.66-4.55-3.15-3.29-4.59-7.75-3.97-12.25l9.38-67.73c.95-6.82,6.39-12.03,13.24-12.68l23.06-2.19c1.2-.11,2.4-.17,3.57-.17,7.66,0,14.89,2.48,20.91,7.16,7.58,5.9,11.75,14.59,11.75,24.47,0,8.07-2.12,15.07-6.3,20.81-.33.45-.67.89-1.02,1.32,2.06,4.53,5.29,10.78,9.61,18.6,2.42,4.37,2.46,9.62.12,14.04-2.33,4.41-6.69,7.33-11.66,7.8l-17.72,1.68c-.42.04-.91.07-1.4.07-4.06,0-7.89-1.69-10.63-4.53-2.39,3.64-6.34,6.11-10.93,6.55l-15.94,1.51c-.42.04-.91.07-1.4.07ZM159.8,36.42h0Z"/>
          <path d="M190.91,102.15c-4.01,0-7.9-1.66-10.67-4.56-3.13-3.26-4.58-7.73-3.96-12.24l9.38-67.54c.95-6.81,6.39-12.03,13.24-12.67l15.75-1.49c.41-.04.91-.07,1.4-.07,4.01,0,7.9,1.66,10.67,4.56,3.13,3.26,4.58,7.73,3.96,12.24l-9.38,67.54c-.95,6.81-6.39,12.03-13.24,12.67l-15.75,1.49c-.41.04-.91.07-1.4.07Z"/>
        </g>
        <g>
          <path d="M17.04,118.18c-4,0-7.89-1.66-10.67-4.55-3.17-3.33-4.61-7.81-3.96-12.32L11.98,34.15c.96-6.78,6.4-11.97,13.23-12.62l21.66-2.06c1.74-.17,3.48-.25,5.16-.25,11.1,0,21.05,3.72,28.77,10.75,8.92,8.13,13.64,19.47,13.64,32.8,0,14.02-4.2,26.01-12.47,35.64-8.36,9.74-20.18,15.58-34.18,16.91l-29.34,2.79c-.42.04-.91.07-1.4.07Z"/>
          <path d="M73.76,112.98c-4.77,0-9.26-2.32-12.03-6.2-3.05-4.26-3.59-9.9-1.42-14.68l31.5-69.44c2.17-4.8,6.8-8.11,12.06-8.6l15.84-1.5c.42-.04.91-.07,1.4-.07,7.23,0,13.36,5.18,14.56,12.31l11.06,65.5c.68,4.02-.35,8.19-2.83,11.43-2.5,3.26-6.26,5.34-10.33,5.73l-16.22,1.54c-.41.04-.91.07-1.4.07-5.12,0-9.69-2.63-12.35-6.67l-.04.1c-2.12,4.96-6.79,8.36-12.18,8.88l-16.22,1.54c-.42.04-.91.07-1.4.07Z"/>
          <path d="M134.23,107.34c-4.01,0-7.89-1.66-10.66-4.55-3.15-3.29-4.59-7.75-3.97-12.25l9.38-67.73c.95-6.82,6.39-12.03,13.24-12.68l23.06-2.19c1.2-.11,2.4-.17,3.57-.17,7.66,0,14.89,2.48,20.91,7.16,7.58,5.9,11.75,14.59,11.75,24.47,0,8.07-2.12,15.07-6.3,20.81-.33.45-.67.89-1.02,1.32,2.06,4.53,5.29,10.78,9.61,18.6,2.42,4.37,2.46,9.62.12,14.04-2.33,4.41-6.69,7.33-11.66,7.8l-17.72,1.68c-.42.04-.91.07-1.4.07-4.06,0-7.89-1.69-10.63-4.53-2.39,3.64-6.34,6.11-10.93,6.55l-15.94,1.51c-.42.04-.91.07-1.4.07ZM159.54,36.06h0Z"/>
          <path d="M190.66,101.79c-4.01,0-7.9-1.66-10.67-4.56-3.13-3.26-4.58-7.73-3.96-12.24l9.38-67.54c.95-6.81,6.39-12.03,13.24-12.67l15.75-1.49c.41-.04.91-.07,1.4-.07,4.01,0,7.9,1.66,10.67,4.56,3.13,3.26,4.58,7.73,3.96,12.24l-9.38,67.54c-.95,6.81-6.39,12.03-13.24,12.67l-15.75,1.49c-.41.04-.91.07-1.4.07Z"/>
        </g>
        <g>
          <path d="M16.79,117.82c-4,0-7.89-1.66-10.67-4.55-3.17-3.33-4.61-7.81-3.96-12.32L11.73,33.79c.96-6.78,6.4-11.97,13.23-12.62l21.66-2.06c1.74-.17,3.48-.25,5.16-.25,11.1,0,21.05,3.72,28.77,10.75,8.92,8.13,13.64,19.47,13.64,32.8,0,14.02-4.2,26.01-12.47,35.64-8.36,9.74-20.18,15.58-34.18,16.91l-29.34,2.79c-.42.04-.91.07-1.4.07Z"/>
          <path d="M73.51,112.63c-4.77,0-9.26-2.32-12.03-6.2-3.05-4.26-3.59-9.9-1.42-14.68l31.5-69.44c2.17-4.8,6.8-8.11,12.06-8.6l15.84-1.5c.42-.04.91-.07,1.4-.07,7.23,0,13.36,5.18,14.56,12.31l11.06,65.5c.68,4.02-.35,8.19-2.83,11.43-2.5,3.26-6.26,5.34-10.33,5.73l-16.22,1.54c-.41.04-.91.07-1.4.07-5.12,0-9.69-2.63-12.35-6.67l-.04.1c-2.12,4.96-6.79,8.36-12.18,8.88l-16.22,1.54c-.42.04-.91.07-1.4.07Z"/>
          <path d="M133.97,106.98c-4.01,0-7.89-1.66-10.66-4.55-3.15-3.29-4.59-7.75-3.97-12.25l9.38-67.73c.95-6.82,6.39-12.03,13.24-12.68l23.06-2.19c1.2-.11,2.4-.17,3.57-.17,7.66,0,14.89,2.48,20.91,7.16,7.58,5.9,11.75,14.59,11.75,24.47,0,8.07-2.12,15.07-6.3,20.81-.33.45-.67.89-1.02,1.32,2.06,4.53,5.29,10.78,9.61,18.6,2.42,4.37,2.46,9.62.12,14.04-2.33,4.41-6.69,7.33-11.66,7.8l-17.72,1.68c-.42.04-.91.07-1.4.07-4.06,0-7.89-1.69-10.63-4.53-2.39,3.64-6.34,6.11-10.93,6.55l-15.94,1.51c-.42.04-.91.07-1.4.07ZM159.29,35.7h0Z"/>
          <path d="M190.41,101.43c-4.01,0-7.9-1.66-10.67-4.56-3.13-3.26-4.58-7.73-3.96-12.24l9.38-67.54c.95-6.81,6.39-12.03,13.24-12.67l15.75-1.49c.41-.04.91-.07,1.4-.07,4.01,0,7.9,1.66,10.67,4.56,3.13,3.26,4.58,7.73,3.96,12.24l-9.38,67.54c-.95,6.81-6.39,12.03-13.24,12.67l-15.75,1.49c-.41.04-.91.07-1.4.07Z"/>
        </g>
        <g>
          <path d="M16.54,117.46c-4,0-7.89-1.66-10.67-4.55-3.17-3.33-4.61-7.81-3.96-12.32L11.48,33.43c.96-6.78,6.4-11.97,13.23-12.62l21.66-2.06c1.74-.17,3.48-.25,5.16-.25,11.1,0,21.05,3.72,28.77,10.75,8.92,8.13,13.64,19.47,13.64,32.8,0,14.02-4.2,26.01-12.47,35.64-8.36,9.74-20.18,15.58-34.18,16.91l-29.34,2.79c-.42.04-.91.07-1.4.07Z"/>
          <path d="M73.25,112.27c-4.77,0-9.26-2.32-12.03-6.2-3.05-4.26-3.59-9.9-1.42-14.68l31.5-69.44c2.17-4.8,6.8-8.11,12.06-8.6l15.84-1.5c.42-.04.91-.07,1.4-.07,7.23,0,13.36,5.18,14.56,12.31l11.06,65.5c.68,4.02-.35,8.19-2.83,11.43-2.5,3.26-6.26,5.34-10.33,5.73l-16.22,1.54c-.41.04-.91.07-1.4.07-5.12,0-9.69-2.63-12.35-6.67l-.04.1c-2.12,4.96-6.79,8.36-12.18,8.88l-16.22,1.54c-.42.04-.91.07-1.4.07Z"/>
          <path d="M133.72,106.62c-4.01,0-7.89-1.66-10.66-4.55-3.15-3.29-4.59-7.75-3.97-12.25l9.38-67.73c.95-6.82,6.39-12.03,13.24-12.68l23.06-2.19c1.2-.11,2.4-.17,3.57-.17,7.66,0,14.89,2.48,20.91,7.16,7.58,5.9,11.75,14.59,11.75,24.47,0,8.07-2.12,15.07-6.3,20.81-.33.45-.67.89-1.02,1.32,2.06,4.53,5.29,10.78,9.61,18.6,2.42,4.37,2.46,9.62.12,14.04-2.33,4.41-6.69,7.33-11.66,7.8l-17.72,1.68c-.42.04-.91.07-1.4.07-4.06,0-7.89-1.69-10.63-4.53-2.39,3.64-6.34,6.11-10.93,6.55l-15.94,1.51c-.42.04-.91.07-1.4.07ZM159.04,35.35h0Z"/>
          <path d="M190.16,101.08c-4.01,0-7.9-1.66-10.67-4.56-3.13-3.26-4.58-7.73-3.96-12.24l9.38-67.54c.95-6.81,6.39-12.03,13.24-12.67l15.75-1.49c.41-.04.91-.07,1.4-.07,4.01,0,7.9,1.66,10.67,4.56,3.13,3.26,4.58,7.73,3.96,12.24l-9.38,67.54c-.95,6.81-6.39,12.03-13.24,12.67l-15.75,1.49c-.41.04-.91.07-1.4.07Z"/>
        </g>
        <g>
          <path d="M16.29,117.11c-4,0-7.89-1.66-10.67-4.55-3.17-3.33-4.61-7.81-3.96-12.32L11.22,33.08c.96-6.78,6.4-11.97,13.23-12.62l21.66-2.06c1.74-.17,3.48-.25,5.16-.25,11.1,0,21.05,3.72,28.77,10.75,8.92,8.13,13.64,19.47,13.64,32.8,0,14.02-4.2,26.01-12.47,35.64-8.36,9.74-20.18,15.58-34.18,16.91l-29.34,2.79c-.42.04-.91.07-1.4.07Z"/>
          <path d="M73,111.91c-4.77,0-9.26-2.32-12.03-6.2-3.05-4.26-3.59-9.9-1.42-14.68l31.5-69.44c2.17-4.8,6.8-8.11,12.06-8.6l15.84-1.5c.42-.04.91-.07,1.4-.07,7.23,0,13.36,5.18,14.56,12.31l11.06,65.5c.68,4.02-.35,8.19-2.83,11.43-2.5,3.26-6.26,5.34-10.33,5.73l-16.22,1.54c-.41.04-.91.07-1.4.07-5.12,0-9.69-2.63-12.35-6.67l-.04.1c-2.12,4.96-6.79,8.36-12.18,8.88l-16.22,1.54c-.42.04-.91.07-1.4.07Z"/>
          <path d="M133.47,106.27c-4.01,0-7.89-1.66-10.66-4.55-3.15-3.29-4.59-7.75-3.97-12.25l9.38-67.73c.95-6.82,6.39-12.03,13.24-12.68l23.06-2.19c1.2-.11,2.4-.17,3.57-.17,7.66,0,14.89,2.48,20.91,7.16,7.58,5.9,11.75,14.59,11.75,24.47,0,8.07-2.12,15.07-6.3,20.81-.33.45-.67.89-1.02,1.32,2.06,4.53,5.29,10.78,9.61,18.6,2.42,4.37,2.46,9.62.12,14.04-2.33,4.41-6.69,7.33-11.66,7.8l-17.72,1.68c-.42.04-.91.07-1.4.07-4.06,0-7.89-1.69-10.63-4.53-2.39,3.64-6.34,6.11-10.93,6.55l-15.94,1.51c-.42.04-.91.07-1.4.07ZM158.79,34.99h0Z"/>
          <path d="M189.91,100.72c-4.01,0-7.9-1.66-10.67-4.56-3.13-3.26-4.58-7.73-3.96-12.24l9.38-67.54c.95-6.81,6.39-12.03,13.24-12.67l15.75-1.49c.41-.04.91-.07,1.4-.07,4.01,0,7.9,1.66,10.67,4.56,3.13,3.26,4.58,7.73,3.96,12.24l-9.38,67.54c-.95,6.81-6.39,12.03-13.24,12.67l-15.75,1.49c-.41.04-.91.07-1.4.07Z"/>
        </g>
        <g>
          <path d="M16.03,116.75c-4,0-7.89-1.66-10.67-4.55-3.17-3.33-4.61-7.81-3.96-12.32L10.97,32.72c.96-6.78,6.4-11.97,13.23-12.62l21.66-2.06c1.74-.17,3.48-.25,5.16-.25,11.1,0,21.05,3.72,28.77,10.75,8.92,8.13,13.64,19.47,13.64,32.8,0,14.02-4.2,26.01-12.47,35.64-8.36,9.74-20.18,15.58-34.18,16.91l-29.34,2.79c-.42.04-.91.07-1.4.07Z"/>
          <path d="M72.75,111.55c-4.77,0-9.26-2.32-12.03-6.2-3.05-4.26-3.59-9.9-1.42-14.68l31.5-69.44c2.17-4.8,6.8-8.11,12.06-8.6l15.84-1.5c.42-.04.91-.07,1.4-.07,7.23,0,13.36,5.18,14.56,12.31l11.06,65.5c.68,4.02-.35,8.19-2.83,11.43-2.5,3.26-6.26,5.34-10.33,5.73l-16.22,1.54c-.41.04-.91.07-1.4.07-5.12,0-9.69-2.63-12.35-6.67l-.04.1c-2.12,4.96-6.79,8.36-12.18,8.88l-16.22,1.54c-.42.04-.91.07-1.4.07Z"/>
          <path d="M133.22,105.91c-4.01,0-7.89-1.66-10.66-4.55-3.15-3.29-4.59-7.75-3.97-12.25l9.38-67.73c.95-6.82,6.39-12.03,13.24-12.68l23.06-2.19c1.2-.11,2.4-.17,3.57-.17,7.66,0,14.89,2.48,20.91,7.16,7.58,5.9,11.75,14.59,11.75,24.47,0,8.07-2.12,15.07-6.3,20.81-.33.45-.67.89-1.02,1.32,2.06,4.53,5.29,10.78,9.61,18.6,2.42,4.37,2.46,9.62.12,14.04-2.33,4.41-6.69,7.33-11.66,7.8l-17.72,1.68c-.42.04-.91.07-1.4.07-4.06,0-7.89-1.69-10.63-4.53-2.39,3.64-6.34,6.11-10.93,6.55l-15.94,1.51c-.42.04-.91.07-1.4.07ZM158.54,34.63h0Z"/>
          <path d="M189.65,100.36c-4.01,0-7.9-1.66-10.67-4.56-3.13-3.26-4.58-7.73-3.96-12.24l9.38-67.54c.95-6.81,6.39-12.03,13.24-12.67l15.75-1.49c.41-.04.91-.07,1.4-.07,4.01,0,7.9,1.66,10.67,4.56,3.13,3.26,4.58,7.73,3.96,12.24l-9.38,67.54c-.95,6.81-6.39,12.03-13.24,12.67l-15.75,1.49c-.41.04-.91.07-1.4.07Z"/>
        </g>
        <g>
          <path d="M15.78,116.39c-4,0-7.89-1.66-10.67-4.55-3.17-3.33-4.61-7.81-3.96-12.32L10.72,32.36c.96-6.78,6.4-11.97,13.23-12.62l21.66-2.06c1.74-.17,3.48-.25,5.16-.25,11.1,0,21.05,3.72,28.77,10.75,8.92,8.13,13.64,19.47,13.64,32.8,0,14.02-4.2,26.01-12.47,35.64-8.36,9.74-20.18,15.58-34.18,16.91l-29.34,2.79c-.42.04-.91.07-1.4.07Z"/>
          <path d="M72.5,111.2c-4.77,0-9.26-2.32-12.03-6.2-3.05-4.26-3.59-9.9-1.42-14.68l31.5-69.44c2.17-4.8,6.8-8.11,12.06-8.6l15.84-1.5c.42-.04.91-.07,1.4-.07,7.23,0,13.36,5.18,14.56,12.31l11.06,65.5c.68,4.02-.35,8.19-2.83,11.43-2.5,3.26-6.26,5.34-10.33,5.73l-16.22,1.54c-.41.04-.91.07-1.4.07-5.12,0-9.69-2.63-12.35-6.67l-.04.1c-2.12,4.96-6.79,8.36-12.18,8.88l-16.22,1.54c-.42.04-.91.07-1.4.07Z"/>
          <path d="M132.97,105.55c-4.01,0-7.89-1.66-10.66-4.55-3.15-3.29-4.59-7.75-3.97-12.25l9.38-67.73c.95-6.82,6.39-12.03,13.24-12.68l23.06-2.19c1.2-.11,2.4-.17,3.57-.17,7.66,0,14.89,2.48,20.91,7.16,7.58,5.9,11.75,14.59,11.75,24.47,0,8.07-2.12,15.07-6.3,20.81-.33.45-.67.89-1.02,1.32,2.06,4.53,5.29,10.78,9.61,18.6,2.42,4.37,2.46,9.62.12,14.04-2.33,4.41-6.69,7.33-11.66,7.8l-17.72,1.68c-.42.04-.91.07-1.4.07-4.06,0-7.89-1.69-10.63-4.53-2.39,3.64-6.34,6.11-10.93,6.55l-15.94,1.51c-.42.04-.91.07-1.4.07ZM158.28,34.27h0Z"/>
          <path d="M189.4,100c-4.01,0-7.9-1.66-10.67-4.56-3.13-3.26-4.58-7.73-3.96-12.24l9.38-67.54c.95-6.81,6.39-12.03,13.24-12.67l15.75-1.49c.41-.04.91-.07,1.4-.07,4.01,0,7.9,1.66,10.67,4.56,3.13,3.26,4.58,7.73,3.96,12.24l-9.38,67.54c-.95,6.81-6.39,12.03-13.24,12.67l-15.75,1.49c-.41.04-.91.07-1.4.07Z"/>
        </g>
        <g>
          <path d="M15.53,116.03c-4,0-7.89-1.66-10.67-4.55-3.17-3.33-4.61-7.81-3.96-12.32L10.47,32c.96-6.78,6.4-11.97,13.23-12.62l21.66-2.06c1.74-.17,3.48-.25,5.16-.25,11.1,0,21.05,3.72,28.77,10.75,8.92,8.13,13.64,19.47,13.64,32.8,0,14.02-4.2,26.01-12.47,35.64-8.36,9.74-20.18,15.58-34.18,16.91l-29.34,2.79c-.42.04-.91.07-1.4.07Z"/>
          <path d="M72.25,110.84c-4.77,0-9.26-2.32-12.03-6.2-3.05-4.26-3.59-9.9-1.42-14.68l31.5-69.44c2.17-4.8,6.8-8.11,12.06-8.6l15.84-1.5c.42-.04.91-.07,1.4-.07,7.23,0,13.36,5.18,14.56,12.31l11.06,65.5c.68,4.02-.35,8.19-2.83,11.43-2.5,3.26-6.26,5.34-10.33,5.73l-16.22,1.54c-.41.04-.91.07-1.4.07-5.12,0-9.69-2.63-12.35-6.67l-.04.1c-2.12,4.96-6.79,8.36-12.18,8.88l-16.22,1.54c-.42.04-.91.07-1.4.07Z"/>
          <path d="M132.71,105.19c-4.01,0-7.89-1.66-10.66-4.55-3.15-3.29-4.59-7.75-3.97-12.25l9.38-67.73c.95-6.82,6.39-12.03,13.24-12.68l23.06-2.19c1.2-.11,2.4-.17,3.57-.17,7.66,0,14.89,2.48,20.91,7.16,7.58,5.9,11.75,14.59,11.75,24.47,0,8.07-2.12,15.07-6.3,20.81-.33.45-.67.89-1.02,1.32,2.06,4.53,5.29,10.78,9.61,18.6,2.42,4.37,2.46,9.62.12,14.04-2.33,4.41-6.69,7.33-11.66,7.8l-17.72,1.68c-.42.04-.91.07-1.4.07-4.06,0-7.89-1.69-10.63-4.53-2.39,3.64-6.34,6.11-10.93,6.55l-15.94,1.51c-.42.04-.91.07-1.4.07ZM158.03,33.92h0Z"/>
          <path d="M189.15,99.65c-4.01,0-7.9-1.66-10.67-4.56-3.13-3.26-4.58-7.73-3.96-12.24l9.38-67.54c.95-6.81,6.39-12.03,13.24-12.67l15.75-1.49c.41-.04.91-.07,1.4-.07,4.01,0,7.9,1.66,10.67,4.56,3.13,3.26,4.58,7.73,3.96,12.24l-9.38,67.54c-.95,6.81-6.39,12.03-13.24,12.67l-15.75,1.49c-.41.04-.91.07-1.4.07Z"/>
        </g>
        <g>
          <path d="M15.28,115.68c-4,0-7.89-1.66-10.67-4.55C1.44,107.79,0,103.31.66,98.8L10.22,31.65c.96-6.78,6.4-11.97,13.23-12.62l21.66-2.06c1.74-.17,3.48-.25,5.16-.25,11.1,0,21.05,3.72,28.77,10.75,8.92,8.13,13.64,19.47,13.64,32.8,0,14.02-4.2,26.01-12.47,35.64-8.36,9.74-20.18,15.58-34.18,16.91l-29.34,2.79c-.42.04-.91.07-1.4.07Z"/>
          <path d="M71.99,110.48c-4.77,0-9.26-2.32-12.03-6.2-3.05-4.26-3.59-9.9-1.42-14.68l31.5-69.44c2.17-4.8,6.8-8.11,12.06-8.6l15.84-1.5c.42-.04.91-.07,1.4-.07,7.23,0,13.36,5.18,14.56,12.31l11.06,65.5c.68,4.02-.35,8.19-2.83,11.43-2.5,3.26-6.26,5.34-10.33,5.73l-16.22,1.54c-.41.04-.91.07-1.4.07-5.12,0-9.69-2.63-12.35-6.67l-.04.1c-2.12,4.96-6.79,8.36-12.18,8.88l-16.22,1.54c-.42.04-.91.07-1.4.07Z"/>
          <path d="M132.46,104.84c-4.01,0-7.89-1.66-10.66-4.55-3.15-3.29-4.59-7.75-3.97-12.25l9.38-67.73c.95-6.82,6.39-12.03,13.24-12.68l23.06-2.19c1.2-.11,2.4-.17,3.57-.17,7.66,0,14.89,2.48,20.91,7.16,7.58,5.9,11.75,14.59,11.75,24.47,0,8.07-2.12,15.07-6.3,20.81-.33.45-.67.89-1.02,1.32,2.06,4.53,5.29,10.78,9.61,18.6,2.42,4.37,2.46,9.62.12,14.04-2.33,4.41-6.69,7.33-11.66,7.8l-17.72,1.68c-.42.04-.91.07-1.4.07-4.06,0-7.89-1.69-10.63-4.53-2.39,3.64-6.34,6.11-10.93,6.55l-15.94,1.51c-.42.04-.91.07-1.4.07ZM157.78,33.56h0Z"/>
          <path d="M188.9,99.29c-4.01,0-7.9-1.66-10.67-4.56-3.13-3.26-4.58-7.73-3.96-12.24l9.38-67.54c.95-6.81,6.39-12.03,13.24-12.67l15.75-1.49c.41-.04.91-.07,1.4-.07,4.01,0,7.9,1.66,10.67,4.56,3.13,3.26,4.58,7.73,3.96,12.24l-9.38,67.54c-.95,6.81-6.39,12.03-13.24,12.67l-15.75,1.49c-.41.04-.91.07-1.4.07Z"/>
        </g>
        <g>
          <path d="M15.03,115.32c-4,0-7.89-1.66-10.67-4.55-3.17-3.33-4.61-7.81-3.96-12.32L9.96,31.29c.96-6.78,6.4-11.97,13.23-12.62l21.66-2.06c1.74-.17,3.48-.25,5.16-.25,11.1,0,21.05,3.72,28.77,10.75,8.92,8.13,13.64,19.47,13.64,32.8,0,14.02-4.2,26.01-12.47,35.64-8.36,9.74-20.18,15.58-34.18,16.91l-29.34,2.79c-.42.04-.91.07-1.4.07Z"/>
          <path d="M71.74,110.12c-4.77,0-9.26-2.32-12.03-6.2-3.05-4.26-3.59-9.9-1.42-14.68l31.5-69.44c2.17-4.8,6.8-8.11,12.06-8.6l15.84-1.5c.42-.04.91-.07,1.4-.07,7.23,0,13.36,5.18,14.56,12.31l11.06,65.5c.68,4.02-.35,8.19-2.83,11.43-2.5,3.26-6.26,5.34-10.33,5.73l-16.22,1.54c-.41.04-.91.07-1.4.07-5.12,0-9.69-2.63-12.35-6.67l-.04.1c-2.12,4.96-6.79,8.36-12.18,8.88l-16.22,1.54c-.42.04-.91.07-1.4.07Z"/>
          <path d="M132.21,104.48c-4.01,0-7.89-1.66-10.66-4.55-3.15-3.29-4.59-7.75-3.97-12.25l9.38-67.73c.95-6.82,6.39-12.03,13.24-12.68l23.06-2.19c1.2-.11,2.4-.17,3.57-.17,7.66,0,14.89,2.48,20.91,7.16,7.58,5.9,11.75,14.59,11.75,24.47,0,8.07-2.12,15.07-6.3,20.81-.33.45-.67.89-1.02,1.32,2.06,4.53,5.29,10.78,9.61,18.6,2.42,4.37,2.46,9.62.12,14.04-2.33,4.41-6.69,7.33-11.66,7.8l-17.72,1.68c-.42.04-.91.07-1.4.07-4.06,0-7.89-1.69-10.63-4.53-2.39,3.64-6.34,6.11-10.93,6.55l-15.94,1.51c-.42.04-.91.07-1.4.07ZM157.53,33.2h0Z"/>
          <path d="M188.65,98.93c-4.01,0-7.9-1.66-10.67-4.56-3.13-3.26-4.58-7.73-3.96-12.24l9.38-67.54c.95-6.81,6.39-12.03,13.24-12.67l15.75-1.49c.41-.04.91-.07,1.4-.07,4.01,0,7.9,1.66,10.67,4.56,3.13,3.26,4.58,7.73,3.96,12.24l-9.38,67.54c-.95,6.81-6.39,12.03-13.24,12.67l-15.75,1.49c-.41.04-.91.07-1.4.07Z"/>
        </g>
        <g>
          <path d="M14.77,114.96c-4,0-7.89-1.66-10.67-4.55-3.17-3.33-4.61-7.81-3.96-12.32L9.71,30.93c.96-6.78,6.4-11.97,13.23-12.62l21.66-2.06c1.74-.17,3.48-.25,5.16-.25,11.1,0,21.05,3.72,28.77,10.75,8.92,8.13,13.64,19.47,13.64,32.8,0,14.02-4.2,26.01-12.47,35.64-8.36,9.74-20.18,15.58-34.18,16.91l-29.34,2.79c-.42.04-.91.07-1.4.07Z"/>
          <path d="M71.49,109.77c-4.77,0-9.26-2.32-12.03-6.2-3.05-4.26-3.59-9.9-1.42-14.68l31.5-69.44c2.17-4.8,6.8-8.11,12.06-8.6l15.84-1.5c.42-.04.91-.07,1.4-.07,7.23,0,13.36,5.18,14.56,12.31l11.06,65.5c.68,4.02-.35,8.19-2.83,11.43-2.5,3.26-6.26,5.34-10.33,5.73l-16.22,1.54c-.41.04-.91.07-1.4.07-5.12,0-9.69-2.63-12.35-6.67l-.04.1c-2.12,4.96-6.79,8.36-12.18,8.88l-16.22,1.54c-.42.04-.91.07-1.4.07Z"/>
          <path d="M131.96,104.12c-4.01,0-7.89-1.66-10.66-4.55-3.15-3.29-4.59-7.75-3.97-12.25l9.38-67.73c.95-6.82,6.39-12.03,13.24-12.68l23.06-2.19c1.2-.11,2.4-.17,3.57-.17,7.66,0,14.89,2.48,20.91,7.16,7.58,5.9,11.75,14.59,11.75,24.47,0,8.07-2.12,15.07-6.3,20.81-.33.45-.67.89-1.02,1.32,2.06,4.53,5.29,10.78,9.61,18.6,2.42,4.37,2.46,9.62.12,14.04-2.33,4.41-6.69,7.33-11.66,7.8l-17.72,1.68c-.42.04-.91.07-1.4.07-4.06,0-7.89-1.69-10.63-4.53-2.39,3.64-6.34,6.11-10.93,6.55l-15.94,1.51c-.42.04-.91.07-1.4.07ZM157.28,32.84h0Z"/>
          <path d="M188.4,98.57c-4.01,0-7.9-1.66-10.67-4.56-3.13-3.26-4.58-7.73-3.96-12.24l9.38-67.54c.95-6.81,6.39-12.03,13.24-12.67l15.75-1.49c.41-.04.91-.07,1.4-.07,4.01,0,7.9,1.66,10.67,4.56,3.13,3.26,4.58,7.73,3.96,12.24l-9.38,67.54c-.95,6.81-6.39,12.03-13.24,12.67l-15.75,1.49c-.41.04-.91.07-1.4.07Z"/>
        </g>
      </g>
      <g>
        <g>
          <path d="M17.04,112.46c-2.71,0-5.35-1.12-7.23-3.08-2.15-2.26-3.12-5.29-2.68-8.35l9.56-67.16c.65-4.59,4.33-8.11,8.96-8.55l21.66-2.06c1.6-.15,3.18-.23,4.71-.23,10.03,0,18.64,3.2,25.56,9.51,7.91,7.2,12.08,17.32,12.08,29.28,0,12.84-3.81,23.79-11.32,32.54-7.65,8.91-18.09,14.05-31.02,15.27l-29.34,2.79c-.29.03-.62.04-.95.04ZM46.37,75.22c1.67-.66,3.04-1.55,4.12-2.66,1.96-2.03,2.96-5.19,2.96-9.38,0-3.72-1-4.22-1.6-4.52-.23-.11-1.11-.47-3.03-.67l-2.44,17.22Z"/>
          <path d="M73.76,107.27c-3.23,0-6.28-1.57-8.15-4.2-2.06-2.89-2.43-6.7-.96-9.95l31.5-69.44c1.47-3.25,4.6-5.49,8.17-5.83l15.84-1.5c.29-.03.62-.04.95-.04,4.9,0,9.05,3.51,9.87,8.34l11.06,65.5c.46,2.72-.24,5.55-1.92,7.75-1.69,2.21-4.24,3.62-7,3.88l-16.22,1.54c-.29.03-.62.04-.95.04-5.06,0-9.33-3.79-9.93-8.81l-.32-2.62-3.33.32-3.19,7.42c-1.44,3.36-4.6,5.67-8.25,6.01l-16.22,1.54c-.29.03-.62.04-.95.04Z"/>
          <path d="M134.23,101.62c-2.71,0-5.35-1.12-7.22-3.08-2.13-2.23-3.11-5.25-2.69-8.3l9.38-67.73c.64-4.62,4.33-8.15,8.97-8.59l23.06-2.19c1.05-.1,2.1-.15,3.12-.15,6.59,0,12.81,2.13,17.99,6.16,6.49,5.05,9.91,12.21,9.91,20.71,0,7.04-1.81,13.1-5.39,18-.84,1.15-1.81,2.27-2.9,3.34.21.36.41.72.62,1.09l.17.31.14.32c2.09,4.71,5.53,11.43,10.24,19.97,1.64,2.96,1.67,6.52.08,9.51-1.58,2.99-4.53,4.96-7.9,5.28l-17.72,1.68c-.29.03-.62.04-.95.04-3.84,0-7.39-2.24-9.04-5.71l-3.22-6.77-.79,5.9c-.62,4.64-4.31,8.19-8.97,8.63l-15.94,1.51c-.29.03-.62.04-.95.04Z"/>
          <path d="M190.66,96.08c-2.72,0-5.35-1.13-7.23-3.09-2.12-2.21-3.1-5.23-2.68-8.29l9.38-67.54c.64-4.62,4.33-8.15,8.97-8.59l15.75-1.49c.29-.03.62-.04.95-.04,2.72,0,5.35,1.13,7.23,3.09,2.12,2.21,3.1,5.23,2.68,8.29l-9.38,67.54c-.64,4.62-4.33,8.15-8.97,8.59l-15.75,1.49c-.29.03-.62.04-.95.04Z"/>
        </g>
        <g>
          <path d="M16.79,112.21c-2.71,0-5.35-1.12-7.23-3.08-2.15-2.26-3.12-5.29-2.68-8.35l9.56-67.16c.65-4.59,4.33-8.11,8.96-8.55l21.66-2.06c1.6-.15,3.18-.23,4.71-.23,10.03,0,18.64,3.2,25.56,9.51,7.91,7.2,12.08,17.32,12.08,29.28,0,12.84-3.81,23.79-11.32,32.54-7.65,8.91-18.09,14.05-31.02,15.27l-29.34,2.79c-.29.03-.62.04-.95.04ZM46.12,74.96c1.67-.66,3.04-1.55,4.12-2.66,1.96-2.03,2.96-5.19,2.96-9.38,0-3.72-1-4.22-1.6-4.52-.23-.11-1.11-.47-3.03-.67l-2.44,17.22Z"/>
          <path d="M73.51,107.02c-3.23,0-6.28-1.57-8.15-4.2-2.06-2.89-2.43-6.7-.96-9.95l31.5-69.44c1.47-3.25,4.6-5.49,8.17-5.83l15.84-1.5c.29-.03.62-.04.95-.04,4.9,0,9.05,3.51,9.87,8.34l11.06,65.5c.46,2.72-.24,5.55-1.92,7.75-1.69,2.21-4.24,3.62-7,3.88l-16.22,1.54c-.29.03-.62.04-.95.04-5.06,0-9.33-3.79-9.93-8.81l-.32-2.62-3.33.32-3.19,7.42c-1.44,3.36-4.6,5.67-8.25,6.01l-16.22,1.54c-.29.03-.62.04-.95.04Z"/>
          <path d="M133.97,101.37c-2.71,0-5.35-1.12-7.22-3.08-2.13-2.23-3.11-5.25-2.69-8.3l9.38-67.73c.64-4.62,4.33-8.15,8.97-8.59l23.06-2.19c1.05-.1,2.1-.15,3.12-.15,6.59,0,12.81,2.13,17.99,6.16,6.49,5.05,9.91,12.21,9.91,20.71,0,7.04-1.81,13.1-5.39,18-.84,1.15-1.81,2.27-2.9,3.34.21.36.41.72.62,1.09l.17.31.14.32c2.09,4.71,5.53,11.43,10.24,19.97,1.64,2.96,1.67,6.52.08,9.51-1.58,2.99-4.53,4.96-7.9,5.28l-17.72,1.68c-.29.03-.62.04-.95.04-3.84,0-7.39-2.24-9.04-5.71l-3.22-6.77-.79,5.9c-.62,4.64-4.31,8.19-8.97,8.63l-15.94,1.51c-.29.03-.62.04-.95.04Z"/>
          <path d="M190.41,95.82c-2.72,0-5.35-1.13-7.23-3.09-2.12-2.21-3.1-5.23-2.68-8.29l9.38-67.54c.64-4.62,4.33-8.15,8.97-8.59l15.75-1.49c.29-.03.62-.04.95-.04,2.72,0,5.35,1.13,7.23,3.09,2.12,2.21,3.1,5.23,2.68,8.29l-9.38,67.54c-.64,4.62-4.33,8.15-8.97,8.59l-15.75,1.49c-.29.03-.62.04-.95.04Z"/>
        </g>
        <g>
          <path d="M16.54,111.96c-2.71,0-5.35-1.12-7.23-3.08-2.15-2.26-3.12-5.29-2.68-8.35l9.56-67.16c.65-4.59,4.33-8.11,8.96-8.55l21.66-2.06c1.6-.15,3.18-.23,4.71-.23,10.03,0,18.64,3.2,25.56,9.51,7.91,7.2,12.08,17.32,12.08,29.28,0,12.84-3.81,23.79-11.32,32.54-7.65,8.91-18.09,14.05-31.02,15.27l-29.34,2.79c-.29.03-.62.04-.95.04ZM45.86,74.71c1.67-.66,3.04-1.55,4.12-2.66,1.96-2.03,2.96-5.19,2.96-9.38,0-3.72-1-4.22-1.6-4.52-.23-.11-1.11-.47-3.03-.67l-2.44,17.22Z"/>
          <path d="M73.25,106.76c-3.23,0-6.28-1.57-8.15-4.2-2.06-2.89-2.43-6.7-.96-9.95l31.5-69.44c1.47-3.25,4.6-5.49,8.17-5.83l15.84-1.5c.29-.03.62-.04.95-.04,4.9,0,9.05,3.51,9.87,8.34l11.06,65.5c.46,2.72-.24,5.55-1.92,7.75-1.69,2.21-4.24,3.62-7,3.88l-16.22,1.54c-.29.03-.62.04-.95.04-5.06,0-9.33-3.79-9.93-8.81l-.32-2.62-3.33.32-3.19,7.42c-1.44,3.36-4.6,5.67-8.25,6.01l-16.22,1.54c-.29.03-.62.04-.95.04Z"/>
          <path d="M133.72,101.12c-2.71,0-5.35-1.12-7.22-3.08-2.13-2.23-3.11-5.25-2.69-8.3l9.38-67.73c.64-4.62,4.33-8.15,8.97-8.59l23.06-2.19c1.05-.1,2.1-.15,3.12-.15,6.59,0,12.81,2.13,17.99,6.16,6.49,5.05,9.91,12.21,9.91,20.71,0,7.04-1.81,13.1-5.39,18-.84,1.15-1.81,2.27-2.9,3.34.21.36.41.72.62,1.09l.17.31.14.32c2.09,4.71,5.53,11.43,10.24,19.97,1.64,2.96,1.67,6.52.08,9.51-1.58,2.99-4.53,4.96-7.9,5.28l-17.72,1.68c-.29.03-.62.04-.95.04-3.84,0-7.39-2.24-9.04-5.71l-3.22-6.77-.79,5.9c-.62,4.64-4.31,8.19-8.97,8.63l-15.94,1.51c-.29.03-.62.04-.95.04Z"/>
          <path d="M190.16,95.57c-2.72,0-5.35-1.13-7.23-3.09-2.12-2.21-3.1-5.23-2.68-8.29l9.38-67.54c.64-4.62,4.33-8.15,8.97-8.59l15.75-1.49c.29-.03.62-.04.95-.04,2.72,0,5.35,1.13,7.23,3.09,2.12,2.21,3.1,5.23,2.68,8.29l-9.38,67.54c-.64,4.62-4.33,8.15-8.97,8.59l-15.75,1.49c-.29.03-.62.04-.95.04Z"/>
        </g>
        <g>
          <path d="M16.29,111.71c-2.71,0-5.35-1.12-7.23-3.08-2.15-2.26-3.12-5.29-2.68-8.35L15.94,33.11c.65-4.59,4.33-8.11,8.96-8.55l21.66-2.06c1.6-.15,3.18-.23,4.71-.23,10.03,0,18.64,3.2,25.56,9.51,7.91,7.2,12.08,17.32,12.08,29.28,0,12.84-3.81,23.79-11.32,32.54-7.65,8.91-18.09,14.05-31.02,15.27l-29.34,2.79c-.29.03-.62.04-.95.04ZM45.61,74.46c1.67-.66,3.04-1.55,4.12-2.66,1.96-2.03,2.96-5.19,2.96-9.38,0-3.72-1-4.22-1.6-4.52-.23-.11-1.11-.47-3.03-.67l-2.44,17.22Z"/>
          <path d="M73,106.51c-3.23,0-6.28-1.57-8.15-4.2-2.06-2.89-2.43-6.7-.96-9.95l31.5-69.44c1.47-3.25,4.6-5.49,8.17-5.83l15.84-1.5c.29-.03.62-.04.95-.04,4.9,0,9.05,3.51,9.87,8.34l11.06,65.5c.46,2.72-.24,5.55-1.92,7.75-1.69,2.21-4.24,3.62-7,3.88l-16.22,1.54c-.29.03-.62.04-.95.04-5.06,0-9.33-3.79-9.93-8.81l-.32-2.62-3.33.32-3.19,7.42c-1.44,3.36-4.6,5.67-8.25,6.01l-16.22,1.54c-.29.03-.62.04-.95.04Z"/>
          <path d="M133.47,100.87c-2.71,0-5.35-1.12-7.22-3.08-2.13-2.23-3.11-5.25-2.69-8.3l9.38-67.73c.64-4.62,4.33-8.15,8.97-8.59l23.06-2.19c1.05-.1,2.1-.15,3.12-.15,6.59,0,12.81,2.13,17.99,6.16,6.49,5.05,9.91,12.21,9.91,20.71,0,7.04-1.81,13.1-5.39,18-.84,1.15-1.81,2.27-2.9,3.34.21.36.41.72.62,1.09l.17.31.14.32c2.09,4.71,5.53,11.43,10.24,19.97,1.64,2.96,1.67,6.52.08,9.51-1.58,2.99-4.53,4.96-7.9,5.28l-17.72,1.68c-.29.03-.62.04-.95.04-3.84,0-7.39-2.24-9.04-5.71l-3.22-6.77-.79,5.9c-.62,4.64-4.31,8.19-8.97,8.63l-15.94,1.51c-.29.03-.62.04-.95.04Z"/>
          <path d="M189.91,95.32c-2.72,0-5.35-1.13-7.23-3.09-2.12-2.21-3.1-5.23-2.68-8.29l9.38-67.54c.64-4.62,4.33-8.15,8.97-8.59l15.75-1.49c.29-.03.62-.04.95-.04,2.72,0,5.35,1.13,7.23,3.09,2.12,2.21,3.1,5.23,2.68,8.29l-9.38,67.54c-.64,4.62-4.33,8.15-8.97,8.59l-15.75,1.49c-.29.03-.62.04-.95.04Z"/>
        </g>
        <g>
          <path d="M16.03,111.46c-2.71,0-5.35-1.12-7.23-3.08-2.15-2.26-3.12-5.29-2.68-8.35L15.69,32.86c.65-4.59,4.33-8.11,8.96-8.55l21.66-2.06c1.6-.15,3.18-.23,4.71-.23,10.03,0,18.64,3.2,25.56,9.51,7.91,7.2,12.08,17.32,12.08,29.28,0,12.84-3.81,23.79-11.32,32.54-7.65,8.91-18.09,14.05-31.02,15.27l-29.34,2.79c-.29.03-.62.04-.95.04ZM45.36,74.21c1.67-.66,3.04-1.55,4.12-2.66,1.96-2.03,2.96-5.19,2.96-9.38,0-3.72-1-4.22-1.6-4.52-.23-.11-1.11-.47-3.03-.67l-2.44,17.22Z"/>
          <path d="M72.75,106.26c-3.23,0-6.28-1.57-8.15-4.2-2.06-2.89-2.43-6.7-.96-9.95l31.5-69.44c1.47-3.25,4.6-5.49,8.17-5.83l15.84-1.5c.29-.03.62-.04.95-.04,4.9,0,9.05,3.51,9.87,8.34l11.06,65.5c.46,2.72-.24,5.55-1.92,7.75-1.69,2.21-4.24,3.62-7,3.88l-16.22,1.54c-.29.03-.62.04-.95.04-5.06,0-9.33-3.79-9.93-8.81l-.32-2.62-3.33.32-3.19,7.42c-1.44,3.36-4.6,5.67-8.25,6.01l-16.22,1.54c-.29.03-.62.04-.95.04Z"/>
          <path d="M133.22,100.62c-2.71,0-5.35-1.12-7.22-3.08-2.13-2.23-3.11-5.25-2.69-8.3l9.38-67.73c.64-4.62,4.33-8.15,8.97-8.59l23.06-2.19c1.05-.1,2.1-.15,3.12-.15,6.59,0,12.81,2.13,17.99,6.16,6.49,5.05,9.91,12.21,9.91,20.71,0,7.04-1.81,13.1-5.39,18-.84,1.15-1.81,2.27-2.9,3.34.21.36.41.72.62,1.09l.17.31.14.32c2.09,4.71,5.53,11.43,10.24,19.97,1.64,2.96,1.67,6.52.08,9.51-1.58,2.99-4.53,4.96-7.9,5.28l-17.72,1.68c-.29.03-.62.04-.95.04-3.84,0-7.39-2.24-9.04-5.71l-3.22-6.77-.79,5.9c-.62,4.64-4.31,8.19-8.97,8.63l-15.94,1.51c-.29.03-.62.04-.95.04Z"/>
          <path d="M189.65,95.07c-2.72,0-5.35-1.13-7.23-3.09-2.12-2.21-3.1-5.23-2.68-8.29l9.38-67.54c.64-4.62,4.33-8.15,8.97-8.59l15.75-1.49c.29-.03.62-.04.95-.04,2.72,0,5.35,1.13,7.23,3.09,2.12,2.21,3.1,5.23,2.68,8.29l-9.38,67.54c-.64,4.62-4.33,8.15-8.97,8.59l-15.75,1.49c-.29.03-.62.04-.95.04Z"/>
        </g>
        <g>
          <path d="M15.78,111.2c-2.71,0-5.35-1.12-7.23-3.08-2.15-2.26-3.12-5.29-2.68-8.35L15.44,32.61c.65-4.59,4.33-8.11,8.96-8.55l21.66-2.06c1.6-.15,3.18-.23,4.71-.23,10.03,0,18.64,3.2,25.56,9.51,7.91,7.2,12.08,17.32,12.08,29.28,0,12.84-3.81,23.79-11.32,32.54-7.65,8.91-18.09,14.05-31.02,15.27l-29.34,2.79c-.29.03-.62.04-.95.04ZM45.11,73.96c1.67-.66,3.04-1.55,4.12-2.66,1.96-2.03,2.96-5.19,2.96-9.38,0-3.72-1-4.22-1.6-4.52-.23-.11-1.11-.47-3.03-.67l-2.44,17.22Z"/>
          <path d="M72.5,106.01c-3.23,0-6.28-1.57-8.15-4.2-2.06-2.89-2.43-6.7-.96-9.95l31.5-69.44c1.47-3.25,4.6-5.49,8.17-5.83l15.84-1.5c.29-.03.62-.04.95-.04,4.9,0,9.05,3.51,9.87,8.34l11.06,65.5c.46,2.72-.24,5.55-1.92,7.75-1.69,2.21-4.24,3.62-7,3.88l-16.22,1.54c-.29.03-.62.04-.95.04-5.06,0-9.33-3.79-9.93-8.81l-.32-2.62-3.33.32-3.19,7.42c-1.44,3.36-4.6,5.67-8.25,6.01l-16.22,1.54c-.29.03-.62.04-.95.04Z"/>
          <path d="M132.97,100.36c-2.71,0-5.35-1.12-7.22-3.08-2.13-2.23-3.11-5.25-2.69-8.3l9.38-67.73c.64-4.62,4.33-8.15,8.97-8.59l23.06-2.19c1.05-.1,2.1-.15,3.12-.15,6.59,0,12.81,2.13,17.99,6.16,6.49,5.05,9.91,12.21,9.91,20.71,0,7.04-1.81,13.1-5.39,18-.84,1.15-1.81,2.27-2.9,3.34.21.36.41.72.62,1.09l.17.31.14.32c2.09,4.71,5.53,11.43,10.24,19.97,1.64,2.96,1.67,6.52.08,9.51-1.58,2.99-4.53,4.96-7.9,5.28l-17.72,1.68c-.29.03-.62.04-.95.04-3.84,0-7.39-2.24-9.04-5.71l-3.22-6.77-.79,5.9c-.62,4.64-4.31,8.19-8.97,8.63l-15.94,1.51c-.29.03-.62.04-.95.04Z"/>
          <path d="M189.4,94.82c-2.72,0-5.35-1.13-7.23-3.09-2.12-2.21-3.1-5.23-2.68-8.29l9.38-67.54c.64-4.62,4.33-8.15,8.97-8.59l15.75-1.49c.29-.03.62-.04.95-.04,2.72,0,5.35,1.13,7.23,3.09,2.12,2.21,3.1,5.23,2.68,8.29l-9.38,67.54c-.64,4.62-4.33,8.15-8.97,8.59l-15.75,1.49c-.29.03-.62.04-.95.04Z"/>
        </g>
        <g>
          <path d="M15.53,110.95c-2.71,0-5.35-1.12-7.23-3.08-2.15-2.26-3.12-5.29-2.68-8.35L15.19,32.36c.65-4.59,4.33-8.11,8.96-8.55l21.66-2.06c1.6-.15,3.18-.23,4.71-.23,10.03,0,18.64,3.2,25.56,9.51,7.91,7.2,12.08,17.32,12.08,29.28,0,12.84-3.81,23.79-11.32,32.54-7.65,8.91-18.09,14.05-31.02,15.27l-29.34,2.79c-.29.03-.62.04-.95.04ZM44.86,73.7c1.67-.66,3.04-1.55,4.12-2.66,1.96-2.03,2.96-5.19,2.96-9.38,0-3.72-1-4.22-1.6-4.52-.23-.11-1.11-.47-3.03-.67l-2.44,17.22Z"/>
          <path d="M72.25,105.76c-3.23,0-6.28-1.57-8.15-4.2-2.06-2.89-2.43-6.7-.96-9.95l31.5-69.44c1.47-3.25,4.6-5.49,8.17-5.83l15.84-1.5c.29-.03.62-.04.95-.04,4.9,0,9.05,3.51,9.87,8.34l11.06,65.5c.46,2.72-.24,5.55-1.92,7.75-1.69,2.21-4.24,3.62-7,3.88l-16.22,1.54c-.29.03-.62.04-.95.04-5.06,0-9.33-3.79-9.93-8.81l-.32-2.62-3.33.32-3.19,7.42c-1.44,3.36-4.6,5.67-8.25,6.01l-16.22,1.54c-.29.03-.62.04-.95.04Z"/>
          <path d="M132.71,100.11c-2.71,0-5.35-1.12-7.22-3.08-2.13-2.23-3.11-5.25-2.69-8.3l9.38-67.73c.64-4.62,4.33-8.15,8.97-8.59l23.06-2.19c1.05-.1,2.1-.15,3.12-.15,6.59,0,12.81,2.13,17.99,6.16,6.49,5.05,9.91,12.21,9.91,20.71,0,7.04-1.81,13.1-5.39,18-.84,1.15-1.81,2.27-2.9,3.34.21.36.41.72.62,1.09l.17.31.14.32c2.09,4.71,5.53,11.43,10.24,19.97,1.64,2.96,1.67,6.52.08,9.51-1.58,2.99-4.53,4.96-7.9,5.28l-17.72,1.68c-.29.03-.62.04-.95.04-3.84,0-7.39-2.24-9.04-5.71l-3.22-6.77-.79,5.9c-.62,4.64-4.31,8.19-8.97,8.63l-15.94,1.51c-.29.03-.62.04-.95.04Z"/>
          <path d="M189.15,94.56c-2.72,0-5.35-1.13-7.23-3.09-2.12-2.21-3.1-5.23-2.68-8.29l9.38-67.54c.64-4.62,4.33-8.15,8.97-8.59l15.75-1.49c.29-.03.62-.04.95-.04,2.72,0,5.35,1.13,7.23,3.09,2.12,2.21,3.1,5.23,2.68,8.29l-9.38,67.54c-.64,4.62-4.33,8.15-8.97,8.59l-15.75,1.49c-.29.03-.62.04-.95.04Z"/>
        </g>
        <g>
          <path d="M15.28,110.7c-2.71,0-5.35-1.12-7.23-3.08-2.15-2.26-3.12-5.29-2.68-8.35L14.93,32.11c.65-4.59,4.33-8.11,8.96-8.55l21.66-2.06c1.6-.15,3.18-.23,4.71-.23,10.03,0,18.64,3.2,25.56,9.51,7.91,7.2,12.08,17.32,12.08,29.28,0,12.84-3.81,23.79-11.32,32.54-7.65,8.91-18.09,14.05-31.02,15.27l-29.34,2.79c-.29.03-.62.04-.95.04ZM44.61,73.45c1.67-.66,3.04-1.55,4.12-2.66,1.96-2.03,2.96-5.19,2.96-9.38,0-3.72-1-4.22-1.6-4.52-.23-.11-1.11-.47-3.03-.67l-2.44,17.22Z"/>
          <path d="M71.99,105.5c-3.23,0-6.28-1.57-8.15-4.2-2.06-2.89-2.43-6.7-.96-9.95l31.5-69.44c1.47-3.25,4.6-5.49,8.17-5.83l15.84-1.5c.29-.03.62-.04.95-.04,4.9,0,9.05,3.51,9.87,8.34l11.06,65.5c.46,2.72-.24,5.55-1.92,7.75-1.69,2.21-4.24,3.62-7,3.88l-16.22,1.54c-.29.03-.62.04-.95.04-5.06,0-9.33-3.79-9.93-8.81l-.32-2.62-3.33.32-3.19,7.42c-1.44,3.36-4.6,5.67-8.25,6.01l-16.22,1.54c-.29.03-.62.04-.95.04Z"/>
          <path d="M132.46,99.86c-2.71,0-5.35-1.12-7.22-3.08-2.13-2.23-3.11-5.25-2.69-8.3l9.38-67.73c.64-4.62,4.33-8.15,8.97-8.59l23.06-2.19c1.05-.1,2.1-.15,3.12-.15,6.59,0,12.81,2.13,17.99,6.16,6.49,5.05,9.91,12.21,9.91,20.71,0,7.04-1.81,13.1-5.39,18-.84,1.15-1.81,2.27-2.9,3.34.21.36.41.72.62,1.09l.17.31.14.32c2.09,4.71,5.53,11.43,10.24,19.97,1.64,2.96,1.67,6.52.08,9.51-1.58,2.99-4.53,4.96-7.9,5.28l-17.72,1.68c-.29.03-.62.04-.95.04-3.84,0-7.39-2.24-9.04-5.71l-3.22-6.77-.79,5.9c-.62,4.64-4.31,8.19-8.97,8.63l-15.94,1.51c-.29.03-.62.04-.95.04Z"/>
          <path d="M188.9,94.31c-2.72,0-5.35-1.13-7.23-3.09-2.12-2.21-3.1-5.23-2.68-8.29l9.38-67.54c.64-4.62,4.33-8.15,8.97-8.59l15.75-1.49c.29-.03.62-.04.95-.04,2.72,0,5.35,1.13,7.23,3.09,2.12,2.21,3.1,5.23,2.68,8.29l-9.38,67.54c-.64,4.62-4.33,8.15-8.97,8.59l-15.75,1.49c-.29.03-.62.04-.95.04Z"/>
        </g>
        <g>
          <path d="M15.03,110.45c-2.71,0-5.35-1.12-7.23-3.08-2.15-2.26-3.12-5.29-2.68-8.35L14.68,31.85c.65-4.59,4.33-8.11,8.96-8.55l21.66-2.06c1.6-.15,3.18-.23,4.71-.23,10.03,0,18.64,3.2,25.56,9.51,7.91,7.2,12.08,17.32,12.08,29.28,0,12.84-3.81,23.79-11.32,32.54-7.65,8.91-18.09,14.05-31.02,15.27l-29.34,2.79c-.29.03-.62.04-.95.04ZM44.35,73.2c1.67-.66,3.04-1.55,4.12-2.66,1.96-2.03,2.96-5.19,2.96-9.38,0-3.72-1-4.22-1.6-4.52-.23-.11-1.11-.47-3.03-.67l-2.44,17.22Z"/>
          <path d="M71.74,105.25c-3.23,0-6.28-1.57-8.15-4.2-2.06-2.89-2.43-6.7-.96-9.95l31.5-69.44c1.47-3.25,4.6-5.49,8.17-5.83l15.84-1.5c.29-.03.62-.04.95-.04,4.9,0,9.05,3.51,9.87,8.34l11.06,65.5c.46,2.72-.24,5.55-1.92,7.75-1.69,2.21-4.24,3.62-7,3.88l-16.22,1.54c-.29.03-.62.04-.95.04-5.06,0-9.33-3.79-9.93-8.81l-.32-2.62-3.33.32-3.19,7.42c-1.44,3.36-4.6,5.67-8.25,6.01l-16.22,1.54c-.29.03-.62.04-.95.04Z"/>
          <path d="M132.21,99.61c-2.71,0-5.35-1.12-7.22-3.08-2.13-2.23-3.11-5.25-2.69-8.3l9.38-67.73c.64-4.62,4.33-8.15,8.97-8.59l23.06-2.19c1.05-.1,2.1-.15,3.12-.15,6.59,0,12.81,2.13,17.99,6.16,6.49,5.05,9.91,12.21,9.91,20.71,0,7.04-1.81,13.1-5.39,18-.84,1.15-1.81,2.27-2.9,3.34.21.36.41.72.62,1.09l.17.31.14.32c2.09,4.71,5.53,11.43,10.24,19.97,1.64,2.96,1.67,6.52.08,9.51-1.58,2.99-4.53,4.96-7.9,5.28l-17.72,1.68c-.29.03-.62.04-.95.04-3.84,0-7.39-2.24-9.04-5.71l-3.22-6.77-.79,5.9c-.62,4.64-4.31,8.19-8.97,8.63l-15.94,1.51c-.29.03-.62.04-.95.04Z"/>
          <path d="M188.65,94.06c-2.72,0-5.35-1.13-7.23-3.09-2.12-2.21-3.1-5.23-2.68-8.29l9.38-67.54c.64-4.62,4.33-8.15,8.97-8.59l15.75-1.49c.29-.03.62-.04.95-.04,2.72,0,5.35,1.13,7.23,3.09,2.12,2.21,3.1,5.23,2.68,8.29l-9.38,67.54c-.64,4.62-4.33,8.15-8.97,8.59l-15.75,1.49c-.29.03-.62.04-.95.04Z"/>
        </g>
        <g>
          <path d="M14.77,110.2c-2.71,0-5.35-1.12-7.23-3.08-2.15-2.26-3.12-5.29-2.68-8.35L14.43,31.6c.65-4.59,4.33-8.11,8.96-8.55l21.66-2.06c1.6-.15,3.18-.23,4.71-.23,10.03,0,18.64,3.2,25.56,9.51,7.91,7.2,12.08,17.32,12.08,29.28,0,12.84-3.81,23.79-11.32,32.54-7.65,8.91-18.09,14.05-31.02,15.27l-29.34,2.79c-.29.03-.62.04-.95.04ZM44.1,72.95c1.67-.66,3.04-1.55,4.12-2.66,1.96-2.03,2.96-5.19,2.96-9.38,0-3.72-1-4.22-1.6-4.52-.23-.11-1.11-.47-3.03-.67l-2.44,17.22Z"/>
          <path d="M71.49,105c-3.23,0-6.28-1.57-8.15-4.2-2.06-2.89-2.43-6.7-.96-9.95l31.5-69.44c1.47-3.25,4.6-5.49,8.17-5.83l15.84-1.5c.29-.03.62-.04.95-.04,4.9,0,9.05,3.51,9.87,8.34l11.06,65.5c.46,2.72-.24,5.55-1.92,7.75-1.69,2.21-4.24,3.62-7,3.88l-16.22,1.54c-.29.03-.62.04-.95.04-5.06,0-9.33-3.79-9.93-8.81l-.32-2.62-3.33.32-3.19,7.42c-1.44,3.36-4.6,5.67-8.25,6.01l-16.22,1.54c-.29.03-.62.04-.95.04Z"/>
          <path d="M131.96,99.36c-2.71,0-5.35-1.12-7.22-3.08-2.13-2.23-3.11-5.25-2.69-8.3l9.38-67.73c.64-4.62,4.33-8.15,8.97-8.59l23.06-2.19c1.05-.1,2.1-.15,3.12-.15,6.59,0,12.81,2.13,17.99,6.16,6.49,5.05,9.91,12.21,9.91,20.71,0,7.04-1.81,13.1-5.39,18-.84,1.15-1.81,2.27-2.9,3.34.21.36.41.72.62,1.09l.17.31.14.32c2.09,4.71,5.53,11.43,10.24,19.97,1.64,2.96,1.67,6.52.08,9.51-1.58,2.99-4.53,4.96-7.9,5.28l-17.72,1.68c-.29.03-.62.04-.95.04-3.84,0-7.39-2.24-9.04-5.71l-3.22-6.77-.79,5.9c-.62,4.64-4.31,8.19-8.97,8.63l-15.94,1.51c-.29.03-.62.04-.95.04Z"/>
          <path d="M188.4,93.81c-2.72,0-5.35-1.13-7.23-3.09-2.12-2.21-3.1-5.23-2.68-8.29l9.38-67.54c.64-4.62,4.33-8.15,8.97-8.59l15.75-1.49c.29-.03.62-.04.95-.04,2.72,0,5.35,1.13,7.23,3.09,2.12,2.21,3.1,5.23,2.68,8.29l-9.38,67.54c-.64,4.62-4.33,8.15-8.97,8.59l-15.75,1.49c-.29.03-.62.04-.95.04Z"/>
        </g>
      </g>
      <g>
        <path class="cls-1" d="M14.77,101.26c-.29,0-.57-.12-.78-.33-.23-.24-.33-.57-.29-.89l9.56-67.18c.07-.49.47-.87.96-.92l21.66-2.06c1.32-.12,2.62-.19,3.87-.19,7.74,0,14.32,2.42,19.55,7.18,6.08,5.54,9.16,13.17,9.16,22.67,0,10.65-3.08,19.64-9.17,26.71-6.1,7.1-14.54,11.2-25.09,12.2l-29.34,2.79s-.07,0-.1,0ZM33.56,83.66l5.68-.54c6.58-.62,11.77-2.85,15.41-6.62,3.62-3.75,5.46-9,5.46-15.59,0-6.21-2.14-10.3-6.53-12.5-2.38-1.16-5.75-1.75-10.01-1.75-1.48,0-3.08.07-4.79.21l-5.22,36.8Z"/>
        <path class="cls-1" d="M71.49,96.07c-.34,0-.67-.17-.87-.45-.22-.31-.26-.72-.1-1.07l31.5-69.45c.16-.35.49-.59.88-.62l15.84-1.5s.07,0,.1,0c.52,0,.97.37,1.06.89l11.06,65.5c.05.29-.03.6-.21.83-.18.24-.45.39-.75.42l-16.22,1.54s-.07,0-.1,0c-.54,0-1-.4-1.06-.94l-1.37-11.26-17.26,1.64-5.28,12.29c-.15.36-.49.61-.88.64l-16.22,1.54s-.07,0-.1,0ZM107.61,47.62c-2,5.47-4.63,11.99-7.88,19.49l9.91-.94c-.44-3.08-.86-6.21-1.25-9.33-.37-3.2-.63-6.28-.79-9.21Z"/>
        <path class="cls-1" d="M131.96,90.42c-.29,0-.57-.12-.77-.33-.23-.24-.33-.56-.29-.89l9.38-67.73c.07-.49.47-.87.96-.92l23.06-2.19c.77-.07,1.53-.11,2.27-.11,4.65,0,8.85,1.44,12.5,4.28,4.29,3.34,6.46,7.93,6.46,13.66,0,5.11-1.24,9.4-3.67,12.74-1.88,2.58-4.83,4.98-8.78,7.14,2.24,1.45,4.2,3.73,5.86,6.8,2.2,4.97,5.75,11.9,10.59,20.67.17.32.18.7,0,1.02-.17.32-.49.53-.85.57l-17.72,1.68s-.07,0-.1,0c-.41,0-.79-.24-.97-.61l-8.53-17.95c-1.24-2.67-2.67-4.64-4.28-5.87-1.32-1.01-2.79-1.51-4.48-1.51h-.01l-3.63,27.09c-.07.49-.46.88-.96.93l-15.94,1.51s-.07,0-.1,0ZM154.48,47.11l1.29-.12c7.86-.75,11.68-3.41,11.68-8.15,0-2.42-.77-5.65-7.42-5.65-.73,0-1.53.04-2.37.12l-1.13.11-.26.05-1.79,13.64Z"/>
        <path class="cls-1" d="M188.4,84.88c-.29,0-.57-.12-.77-.33-.23-.24-.33-.56-.29-.89l9.38-67.54c.07-.49.47-.87.96-.92l15.75-1.5s.07,0,.1,0c.29,0,.57.12.77.33.23.24.33.56.29.89l-9.38,67.54c-.07.49-.47.87-.96.92l-15.75,1.5s-.07,0-.1,0Z"/>
      </g>
    </g>
  </g>
</svg>