<?xml version="1.0" encoding="UTF-8"?>
<svg id="Layer_2" data-name="Layer 2" xmlns="http://www.w3.org/2000/svg" viewBox="0 0 1946.35 1784.15">
  <defs>
    <style>
      .cls-1 {
        fill: #39b54a;
      }

      .cls-2 {
        fill: #8cc63f;
      }

      .cls-3 {
        opacity: .3;
      }

      .cls-4 {
        fill: #fff;
      }

      .cls-5 {
        fill: #009245;
      }

      .cls-6 {
        fill: #338939;
      }

      .cls-7 {
        fill: none;
        stroke: #fff;
        stroke-linecap: round;
        stroke-miterlimit: 10;
        stroke-width: 5px;
      }

      .cls-8 {
        fill: #999;
      }

      .cls-9 {
        opacity: .5;
      }
    </style>
  </defs>
  <g id="Layer_1-2" data-name="Layer 1">
    <rect class="cls-8" width="1946.35" height="1784.15"/>
    <g>
      <rect class="cls-6" x="162.2" y="648.78" width="1621.96" height="162.2"/>
      <g>
        <path class="cls-3" d="M289.54,737.44c-.94-6.79-5.66-11.04-11.52-13.47-.2-7.29-4.72-14.91-9.69-20.02-4.74-4.86-11.52-8.03-18.4-7.01-3.22.48-5.87,1.9-8.17,3.82-2.01-.7-4.07-1.21-6.12-1.53-6.8-1.04-15.07-.54-20.53,4.15-2.22,1.91-3.73,4.64-4.26,7.49-7.07.49-13.93,3.21-17.29,9.98-4.67,9.41-.18,18.65,5.7,26.18-1.71,4.97-.69,10.76,2.2,15.17,3.76,5.74,10.37,8.81,16.78,10.57,6.11,1.67,12.94,2.37,18.86-.35,2.23-1.02,4.25-2.6,5.73-4.51,7.24,2.01,15.25,1.09,21.97-2.43,4.53-2.37,8.9-6.23,11-10.95.08-.19.15-.38.22-.57,2.15-.22,4.26-.85,6.24-2.01,5.06-2.96,8.1-8.67,7.29-14.52Z"/>
        <g>
          <path class="cls-5" d="M280.31,732.8c-.93-6.79-5.66-11.04-11.52-13.47-.2-7.29-4.72-14.91-9.69-20.02-4.74-4.86-11.52-8.03-18.4-7.01-3.22.48-5.87,1.9-8.17,3.82-2.01-.7-4.07-1.21-6.12-1.53-6.8-1.04-15.07-.54-20.53,4.15-2.22,1.91-3.73,4.64-4.26,7.49-7.07.49-13.93,3.21-17.29,9.98-4.67,9.41-.18,18.65,5.7,26.18-1.71,4.97-.69,10.76,2.2,15.17,3.76,5.74,10.37,8.81,16.78,10.57,6.11,1.67,12.94,2.37,18.86-.35,2.23-1.02,4.25-2.6,5.73-4.51,7.24,2.01,15.25,1.09,21.97-2.43,4.53-2.37,8.9-6.23,11-10.95.08-.19.15-.38.22-.57,2.15-.22,4.26-.85,6.24-2.01,5.06-2.96,8.1-8.67,7.29-14.52Z"/>
          <path class="cls-1" d="M274.57,727.09c.69-.83,1.31-1.72,1.83-2.65-2.03-2.22-4.68-3.89-7.61-5.1-.2-7.29-4.72-14.91-9.69-20.02-4.74-4.86-11.52-8.03-18.4-7.01-3.22.48-5.87,1.9-8.17,3.82-2.01-.7-4.07-1.21-6.12-1.53-6.8-1.04-15.07-.54-20.53,4.15-2.22,1.91-3.73,4.64-4.26,7.49-7.07.49-13.93,3.21-17.29,9.98-4.67,9.41-.18,18.65,5.7,26.18-1.71,4.97-.69,10.76,2.2,15.17,2.32,3.54,5.72,6.06,9.49,7.89,2.33-.13,4.49-.92,6.41-2.32,7.53.69,15.49-3.09,22.28-5.78,4.72-1.87,8.97-4.82,10.76-9.04,4.35-.5,8.53-1.86,11.62-5.23,1.69-1.85,2.84-4.18,3.3-6.62,7.05-.74,14-3.96,18.5-9.36ZM197.03,755.64c.64.03,1.29.03,1.93,0,.13.05.26.09.38.14-.79.09-1.62.03-2.32-.14ZM216.2,733.1c-.07-.11-.15-.22-.23-.33.4-.18.8-.37,1.19-.57-.33.29-.64.59-.96.9Z"/>
          <path class="cls-2" d="M253.89,701.23c.16-1.45-.11-2.98-.85-4.34-.76-1.4-1.88-2.59-3.21-3.61-2.9-1.03-6.01-1.44-9.13-.98-3.22.48-5.87,1.9-8.17,3.82-2.01-.7-4.07-1.21-6.12-1.53-3.27-.5-6.89-.64-10.37-.13-.16.2-.33.39-.48.6-4.73,1.98-10.46,4.69-13.25,8.79,0,0,0,.02-.01.02-.3.76-.53,1.55-.68,2.35-.13,0-.25.02-.38.03-.04.16-.07.31-.1.46-4.87,2.45-8,7.91-7.09,13.45-4.6,3.21-6.34,10.06-3.32,15.44,4.66,8.27,15.8,9.23,23.95,6.3,3.91-1.4,7.51-3.62,10.49-6.52.24-.25.48-.5.72-.75.76.34,1.99.34,2.68.42,2.09.27,4.14.17,6.21-.26,7.53-1.57,12.69-7.78,13.85-14.99,4.37-1.9,7.49-6.47,7.49-11.41,0-2.68-.84-5.1-2.23-7.17Z"/>
        </g>
        <path class="cls-3" d="M397.22,697.1c-7.93-3.37-16.77-2.93-24.68.28-3.38,1.37-8.53,3.74-11.98,6.95-6.17-.81-12.59,1.37-16.6,6.53-3.68,4.72-4.87,12.46-2.3,18.1-2.64,1.23-4.97,3.05-6.63,5.62-2.84,4.42-2.97,10.12-.39,14.5-1.36,4.53,0,9.54,3.52,13.07,3.58,3.59,8.38,4.68,13.21,4.57,3.73,4.73,10.17,7.22,16.14,5.81,4.21-1,7.6-3.74,9.73-7.28,9.01,2.71,19.89-1.36,26.67-7.65,7.87-7.32,9.75-18.78,4.45-27.27,7.77-11.28,2.3-27.53-11.14-33.23ZM397.74,713.61c-.11-.29-.22-.57-.35-.84.72.97,1.33,2.03,1.75,3.13-.39-.79-.85-1.55-1.4-2.28Z"/>
        <g>
          <path class="cls-5" d="M390.74,690.62c-7.93-3.37-16.77-2.93-24.68.28-3.38,1.37-8.53,3.74-11.98,6.95-6.17-.81-12.59,1.37-16.6,6.53-3.68,4.72-4.87,12.46-2.3,18.1-2.64,1.23-4.97,3.05-6.63,5.62-2.84,4.42-2.97,10.12-.39,14.5-1.36,4.53,0,9.54,3.52,13.07,3.58,3.59,8.38,4.68,13.21,4.57,3.73,4.73,10.17,7.22,16.14,5.81,4.21-1,7.6-3.74,9.73-7.28,9.01,2.71,19.89-1.36,26.67-7.65,7.87-7.32,9.75-18.78,4.45-27.27,7.77-11.28,2.3-27.53-11.14-33.23ZM391.26,707.13c-.11-.29-.22-.57-.35-.84.72.97,1.33,2.03,1.75,3.13-.39-.79-.85-1.55-1.4-2.28Z"/>
          <path class="cls-1" d="M390.74,690.62c-7.93-3.37-16.77-2.93-24.68.28-3.38,1.37-8.53,3.74-11.98,6.95-6.17-.81-12.59,1.37-16.6,6.53-3.68,4.72-4.87,12.46-2.3,18.1-2.64,1.23-4.97,3.05-6.63,5.62-2.84,4.42-2.97,10.12-.39,14.5-1.36,4.53,0,9.54,3.52,13.07.22.22.45.44.68.64,1.5.24,3.05.2,4.57-.2.87-.23,1.63-.54,2.31-.91,7.19,2.2,15.25.2,20.55-5.52,5.7,1.2,11.66.61,16.83-2.61,1.1-.69,2.09-1.51,2.9-2.45,9.13.76,18.15-3.19,23.37-11.65.54-.87,1.04-1.84,1.5-2.84-.47-2.19-1.3-4.32-2.52-6.28,7.77-11.28,2.3-27.53-11.14-33.23ZM353.61,701.44s.01,0,.02,0c0,0,0,.01,0,.02,0,0-.02,0-.02,0ZM365.19,699.74s-.05-.08-.07-.13c.37.08.25.32.07.13ZM365.78,737.54c-1.33.15-2.82.06-4.17-.29.78,0,1.57,0,2.35-.04.89.03,1.78-.02,2.67-.11,0,.09,0,.18,0,.27-.28.07-.56.14-.86.17ZM391.26,707.13c-.11-.29-.22-.57-.35-.84.72.97,1.33,2.03,1.75,3.13-.39-.79-.85-1.55-1.4-2.28Z"/>
          <path class="cls-2" d="M399.08,698.5c.01-.85-.11-1.63-.32-2.35-2.2-2.28-4.89-4.19-8.03-5.52-3.31-1.4-6.77-2.14-10.26-2.29-4.85.27-9.61,1.54-13.91,3.75-1.69.11-3.37.39-5,.85-2.6,1.3-5.37,2.96-7.49,4.93-.44-.06-.88-.1-1.32-.12-1,.96-1.83,2.1-2.34,3.35-5.02,1.49-9.49,4.93-12.79,8.97-2.2,2.69-3.46,6.36-3.19,9.66-.05.04-.1.08-.15.12.22.92.51,1.82.9,2.66-1.62.75-3.13,1.74-4.43,2.98-.23,1.7.13,3.56,1.32,5.52,4.18,6.88,14.65,6.73,21.14,3.85,1.48-.66,2.78-1.69,4.24-2.34,1.83-.82,3.71-.32,5.68-.31,4.39.02,8.76-.95,12.74-2.8,4.24-1.96,7.73-5.16,9.54-9.1,6.41.38,12.77-3.06,15.06-9.78,1.47-4.32.76-8.63-1.4-12.01ZM391.26,707.13c-.11-.29-.22-.57-.35-.84.72.97,1.33,2.03,1.75,3.13-.39-.79-.85-1.55-1.4-2.28Z"/>
        </g>
        <path class="cls-3" d="M564.23,710.67c-2.54-2.59-5.62-4.12-8.87-4.56-2.95-10.58-15.37-17.01-26.21-15.81-7.17.8-14.55,3.63-20.52,7.71-4.24-1.29-9.16-.72-12.96,1.36-6.01,3.3-9.64,10.08-9.76,16.86-.09,5.24,2.87,9.97,7.24,11.06-2.54,1.5-4.71,3.65-6.12,6.23-1.5,2.74-1.91,5.84-1.43,8.89.65,4.08-1.56,7.51-1.04,11.67.9,7.26,7.01,13.75,13.16,17.26,3.28,1.87,7.27,2.76,10.78.99.92-.46,1.76-1.06,2.49-1.76,11.07,5.69,26.46,8.58,34.22-2.97,2.5-3.72,4.6-12.09,4.15-19.13,8.63-2.39,15.91-9.99,18.45-18.57,1.89-6.39,1.28-14.25-3.59-19.23Z"/>
        <g>
          <path class="cls-5" d="M557.75,704.73c-2.54-2.59-5.62-4.12-8.87-4.56-2.95-10.58-15.37-17.01-26.21-15.81-7.17.8-14.55,3.63-20.52,7.71-4.24-1.29-9.16-.72-12.96,1.36-6.01,3.3-9.64,10.08-9.76,16.86-.09,5.24,2.87,9.97,7.24,11.06-2.54,1.5-4.71,3.65-6.12,6.23-1.5,2.74-1.91,5.84-1.43,8.89.65,4.08-1.56,7.51-1.04,11.67.9,7.26,7.01,13.75,13.16,17.26,3.28,1.87,7.27,2.76,10.78.99.92-.46,1.76-1.06,2.49-1.76,11.07,5.69,26.46,8.58,34.22-2.97,2.5-3.72,4.6-12.09,4.15-19.13,8.63-2.39,15.91-9.99,18.45-18.57,1.89-6.39,1.28-14.25-3.59-19.23Z"/>
          <path class="cls-1" d="M557.75,704.73c-2.54-2.59-5.62-4.12-8.87-4.56-2.95-10.58-15.37-17.01-26.21-15.81-7.17.8-14.55,3.63-20.52,7.71-4.24-1.29-9.16-.72-12.96,1.36-6.01,3.3-9.64,10.08-9.76,16.86-.09,5.24,2.87,9.97,7.24,11.06-2.54,1.5-4.71,3.65-6.12,6.23-1.5,2.74-1.91,5.84-1.43,8.89.65,4.08-1.56,7.51-1.04,11.67.41,3.31,1.91,6.45,3.99,9.22,1.78-.29,3.49-1.01,4.88-2.09,3.7.76,7.6.65,11.31-.27,3.5-.86,6.71-2.58,9.51-4.82.68-.55,2.47-1.91,2.36-1.9.05,0,3.4,1.35,4.34,1.53,10.61,2.04,19.62-3.02,24.21-11.1,3.06,1.1,6.38,1.52,9.55,1.22.28-.03.55-.06.82-.1,5.82-3.55,10.4-9.43,12.3-15.88,1.89-6.39,1.28-14.25-3.59-19.23Z"/>
          <path class="cls-2" d="M522.67,684.36c-7.17.8-14.55,3.63-20.52,7.71-.78-.24-1.59-.39-2.4-.5-.73,1.2-1.2,2.46-1.43,3.73-4.33,1.22-8.32,3.82-11.36,7.47-3.69,4.43-5.3,10.9-3.65,16.03-.11.17-.21.36-.31.54,1.05.97,2.29,1.68,3.67,2.03-1.66.98-3.16,2.25-4.4,3.72.89,4.3,4.6,8.17,7.99,10.56,4.23,2.98,9.81,3.81,14.56,2.43,6.36,2.05,15.09-1.19,19.86-5.52,3.13-2.85,5.89-7.27,7.04-11.81,3.4-1.97,5.97-5.21,6.68-9.54.73-4.51-.52-8.63-3-11.79.67-2.56.45-5.37-1.06-8.24-1.06-2.02-2.72-3.65-4.69-4.87.19-.67-.04-1.44-.85-1.83-2.05-.28-4.11-.32-6.12-.1Z"/>
        </g>
        <path class="cls-3" d="M665.48,727.54c-.03-.14-.05-.27-.09-.41-1.68-5.82-8.8-10.58-13.9-13.14-4.52-2.26-9.55-3.7-14.61-3.56-.13-.06-.26-.12-.39-.18-11.53-5.16-24.3,1.27-28.51,12.77-3.76,10.27.79,25.64,11.54,28.48.99,3.56,3.73,6.23,7.13,7.94.7,3.71,3.87,6.99,7.03,8.88,4.95,2.95,11.28,3.59,16.67,1.56,4.58-1.73,8.7-5.18,10.87-9.62.93,0,1.86-.05,2.79-.14,6.37-.64,12.41-3.79,15.29-9.73,5.42-11.18-3.71-19.75-13.83-22.85Z"/>
        <g>
          <path class="cls-5" d="M662.63,720.63c-.03-.14-.05-.27-.09-.41-1.68-5.82-8.8-10.58-13.9-13.14-4.52-2.26-9.55-3.7-14.61-3.56-.13-.06-.26-.12-.39-.18-11.53-5.16-24.3,1.27-28.51,12.77-3.76,10.27.79,25.64,11.54,28.48.99,3.56,3.73,6.23,7.13,7.94.7,3.71,3.87,6.99,7.03,8.88,4.95,2.95,11.28,3.59,16.67,1.56,4.58-1.73,8.7-5.18,10.87-9.62.93,0,1.86-.05,2.79-.14,6.37-.64,12.41-3.79,15.29-9.73,5.42-11.18-3.71-19.75-13.83-22.85Z"/>
          <path class="cls-1" d="M662.63,720.63c-.03-.14-.05-.27-.09-.41-1.68-5.82-8.8-10.58-13.9-13.14-4.52-2.26-9.55-3.7-14.61-3.56-.13-.06-.26-.12-.39-.18-11.53-5.16-24.3,1.27-28.51,12.77-3.76,10.27.79,25.64,11.54,28.48.38,1.39,1.04,2.63,1.89,3.74,1.96-1.52,3.73-3.33,5.33-5.27,6.07,3.33,13.94,3.2,20.1-.03,3.07,4.02,7.03,7.34,12.04,8.55,3.38.82,7.04.81,10.35-.31,1.54-.52,2.98-1.27,4.29-2.23.76-.55,1.46-1.38,2.19-2.12.13.07.25.14.38.21.18.09.36.17.53.26,1.06-1.14,1.97-2.44,2.68-3.91,5.42-11.18-3.71-19.75-13.83-22.85ZM671.45,746.36c-.33-.43-.24-.45.27-.07-.09.02-.18.05-.27.07Z"/>
          <path class="cls-2" d="M665.38,721.62c-.9-.37-1.82-.71-2.75-.99-.03-.14-.05-.27-.09-.41-1.68-5.82-8.8-10.58-13.9-13.14-4.52-2.26-9.55-3.7-14.61-3.56-.13-.06-.26-.12-.39-.18-11.53-5.16-24.3,1.27-28.51,12.77-.11.31-.22.62-.32.94,0,3.74,1.03,7.58,2.85,10.69,3.44,5.91,9.33,8.91,15.35,8.86,2.39.99,5.06,1.44,7.31,1.39,4.94-.12,9.48-2.62,12.42-6.44,4.8.03,9.82-1.17,13.76-3.81,3.55-.8,6.78-3.04,8.88-6.13Z"/>
        </g>
        <path class="cls-3" d="M831.07,737.44c-.94-6.79-5.66-11.04-11.52-13.47-.2-7.29-4.72-14.91-9.69-20.02-4.74-4.86-11.52-8.03-18.4-7.01-3.22.48-5.87,1.9-8.17,3.82-2.01-.7-4.07-1.21-6.12-1.53-6.8-1.04-15.07-.54-20.53,4.15-2.22,1.91-3.73,4.64-4.26,7.49-7.07.49-13.93,3.21-17.29,9.98-4.67,9.41-.18,18.65,5.7,26.18-1.71,4.97-.69,10.76,2.2,15.17,3.76,5.74,10.37,8.81,16.78,10.57,6.11,1.67,12.94,2.37,18.86-.35,2.23-1.02,4.25-2.6,5.73-4.51,7.24,2.01,15.25,1.09,21.97-2.43,4.53-2.37,8.9-6.23,11-10.95.08-.19.15-.38.22-.57,2.15-.22,4.26-.85,6.24-2.01,5.06-2.96,8.1-8.67,7.29-14.52Z"/>
        <g>
          <path class="cls-5" d="M821.84,732.8c-.93-6.79-5.66-11.04-11.52-13.47-.2-7.29-4.72-14.91-9.69-20.02-4.74-4.86-11.52-8.03-18.4-7.01-3.22.48-5.87,1.9-8.17,3.82-2.01-.7-4.07-1.21-6.12-1.53-6.8-1.04-15.07-.54-20.53,4.15-2.22,1.91-3.73,4.64-4.26,7.49-7.07.49-13.93,3.21-17.29,9.98-4.67,9.41-.18,18.65,5.7,26.18-1.71,4.97-.69,10.76,2.2,15.17,3.76,5.74,10.37,8.81,16.78,10.57,6.11,1.67,12.94,2.37,18.86-.35,2.23-1.02,4.25-2.6,5.73-4.51,7.24,2.01,15.25,1.09,21.97-2.43,4.53-2.37,8.9-6.23,11-10.95.08-.19.15-.38.22-.57,2.15-.22,4.26-.85,6.24-2.01,5.06-2.96,8.1-8.67,7.29-14.52Z"/>
          <path class="cls-1" d="M816.09,727.09c.69-.83,1.31-1.72,1.83-2.65-2.03-2.22-4.68-3.89-7.61-5.1-.2-7.29-4.72-14.91-9.69-20.02-4.74-4.86-11.52-8.03-18.4-7.01-3.22.48-5.87,1.9-8.17,3.82-2.01-.7-4.07-1.21-6.12-1.53-6.8-1.04-15.07-.54-20.53,4.15-2.22,1.91-3.73,4.64-4.26,7.49-7.07.49-13.93,3.21-17.29,9.98-4.67,9.41-.18,18.65,5.7,26.18-1.71,4.97-.69,10.76,2.2,15.17,2.32,3.54,5.72,6.06,9.49,7.89,2.33-.13,4.49-.92,6.41-2.32,7.53.69,15.49-3.09,22.28-5.78,4.72-1.87,8.97-4.82,10.76-9.04,4.35-.5,8.53-1.86,11.62-5.23,1.69-1.85,2.84-4.18,3.3-6.62,7.05-.74,14-3.96,18.5-9.36ZM738.55,755.64c.64.03,1.29.03,1.93,0,.13.05.26.09.38.14-.79.09-1.62.03-2.32-.14ZM757.73,733.1c-.07-.11-.15-.22-.23-.33.4-.18.8-.37,1.19-.57-.33.29-.64.59-.96.9Z"/>
          <path class="cls-2" d="M795.42,701.23c.16-1.45-.11-2.98-.85-4.34-.76-1.4-1.88-2.59-3.21-3.61-2.9-1.03-6.01-1.44-9.13-.98-3.22.48-5.87,1.9-8.17,3.82-2.01-.7-4.07-1.21-6.12-1.53-3.27-.5-6.89-.64-10.37-.13-.16.2-.33.39-.48.6-4.73,1.98-10.46,4.69-13.25,8.79,0,0,0,.02-.01.02-.3.76-.53,1.55-.68,2.35-.13,0-.25.02-.38.03-.04.16-.07.31-.1.46-4.87,2.45-8,7.91-7.09,13.45-4.6,3.21-6.34,10.06-3.32,15.44,4.66,8.27,15.8,9.23,23.95,6.3,3.91-1.4,7.51-3.62,10.49-6.52.24-.25.48-.5.72-.75.76.34,1.99.34,2.68.42,2.09.27,4.14.17,6.21-.26,7.53-1.57,12.69-7.78,13.85-14.99,4.37-1.9,7.49-6.47,7.49-11.41,0-2.68-.84-5.1-2.23-7.17Z"/>
        </g>
        <path class="cls-3" d="M938.75,697.1c-7.93-3.37-16.77-2.93-24.68.28-3.38,1.37-8.53,3.74-11.98,6.95-6.17-.81-12.59,1.37-16.6,6.53-3.68,4.72-4.87,12.46-2.3,18.1-2.64,1.23-4.97,3.05-6.63,5.62-2.84,4.42-2.97,10.12-.39,14.5-1.36,4.53,0,9.54,3.52,13.07,3.58,3.59,8.38,4.68,13.21,4.57,3.73,4.73,10.17,7.22,16.14,5.81,4.21-1,7.6-3.74,9.73-7.28,9.01,2.71,19.89-1.36,26.67-7.65,7.87-7.32,9.75-18.78,4.45-27.27,7.77-11.28,2.3-27.53-11.14-33.23ZM939.27,713.61c-.11-.29-.22-.57-.35-.84.72.97,1.33,2.03,1.75,3.13-.39-.79-.85-1.55-1.4-2.28Z"/>
        <g>
          <path class="cls-5" d="M932.26,690.62c-7.93-3.37-16.77-2.93-24.68.28-3.38,1.37-8.53,3.74-11.98,6.95-6.17-.81-12.59,1.37-16.6,6.53-3.68,4.72-4.87,12.46-2.3,18.1-2.64,1.23-4.97,3.05-6.63,5.62-2.84,4.42-2.97,10.12-.39,14.5-1.36,4.53,0,9.54,3.52,13.07,3.58,3.59,8.38,4.68,13.21,4.57,3.73,4.73,10.17,7.22,16.14,5.81,4.21-1,7.6-3.74,9.73-7.28,9.01,2.71,19.89-1.36,26.67-7.65,7.87-7.32,9.75-18.78,4.45-27.27,7.77-11.28,2.3-27.53-11.14-33.23ZM932.79,707.13c-.11-.29-.22-.57-.35-.84.72.97,1.33,2.03,1.75,3.13-.39-.79-.85-1.55-1.4-2.28Z"/>
          <path class="cls-1" d="M932.26,690.62c-7.93-3.37-16.77-2.93-24.68.28-3.38,1.37-8.53,3.74-11.98,6.95-6.17-.81-12.59,1.37-16.6,6.53-3.68,4.72-4.87,12.46-2.3,18.1-2.64,1.23-4.97,3.05-6.63,5.62-2.84,4.42-2.97,10.12-.39,14.5-1.36,4.53,0,9.54,3.52,13.07.22.22.45.44.68.64,1.5.24,3.05.2,4.57-.2.87-.23,1.63-.54,2.31-.91,7.19,2.2,15.25.2,20.55-5.52,5.7,1.2,11.66.61,16.83-2.61,1.1-.69,2.09-1.51,2.9-2.45,9.13.76,18.15-3.19,23.37-11.65.54-.87,1.04-1.84,1.5-2.84-.47-2.19-1.3-4.32-2.52-6.28,7.77-11.28,2.3-27.53-11.14-33.23ZM895.14,701.44s.01,0,.02,0c0,0,0,.01,0,.02,0,0-.02,0-.02,0ZM906.72,699.74s-.05-.08-.07-.13c.37.08.25.32.07.13ZM907.31,737.54c-1.33.15-2.82.06-4.17-.29.78,0,1.57,0,2.35-.04.89.03,1.78-.02,2.67-.11,0,.09,0,.18,0,.27-.28.07-.56.14-.86.17ZM932.79,707.13c-.11-.29-.22-.57-.35-.84.72.97,1.33,2.03,1.75,3.13-.39-.79-.85-1.55-1.4-2.28Z"/>
          <path class="cls-2" d="M940.61,698.5c.01-.85-.11-1.63-.32-2.35-2.2-2.28-4.89-4.19-8.03-5.52-3.31-1.4-6.77-2.14-10.26-2.29-4.85.27-9.61,1.54-13.91,3.75-1.69.11-3.37.39-5,.85-2.6,1.3-5.37,2.96-7.49,4.93-.44-.06-.88-.1-1.32-.12-1,.96-1.83,2.1-2.34,3.35-5.02,1.49-9.49,4.93-12.79,8.97-2.2,2.69-3.46,6.36-3.19,9.66-.05.04-.1.08-.15.12.22.92.51,1.82.9,2.66-1.62.75-3.13,1.74-4.43,2.98-.23,1.7.13,3.56,1.32,5.52,4.18,6.88,14.65,6.73,21.14,3.85,1.48-.66,2.78-1.69,4.24-2.34,1.83-.82,3.71-.32,5.68-.31,4.39.02,8.76-.95,12.74-2.8,4.24-1.96,7.73-5.16,9.54-9.1,6.41.38,12.77-3.06,15.06-9.78,1.47-4.32.76-8.63-1.4-12.01ZM932.79,707.13c-.11-.29-.22-.57-.35-.84.72.97,1.33,2.03,1.75,3.13-.39-.79-.85-1.55-1.4-2.28Z"/>
        </g>
        <path class="cls-3" d="M1105.76,710.67c-2.54-2.59-5.62-4.12-8.87-4.56-2.95-10.58-15.37-17.01-26.21-15.81-7.17.8-14.55,3.63-20.52,7.71-4.24-1.29-9.16-.72-12.96,1.36-6.01,3.3-9.64,10.08-9.76,16.86-.09,5.24,2.87,9.97,7.24,11.06-2.54,1.5-4.71,3.65-6.12,6.23-1.5,2.74-1.91,5.84-1.43,8.89.65,4.08-1.56,7.51-1.04,11.67.9,7.26,7.01,13.75,13.16,17.26,3.28,1.87,7.27,2.76,10.78.99.92-.46,1.76-1.06,2.49-1.76,11.07,5.69,26.46,8.58,34.22-2.97,2.5-3.72,4.6-12.09,4.15-19.13,8.63-2.39,15.91-9.99,18.45-18.57,1.89-6.39,1.28-14.25-3.59-19.23Z"/>
        <g>
          <path class="cls-5" d="M1099.28,704.73c-2.54-2.59-5.62-4.12-8.87-4.56-2.95-10.58-15.37-17.01-26.21-15.81-7.17.8-14.55,3.63-20.52,7.71-4.24-1.29-9.16-.72-12.96,1.36-6.01,3.3-9.64,10.08-9.76,16.86-.09,5.24,2.87,9.97,7.24,11.06-2.54,1.5-4.71,3.65-6.12,6.23-1.5,2.74-1.91,5.84-1.43,8.89.65,4.08-1.56,7.51-1.04,11.67.9,7.26,7.01,13.75,13.16,17.26,3.28,1.87,7.27,2.76,10.78.99.92-.46,1.76-1.06,2.49-1.76,11.07,5.69,26.46,8.58,34.22-2.97,2.5-3.72,4.6-12.09,4.15-19.13,8.63-2.39,15.91-9.99,18.45-18.57,1.89-6.39,1.28-14.25-3.59-19.23Z"/>
          <path class="cls-1" d="M1099.28,704.73c-2.54-2.59-5.62-4.12-8.87-4.56-2.95-10.58-15.37-17.01-26.21-15.81-7.17.8-14.55,3.63-20.52,7.71-4.24-1.29-9.16-.72-12.96,1.36-6.01,3.3-9.64,10.08-9.76,16.86-.09,5.24,2.87,9.97,7.24,11.06-2.54,1.5-4.71,3.65-6.12,6.23-1.5,2.74-1.91,5.84-1.43,8.89.65,4.08-1.56,7.51-1.04,11.67.41,3.31,1.91,6.45,3.99,9.22,1.78-.29,3.49-1.01,4.88-2.09,3.7.76,7.6.65,11.31-.27,3.5-.86,6.71-2.58,9.51-4.82.68-.55,2.47-1.91,2.36-1.9.05,0,3.4,1.35,4.34,1.53,10.61,2.04,19.62-3.02,24.21-11.1,3.06,1.1,6.38,1.52,9.55,1.22.28-.03.55-.06.82-.1,5.82-3.55,10.4-9.43,12.3-15.88,1.89-6.39,1.28-14.25-3.59-19.23Z"/>
          <path class="cls-2" d="M1064.2,684.36c-7.17.8-14.55,3.63-20.52,7.71-.78-.24-1.59-.39-2.4-.5-.73,1.2-1.2,2.46-1.43,3.73-4.33,1.22-8.32,3.82-11.36,7.47-3.69,4.43-5.3,10.9-3.65,16.03-.11.17-.21.36-.31.54,1.05.97,2.29,1.68,3.67,2.03-1.66.98-3.16,2.25-4.4,3.72.89,4.3,4.6,8.17,7.99,10.56,4.23,2.98,9.81,3.81,14.56,2.43,6.36,2.05,15.09-1.19,19.86-5.52,3.13-2.85,5.89-7.27,7.04-11.81,3.4-1.97,5.97-5.21,6.68-9.54.73-4.51-.52-8.63-3-11.79.67-2.56.45-5.37-1.06-8.24-1.06-2.02-2.72-3.65-4.69-4.87.19-.67-.04-1.44-.85-1.83-2.05-.28-4.11-.32-6.12-.1Z"/>
        </g>
        <path class="cls-3" d="M1207.01,727.54c-.03-.14-.05-.27-.09-.41-1.68-5.82-8.8-10.58-13.9-13.14-4.52-2.26-9.55-3.7-14.61-3.56-.13-.06-.26-.12-.39-.18-11.53-5.16-24.3,1.27-28.51,12.77-3.76,10.27.79,25.64,11.54,28.48.99,3.56,3.73,6.23,7.13,7.94.7,3.71,3.87,6.99,7.03,8.88,4.95,2.95,11.28,3.59,16.67,1.56,4.58-1.73,8.7-5.18,10.87-9.62.93,0,1.86-.05,2.79-.14,6.37-.64,12.41-3.79,15.29-9.73,5.42-11.18-3.71-19.75-13.83-22.85Z"/>
        <g>
          <path class="cls-5" d="M1204.15,720.63c-.03-.14-.05-.27-.09-.41-1.68-5.82-8.8-10.58-13.9-13.14-4.52-2.26-9.55-3.7-14.61-3.56-.13-.06-.26-.12-.39-.18-11.53-5.16-24.3,1.27-28.51,12.77-3.76,10.27.79,25.64,11.54,28.48.99,3.56,3.73,6.23,7.13,7.94.7,3.71,3.87,6.99,7.03,8.88,4.95,2.95,11.28,3.59,16.67,1.56,4.58-1.73,8.7-5.18,10.87-9.62.93,0,1.86-.05,2.79-.14,6.37-.64,12.41-3.79,15.29-9.73,5.42-11.18-3.71-19.75-13.83-22.85Z"/>
          <path class="cls-1" d="M1204.15,720.63c-.03-.14-.05-.27-.09-.41-1.68-5.82-8.8-10.58-13.9-13.14-4.52-2.26-9.55-3.7-14.61-3.56-.13-.06-.26-.12-.39-.18-11.53-5.16-24.3,1.27-28.51,12.77-3.76,10.27.79,25.64,11.54,28.48.38,1.39,1.04,2.63,1.89,3.74,1.96-1.52,3.73-3.33,5.33-5.27,6.07,3.33,13.94,3.2,20.1-.03,3.07,4.02,7.03,7.34,12.04,8.55,3.38.82,7.04.81,10.35-.31,1.54-.52,2.98-1.27,4.29-2.23.76-.55,1.46-1.38,2.19-2.12.13.07.25.14.38.21.18.09.36.17.53.26,1.06-1.14,1.97-2.44,2.68-3.91,5.42-11.18-3.71-19.75-13.83-22.85ZM1212.97,746.36c-.33-.43-.24-.45.27-.07-.09.02-.18.05-.27.07Z"/>
          <path class="cls-2" d="M1206.91,721.62c-.9-.37-1.82-.71-2.75-.99-.03-.14-.05-.27-.09-.41-1.68-5.82-8.8-10.58-13.9-13.14-4.52-2.26-9.55-3.7-14.61-3.56-.13-.06-.26-.12-.39-.18-11.53-5.16-24.3,1.27-28.51,12.77-.11.31-.22.62-.32.94,0,3.74,1.03,7.58,2.85,10.69,3.44,5.91,9.33,8.91,15.35,8.86,2.39.99,5.06,1.44,7.31,1.39,4.94-.12,9.48-2.62,12.42-6.44,4.8.03,9.82-1.17,13.76-3.81,3.55-.8,6.78-3.04,8.88-6.13Z"/>
        </g>
        <path class="cls-3" d="M1372.59,737.44c-.94-6.79-5.66-11.04-11.52-13.47-.2-7.29-4.72-14.91-9.69-20.02-4.74-4.86-11.52-8.03-18.4-7.01-3.22.48-5.87,1.9-8.17,3.82-2.01-.7-4.07-1.21-6.12-1.53-6.8-1.04-15.07-.54-20.53,4.15-2.22,1.91-3.73,4.64-4.26,7.49-7.07.49-13.93,3.21-17.29,9.98-4.67,9.41-.18,18.65,5.7,26.18-1.71,4.97-.69,10.76,2.2,15.17,3.76,5.74,10.37,8.81,16.78,10.57,6.11,1.67,12.94,2.37,18.86-.35,2.23-1.02,4.25-2.6,5.73-4.51,7.24,2.01,15.25,1.09,21.97-2.43,4.53-2.37,8.9-6.23,11-10.95.08-.19.15-.38.22-.57,2.15-.22,4.26-.85,6.24-2.01,5.06-2.96,8.1-8.67,7.29-14.52Z"/>
        <g>
          <path class="cls-5" d="M1363.36,732.8c-.93-6.79-5.66-11.04-11.52-13.47-.2-7.29-4.72-14.91-9.69-20.02-4.74-4.86-11.52-8.03-18.4-7.01-3.22.48-5.87,1.9-8.17,3.82-2.01-.7-4.07-1.21-6.12-1.53-6.8-1.04-15.07-.54-20.53,4.15-2.22,1.91-3.73,4.64-4.26,7.49-7.07.49-13.93,3.21-17.29,9.98-4.67,9.41-.18,18.65,5.7,26.18-1.71,4.97-.69,10.76,2.2,15.17,3.76,5.74,10.37,8.81,16.78,10.57,6.11,1.67,12.94,2.37,18.86-.35,2.23-1.02,4.25-2.6,5.73-4.51,7.24,2.01,15.25,1.09,21.97-2.43,4.53-2.37,8.9-6.23,11-10.95.08-.19.15-.38.22-.57,2.15-.22,4.26-.85,6.24-2.01,5.06-2.96,8.1-8.67,7.29-14.52Z"/>
          <path class="cls-1" d="M1357.62,727.09c.69-.83,1.31-1.72,1.83-2.65-2.03-2.22-4.68-3.89-7.61-5.1-.2-7.29-4.72-14.91-9.69-20.02-4.74-4.86-11.52-8.03-18.4-7.01-3.22.48-5.87,1.9-8.17,3.82-2.01-.7-4.07-1.21-6.12-1.53-6.8-1.04-15.07-.54-20.53,4.15-2.22,1.91-3.73,4.64-4.26,7.49-7.07.49-13.93,3.21-17.29,9.98-4.67,9.41-.18,18.65,5.7,26.18-1.71,4.97-.69,10.76,2.2,15.17,2.32,3.54,5.72,6.06,9.49,7.89,2.33-.13,4.49-.92,6.41-2.32,7.53.69,15.49-3.09,22.28-5.78,4.72-1.87,8.97-4.82,10.76-9.04,4.35-.5,8.53-1.86,11.62-5.23,1.69-1.85,2.84-4.18,3.3-6.62,7.05-.74,14-3.96,18.5-9.36ZM1280.08,755.64c.64.03,1.29.03,1.93,0,.13.05.26.09.38.14-.79.09-1.62.03-2.32-.14ZM1299.26,733.1c-.07-.11-.15-.22-.23-.33.4-.18.8-.37,1.19-.57-.33.29-.64.59-.96.9Z"/>
          <path class="cls-2" d="M1336.94,701.23c.16-1.45-.11-2.98-.85-4.34-.76-1.4-1.88-2.59-3.21-3.61-2.9-1.03-6.01-1.44-9.13-.98-3.22.48-5.87,1.9-8.17,3.82-2.01-.7-4.07-1.21-6.12-1.53-3.27-.5-6.89-.64-10.37-.13-.16.2-.33.39-.48.6-4.73,1.98-10.46,4.69-13.25,8.79,0,0,0,.02-.01.02-.3.76-.53,1.55-.68,2.35-.13,0-.25.02-.38.03-.04.16-.07.31-.1.46-4.87,2.45-8,7.91-7.09,13.45-4.6,3.21-6.34,10.06-3.32,15.44,4.66,8.27,15.8,9.23,23.95,6.3,3.91-1.4,7.51-3.62,10.49-6.52.24-.25.48-.5.72-.75.76.34,1.99.34,2.68.42,2.09.27,4.14.17,6.21-.26,7.53-1.57,12.69-7.78,13.85-14.99,4.37-1.9,7.49-6.47,7.49-11.41,0-2.68-.84-5.1-2.23-7.17Z"/>
        </g>
        <path class="cls-3" d="M1480.27,697.1c-7.93-3.37-16.77-2.93-24.68.28-3.38,1.37-8.53,3.74-11.98,6.95-6.17-.81-12.59,1.37-16.6,6.53-3.68,4.72-4.87,12.46-2.3,18.1-2.64,1.23-4.97,3.05-6.63,5.62-2.84,4.42-2.97,10.12-.39,14.5-1.36,4.53,0,9.54,3.52,13.07,3.58,3.59,8.38,4.68,13.21,4.57,3.73,4.73,10.17,7.22,16.14,5.81,4.21-1,7.6-3.74,9.73-7.28,9.01,2.71,19.89-1.36,26.67-7.65,7.87-7.32,9.75-18.78,4.45-27.27,7.77-11.28,2.3-27.53-11.14-33.23ZM1480.79,713.61c-.11-.29-.22-.57-.35-.84.72.97,1.33,2.03,1.75,3.13-.39-.79-.85-1.55-1.4-2.28Z"/>
        <g>
          <path class="cls-5" d="M1473.79,690.62c-7.93-3.37-16.77-2.93-24.68.28-3.38,1.37-8.53,3.74-11.98,6.95-6.17-.81-12.59,1.37-16.6,6.53-3.68,4.72-4.87,12.46-2.3,18.1-2.64,1.23-4.97,3.05-6.63,5.62-2.84,4.42-2.97,10.12-.39,14.5-1.36,4.53,0,9.54,3.52,13.07,3.58,3.59,8.38,4.68,13.21,4.57,3.73,4.73,10.17,7.22,16.14,5.81,4.21-1,7.6-3.74,9.73-7.28,9.01,2.71,19.89-1.36,26.67-7.65,7.87-7.32,9.75-18.78,4.45-27.27,7.77-11.28,2.3-27.53-11.14-33.23ZM1474.31,707.13c-.11-.29-.22-.57-.35-.84.72.97,1.33,2.03,1.75,3.13-.39-.79-.85-1.55-1.4-2.28Z"/>
          <path class="cls-1" d="M1473.79,690.62c-7.93-3.37-16.77-2.93-24.68.28-3.38,1.37-8.53,3.74-11.98,6.95-6.17-.81-12.59,1.37-16.6,6.53-3.68,4.72-4.87,12.46-2.3,18.1-2.64,1.23-4.97,3.05-6.63,5.62-2.84,4.42-2.97,10.12-.39,14.5-1.36,4.53,0,9.54,3.52,13.07.22.22.45.44.68.64,1.5.24,3.05.2,4.57-.2.87-.23,1.63-.54,2.31-.91,7.19,2.2,15.25.2,20.55-5.52,5.7,1.2,11.66.61,16.83-2.61,1.1-.69,2.09-1.51,2.9-2.45,9.13.76,18.15-3.19,23.37-11.65.54-.87,1.04-1.84,1.5-2.84-.47-2.19-1.3-4.32-2.52-6.28,7.77-11.28,2.3-27.53-11.14-33.23ZM1436.66,701.44s.01,0,.02,0c0,0,0,.01,0,.02,0,0-.02,0-.02,0ZM1448.25,699.74s-.05-.08-.07-.13c.37.08.25.32.07.13ZM1448.84,737.54c-1.33.15-2.82.06-4.17-.29.78,0,1.57,0,2.35-.04.89.03,1.78-.02,2.67-.11,0,.09,0,.18,0,.27-.28.07-.56.14-.86.17ZM1474.31,707.13c-.11-.29-.22-.57-.35-.84.72.97,1.33,2.03,1.75,3.13-.39-.79-.85-1.55-1.4-2.28Z"/>
          <path class="cls-2" d="M1482.13,698.5c.01-.85-.11-1.63-.32-2.35-2.2-2.28-4.89-4.19-8.03-5.52-3.31-1.4-6.77-2.14-10.26-2.29-4.85.27-9.61,1.54-13.91,3.75-1.69.11-3.37.39-5,.85-2.6,1.3-5.37,2.96-7.49,4.93-.44-.06-.88-.1-1.32-.12-1,.96-1.83,2.1-2.34,3.35-5.02,1.49-9.49,4.93-12.79,8.97-2.2,2.69-3.46,6.36-3.19,9.66-.05.04-.1.08-.15.12.22.92.51,1.82.9,2.66-1.62.75-3.13,1.74-4.43,2.98-.23,1.7.13,3.56,1.32,5.52,4.18,6.88,14.65,6.73,21.14,3.85,1.48-.66,2.78-1.69,4.24-2.34,1.83-.82,3.71-.32,5.68-.31,4.39.02,8.76-.95,12.74-2.8,4.24-1.96,7.73-5.16,9.54-9.1,6.41.38,12.77-3.06,15.06-9.78,1.47-4.32.76-8.63-1.4-12.01ZM1474.31,707.13c-.11-.29-.22-.57-.35-.84.72.97,1.33,2.03,1.75,3.13-.39-.79-.85-1.55-1.4-2.28Z"/>
        </g>
        <path class="cls-3" d="M1647.28,710.67c-2.54-2.59-5.62-4.12-8.87-4.56-2.95-10.58-15.37-17.01-26.21-15.81-7.17.8-14.55,3.63-20.52,7.71-4.24-1.29-9.16-.72-12.96,1.36-6.01,3.3-9.64,10.08-9.76,16.86-.09,5.24,2.87,9.97,7.24,11.06-2.54,1.5-4.71,3.65-6.12,6.23-1.5,2.74-1.91,5.84-1.43,8.89.65,4.08-1.56,7.51-1.04,11.67.9,7.26,7.01,13.75,13.16,17.26,3.28,1.87,7.27,2.76,10.78.99.92-.46,1.76-1.06,2.49-1.76,11.07,5.69,26.46,8.58,34.22-2.97,2.5-3.72,4.6-12.09,4.15-19.13,8.63-2.39,15.91-9.99,18.45-18.57,1.89-6.39,1.28-14.25-3.59-19.23Z"/>
        <g>
          <path class="cls-5" d="M1640.8,704.73c-2.54-2.59-5.62-4.12-8.87-4.56-2.95-10.58-15.37-17.01-26.21-15.81-7.17.8-14.55,3.63-20.52,7.71-4.24-1.29-9.16-.72-12.96,1.36-6.01,3.3-9.64,10.08-9.76,16.86-.09,5.24,2.87,9.97,7.24,11.06-2.54,1.5-4.71,3.65-6.12,6.23-1.5,2.74-1.91,5.84-1.43,8.89.65,4.08-1.56,7.51-1.04,11.67.9,7.26,7.01,13.75,13.16,17.26,3.28,1.87,7.27,2.76,10.78.99.92-.46,1.76-1.06,2.49-1.76,11.07,5.69,26.46,8.58,34.22-2.97,2.5-3.72,4.6-12.09,4.15-19.13,8.63-2.39,15.91-9.99,18.45-18.57,1.89-6.39,1.28-14.25-3.59-19.23Z"/>
          <path class="cls-1" d="M1640.8,704.73c-2.54-2.59-5.62-4.12-8.87-4.56-2.95-10.58-15.37-17.01-26.21-15.81-7.17.8-14.55,3.63-20.52,7.71-4.24-1.29-9.16-.72-12.96,1.36-6.01,3.3-9.64,10.08-9.76,16.86-.09,5.24,2.87,9.97,7.24,11.06-2.54,1.5-4.71,3.65-6.12,6.23-1.5,2.74-1.91,5.84-1.43,8.89.65,4.08-1.56,7.51-1.04,11.67.41,3.31,1.91,6.45,3.99,9.22,1.78-.29,3.49-1.01,4.88-2.09,3.7.76,7.6.65,11.31-.27,3.5-.86,6.71-2.58,9.51-4.82.68-.55,2.47-1.91,2.36-1.9.05,0,3.4,1.35,4.34,1.53,10.61,2.04,19.62-3.02,24.21-11.1,3.06,1.1,6.38,1.52,9.55,1.22.28-.03.55-.06.82-.1,5.82-3.55,10.4-9.43,12.3-15.88,1.89-6.39,1.28-14.25-3.59-19.23Z"/>
          <path class="cls-2" d="M1605.72,684.36c-7.17.8-14.55,3.63-20.52,7.71-.78-.24-1.59-.39-2.4-.5-.73,1.2-1.2,2.46-1.43,3.73-4.33,1.22-8.32,3.82-11.36,7.47-3.69,4.43-5.3,10.9-3.65,16.03-.11.17-.21.36-.31.54,1.05.97,2.29,1.68,3.67,2.03-1.66.98-3.16,2.25-4.4,3.72.89,4.3,4.6,8.17,7.99,10.56,4.23,2.98,9.81,3.81,14.56,2.43,6.36,2.05,15.09-1.19,19.86-5.52,3.13-2.85,5.89-7.27,7.04-11.81,3.4-1.97,5.97-5.21,6.68-9.54.73-4.51-.52-8.63-3-11.79.67-2.56.45-5.37-1.06-8.24-1.06-2.02-2.72-3.65-4.69-4.87.19-.67-.04-1.44-.85-1.83-2.05-.28-4.11-.32-6.12-.1Z"/>
        </g>
      </g>
      <rect class="cls-4" x="162.2" y="648.78" width="1621.96" height="21.66"/>
      <rect class="cls-4" x="162.2" y="789.32" width="1621.96" height="21.66"/>
      <g>
        <path class="cls-3" d="M1747.15,722.1c-.03-.14-.05-.27-.09-.41-1.68-5.82-8.8-10.58-13.9-13.14-4.52-2.26-9.55-3.7-14.61-3.56-.13-.06-.26-.12-.39-.18-11.53-5.16-24.3,1.27-28.51,12.77-3.76,10.27.79,25.64,11.54,28.48.99,3.56,3.73,6.23,7.13,7.94.7,3.71,3.87,6.99,7.03,8.88,4.95,2.95,11.28,3.59,16.67,1.56,4.58-1.73,8.7-5.18,10.87-9.62.93,0,1.86-.05,2.79-.14,6.37-.64,12.41-3.79,15.29-9.73,5.42-11.18-3.71-19.75-13.83-22.85Z"/>
        <g>
          <path class="cls-5" d="M1744.3,715.19c-.03-.14-.05-.27-.09-.41-1.68-5.82-8.8-10.58-13.9-13.14-4.52-2.26-9.55-3.7-14.61-3.56-.13-.06-.26-.12-.39-.18-11.53-5.16-24.3,1.27-28.51,12.77-3.76,10.27.79,25.64,11.54,28.48.99,3.56,3.73,6.23,7.13,7.94.7,3.71,3.87,6.99,7.03,8.88,4.95,2.95,11.28,3.59,16.67,1.56,4.58-1.73,8.7-5.18,10.87-9.62.93,0,1.86-.05,2.79-.14,6.37-.64,12.41-3.79,15.29-9.73,5.42-11.18-3.71-19.75-13.83-22.85Z"/>
          <path class="cls-1" d="M1744.3,715.19c-.03-.14-.05-.27-.09-.41-1.68-5.82-8.8-10.58-13.9-13.14-4.52-2.26-9.55-3.7-14.61-3.56-.13-.06-.26-.12-.39-.18-11.53-5.16-24.3,1.27-28.51,12.77-3.76,10.27.79,25.64,11.54,28.48.38,1.39,1.04,2.63,1.89,3.74,1.96-1.52,3.73-3.33,5.33-5.27,6.07,3.33,13.94,3.2,20.1-.03,3.07,4.02,7.03,7.34,12.04,8.55,3.38.82,7.04.81,10.35-.31,1.54-.52,2.98-1.27,4.29-2.23.76-.55,1.46-1.38,2.19-2.12.13.07.25.14.38.21.18.09.36.17.53.26,1.06-1.14,1.97-2.44,2.68-3.91,5.42-11.18-3.71-19.75-13.83-22.85ZM1753.12,740.91c-.33-.43-.24-.45.27-.07-.09.02-.18.05-.27.07Z"/>
          <path class="cls-2" d="M1747.05,716.18c-.9-.37-1.82-.71-2.75-.99-.03-.14-.05-.27-.09-.41-1.68-5.82-8.8-10.58-13.9-13.14-4.52-2.26-9.55-3.7-14.61-3.56-.13-.06-.26-.12-.39-.18-11.53-5.16-24.3,1.27-28.51,12.77-.11.31-.22.62-.32.94,0,3.74,1.03,7.58,2.85,10.69,3.44,5.91,9.33,8.91,15.35,8.86,2.39.99,5.06,1.44,7.31,1.39,4.94-.12,9.48-2.62,12.42-6.44,4.8.03,9.82-1.17,13.76-3.81,3.55-.8,6.78-3.04,8.88-6.13Z"/>
        </g>
      </g>
    </g>
    <g class="cls-9">
      <g>
        <path class="cls-4" d="M247.3,927.15h-17.66v23.63s0,3.7,0,3.7v16.19h7.4v-16.19h10.26c7.53,0,13.66-6.13,13.66-13.66,0-7.53-6.13-13.66-13.66-13.66ZM247.3,947.07h-10.26v-12.53h10.26c3.46,0,6.27,2.81,6.27,6.27,0,3.46-2.81,6.27-6.27,6.27Z"/>
        <path class="cls-4" d="M239.14,982.59h-1.69v3.12h1.69c.64,0,1.12-.14,1.43-.42.32-.28.47-.66.47-1.14s-.16-.88-.47-1.15-.79-.41-1.43-.41Z"/>
        <path class="cls-4" d="M241.2,994.9h-1.69v3.12h1.69c.64,0,1.12-.14,1.43-.42.32-.28.47-.66.47-1.14s-.16-.88-.47-1.15-.79-.41-1.43-.41Z"/>
        <polygon class="cls-4" points="230.04 998.67 232.88 998.67 231.47 995.25 230.04 998.67"/>
        <path class="cls-4" d="M222.62,994.9h-1.69v3.11h1.69c.64,0,1.12-.14,1.43-.41.32-.27.47-.65.47-1.14s-.16-.88-.47-1.15c-.31-.27-.79-.41-1.43-.41Z"/>
        <polygon class="cls-4" points="229.41 982.94 227.99 986.36 230.83 986.36 229.41 982.94"/>
        <polygon class="cls-4" points="255.76 986.36 258.6 986.36 257.18 982.94 255.76 986.36"/>
        <path class="cls-4" d="M264.24,994.9h-1.69v3.12h1.69c.64,0,1.12-.14,1.43-.42.32-.28.47-.66.47-1.14s-.16-.88-.47-1.15-.79-.41-1.43-.41Z"/>
        <path class="cls-4" d="M270.82,916.99h-54.37c-4.86,0-8.8,3.94-8.8,8.8v49.82s0,23.3,0,23.3c0,.3.02.6.05.9.06.59.18,1.17.35,1.72.34,1.1.9,2.11,1.61,2.98.36.43.76.83,1.19,1.19,1.52,1.26,3.47,2.01,5.6,2.01h54.37c1.52,0,2.95-.38,4.2-1.06.62-.34,1.18-.75,1.7-1.22.21-.19.41-.39.6-.6,1.43-1.56,2.31-3.64,2.31-5.93v-73.11c0-4.86-3.94-8.8-8.8-8.8ZM224.81,999.3c-.58.26-1.27.39-2.07.39h-1.8v2.47h-2.07v-8.95h3.87c.8,0,1.49.13,2.07.39.58.26,1.03.63,1.34,1.12.32.49.47,1.07.47,1.74s-.16,1.24-.47,1.73c-.32.49-.76.86-1.34,1.12ZM224.42,989.85l3.99-8.95h2.05s4,8.95,4,8.95h-2.17l-.79-1.92h-4.15l-.8,1.92h-2.12ZM234.33,1002.16l-.79-1.92h-4.15l-.8,1.92h-2.12l3.99-8.95h2.05l4,8.95h-2.17ZM243.31,989.85h-2.24l-1.72-2.5s-.06,0-.1,0h-1.8v2.49h-2.07v-8.95h3.82c1.24,0,2.21.29,2.9.86.69.58,1.04,1.37,1.04,2.38,0,.67-.16,1.24-.47,1.72s-.76.85-1.34,1.11c0,0-.01,0-.02,0l2,2.87ZM243.13,1002.16l-1.72-2.5s-.06,0-.1,0h-1.8v2.49h-2.07s0-8.95,0-8.95h3.82c1.24,0,2.21.29,2.9.86.69.58,1.04,1.37,1.04,2.38,0,.66-.16,1.24-.47,1.72-.31.48-.76.85-1.34,1.11,0,0-.01,0-.02,0l2,2.87h-2.24ZM250.99,984.51v1.61h-4.15v2.07h4.87v1.66h-6.93s0-8.95,0-8.95h6.76s0,1.66,0,1.66h-4.7v1.94h4.15ZM252.96,1002.16l-2.87-3.51-1.2,1.25v2.26h-2.06s0-8.95,0-8.95h2.06v4.18l3.96-4.18h2.3s-3.7,3.99-3.7,3.99l3.92,4.96h-2.42ZM258.36,1002.16h-2.07s0-8.95,0-8.95h2.07v8.95ZM259.25,987.94h-4.15l-.8,1.92h-2.12s3.99-8.95,3.99-8.95h2.05s4,8.95,4,8.95h-2.17l-.79-1.92ZM266.17,1002.16l-1.72-2.5s-.06,0-.1,0h-1.8v2.49h-2.07v-8.95h3.82c1.24,0,2.21.29,2.9.86.69.58,1.04,1.37,1.04,2.38,0,.66-.16,1.24-.47,1.72-.32.48-.76.85-1.34,1.11,0,0-.01,0-.02,0l2,2.87h-2.24ZM278.58,975.6h-69.88v-49.82c0-4.28,3.48-7.76,7.76-7.76h54.37c4.28,0,7.76,3.48,7.76,7.76v49.82Z"/>
      </g>
      <g>
        <path class="cls-4" d="M409.3,927.15h-17.66v43.52h7.4v-16.19h10.26c7.53,0,13.66-6.13,13.66-13.66s-6.13-13.66-13.66-13.66ZM409.3,947.07h-10.26v-12.53h10.26c3.46,0,6.27,2.81,6.27,6.27s-2.81,6.27-6.27,6.27Z"/>
        <path class="cls-4" d="M401.15,982.59h-1.69v3.12h1.69c.64,0,1.12-.14,1.43-.42.31-.28.47-.66.47-1.14s-.16-.88-.47-1.15c-.32-.27-.79-.41-1.43-.41Z"/>
        <path class="cls-4" d="M403.2,994.9h-1.69v3.12h1.69c.64,0,1.12-.14,1.43-.42.31-.28.47-.66.47-1.14s-.16-.88-.47-1.15c-.32-.27-.79-.41-1.43-.41Z"/>
        <polygon class="cls-4" points="392.05 998.67 394.89 998.67 393.47 995.25 392.05 998.67"/>
        <path class="cls-4" d="M384.62,994.9h-1.69v3.11h1.69c.64,0,1.12-.14,1.43-.41.31-.27.47-.65.47-1.14,0-.49-.16-.88-.47-1.15-.32-.27-.79-.41-1.43-.41Z"/>
        <polygon class="cls-4" points="391.42 982.94 389.99 986.36 392.84 986.36 391.42 982.94"/>
        <polygon class="cls-4" points="417.76 986.36 420.6 986.36 419.18 982.94 417.76 986.36"/>
        <path class="cls-4" d="M426.25,994.9h-1.69v3.12h1.69c.64,0,1.12-.14,1.43-.42.32-.28.47-.66.47-1.14s-.16-.88-.47-1.15c-.31-.27-.79-.41-1.43-.41Z"/>
        <path class="cls-4" d="M432.83,916.99h-54.37c-4.86,0-8.8,3.94-8.8,8.8v73.11c0,.3.02.6.05.9.06.59.18,1.17.35,1.72.34,1.1.9,2.11,1.61,2.98.36.43.76.83,1.19,1.19,1.52,1.26,3.47,2.01,5.6,2.01h54.37c1.52,0,2.95-.38,4.2-1.06.62-.34,1.18-.75,1.7-1.22.21-.19.41-.39.6-.6,1.43-1.56,2.31-3.64,2.31-5.93v-73.11c0-4.86-3.94-8.8-8.8-8.8ZM386.81,999.3c-.58.26-1.27.39-2.07.39h-1.8s0,2.47,0,2.47h-2.07v-8.95h3.87c.8,0,1.49.13,2.07.39s1.03.63,1.34,1.12c.32.49.47,1.07.47,1.74s-.16,1.24-.47,1.73c-.32.49-.76.86-1.34,1.12ZM386.42,989.85l3.99-8.95h2.05l4,8.95h-2.17l-.79-1.92h-4.15l-.8,1.92h-2.12ZM396.33,1002.16l-.79-1.92h-4.15l-.8,1.92h-2.12l3.99-8.95h2.05l4,8.95h-2.17ZM405.31,989.85h-2.24l-1.72-2.5s-.06,0-.1,0h-1.8v2.49h-2.07v-8.95h3.82c1.24,0,2.21.29,2.9.86.69.58,1.04,1.37,1.04,2.38,0,.67-.16,1.24-.47,1.72s-.76.85-1.34,1.11c0,0-.01,0-.02,0l2,2.87ZM405.13,1002.16l-1.72-2.5s-.06,0-.1,0h-1.8s0,2.49,0,2.49h-2.07v-8.95h3.82c1.24,0,2.21.29,2.9.86.69.58,1.04,1.37,1.04,2.38,0,.66-.16,1.24-.47,1.72-.32.48-.76.85-1.34,1.11,0,0-.01,0-.02,0l2,2.87h-2.24ZM413,984.51v1.61h-4.15v2.07h4.87v1.66h-6.93v-8.95h6.76v1.66h-4.7v1.94h4.15ZM414.96,1002.16l-2.87-3.51-1.2,1.25v2.26h-2.06v-8.95h2.06v4.18l3.96-4.18h2.3l-3.71,3.99,3.92,4.96h-2.42ZM420.37,1002.16h-2.07v-8.95h2.07v8.95ZM421.25,987.94h-4.15l-.8,1.92h-2.12l3.99-8.95h2.05l4,8.95h-2.17l-.79-1.92ZM428.18,1002.16l-1.72-2.5s-.06,0-.1,0h-1.8v2.49h-2.07v-8.95h3.82c1.24,0,2.21.29,2.9.86.69.58,1.04,1.37,1.04,2.38,0,.66-.16,1.24-.47,1.72-.32.48-.76.85-1.34,1.11,0,0-.01,0-.02,0l2,2.87h-2.24ZM440.58,975.6h-69.88v-49.82c0-4.28,3.48-7.76,7.76-7.76h54.37c4.28,0,7.76,3.48,7.76,7.76v49.82Z"/>
      </g>
      <g>
        <path class="cls-4" d="M733.31,927.15h-17.66v43.52h7.4v-16.19h10.26c7.53,0,13.66-6.13,13.66-13.66s-6.13-13.66-13.66-13.66ZM733.31,947.07h-10.26v-12.53h10.26c3.46,0,6.27,2.81,6.27,6.27s-2.81,6.27-6.27,6.27Z"/>
        <path class="cls-4" d="M725.15,982.59h-1.69v3.12h1.69c.64,0,1.12-.14,1.43-.42.32-.28.47-.66.47-1.14s-.16-.88-.47-1.15-.79-.41-1.43-.41Z"/>
        <path class="cls-4" d="M727.21,994.9h-1.69v3.12h1.69c.64,0,1.12-.14,1.43-.42.32-.28.47-.66.47-1.14s-.16-.88-.47-1.15-.79-.41-1.43-.41Z"/>
        <polygon class="cls-4" points="716.05 998.67 718.89 998.67 717.48 995.25 716.05 998.67"/>
        <path class="cls-4" d="M708.63,994.9h-1.69v3.11h1.69c.64,0,1.12-.14,1.43-.41.32-.27.47-.65.47-1.14s-.16-.88-.47-1.15c-.31-.27-.79-.41-1.43-.41Z"/>
        <polygon class="cls-4" points="715.42 982.94 714 986.36 716.84 986.36 715.42 982.94"/>
        <polygon class="cls-4" points="741.77 986.36 744.61 986.36 743.19 982.94 741.77 986.36"/>
        <path class="cls-4" d="M750.25,994.9h-1.69v3.12h1.69c.64,0,1.12-.14,1.43-.42.32-.28.47-.66.47-1.14s-.16-.88-.47-1.15c-.32-.27-.79-.41-1.43-.41Z"/>
        <path class="cls-4" d="M756.83,916.99h-54.37c-4.86,0-8.8,3.94-8.8,8.8v73.11c0,.3.02.6.05.9.06.59.18,1.17.35,1.72.34,1.1.9,2.11,1.61,2.98.36.43.76.83,1.19,1.19,1.52,1.26,3.47,2.01,5.6,2.01h54.37c1.52,0,2.95-.38,4.2-1.06.62-.34,1.18-.75,1.7-1.22.21-.19.41-.39.6-.6,1.43-1.56,2.31-3.64,2.31-5.93v-23.3s0-49.82,0-49.82c0-4.86-3.94-8.8-8.8-8.8ZM710.82,999.3c-.58.26-1.27.39-2.07.39h-1.8v2.47h-2.07v-8.95h3.87c.8,0,1.49.13,2.07.39.58.26,1.03.63,1.34,1.12.32.49.47,1.07.47,1.74s-.16,1.24-.47,1.73c-.32.49-.76.86-1.34,1.12ZM710.43,989.85l3.99-8.95h2.05l4,8.95h-2.17l-.79-1.92h-4.15l-.8,1.92h-2.12ZM720.34,1002.16l-.79-1.92h-4.15l-.8,1.92h-2.12l3.99-8.95h2.05l4,8.95h-2.17ZM729.32,989.85h-2.24l-1.72-2.5s-.06,0-.1,0h-1.8v2.49h-2.07v-8.95h3.82c1.24,0,2.21.29,2.9.86.69.58,1.04,1.37,1.04,2.38,0,.67-.16,1.24-.47,1.72-.32.48-.76.85-1.34,1.11,0,0-.01,0-.02,0l2,2.87ZM729.14,1002.16l-1.72-2.5s-.06,0-.1,0h-1.8v2.49h-2.07v-8.95h3.82c1.24,0,2.21.29,2.9.86.69.58,1.04,1.37,1.04,2.38,0,.66-.16,1.24-.47,1.72-.32.48-.76.85-1.34,1.11,0,0-.01,0-.02,0l2,2.87h-2.24ZM737,984.51v1.61h-4.15v2.07h4.87v1.66h-6.93v-8.95h6.76v1.66h-4.7v1.94h4.15ZM738.97,1002.16l-2.87-3.51-1.2,1.25v2.26h-2.06v-8.95h2.06v4.18l3.96-4.18h2.3l-3.7,3.99,3.92,4.96h-2.42ZM744.37,1002.16h-2.07v-8.95h2.07v8.95ZM745.26,987.94h-4.15l-.8,1.92h-2.12l3.99-8.95h2.05l4,8.95h-2.17l-.79-1.92ZM752.18,1002.16l-1.72-2.5s-.06,0-.1,0h-1.8v2.49h-2.07v-8.95h3.82c1.24,0,2.21.29,2.9.86.69.58,1.04,1.37,1.04,2.38,0,.66-.16,1.24-.47,1.72-.32.48-.76.85-1.34,1.11,0,0-.01,0-.02,0l2,2.87h-2.24ZM764.59,975.6h-69.88v-49.82c0-4.28,3.48-7.76,7.76-7.76h54.37c4.28,0,7.76,3.48,7.76,7.76v49.82Z"/>
      </g>
      <g>
        <path class="cls-4" d="M895.31,927.15h-17.66v43.52h7.4v-16.19h10.26c7.53,0,13.66-6.13,13.66-13.66s-6.13-13.66-13.66-13.66ZM895.31,947.07h-10.26v-12.53h10.26c3.46,0,6.27,2.81,6.27,6.27s-2.81,6.27-6.27,6.27Z"/>
        <path class="cls-4" d="M887.16,982.59h-1.69v3.12h1.69c.64,0,1.12-.14,1.43-.42.32-.28.47-.66.47-1.14s-.16-.88-.47-1.15-.79-.41-1.43-.41Z"/>
        <path class="cls-4" d="M889.21,994.9h-1.69v3.12h1.69c.64,0,1.12-.14,1.43-.42.32-.28.47-.66.47-1.14s-.16-.88-.47-1.15-.79-.41-1.43-.41Z"/>
        <polygon class="cls-4" points="878.06 998.67 880.9 998.67 879.48 995.25 878.06 998.67"/>
        <path class="cls-4" d="M870.63,994.9h-1.69v3.11h1.69c.64,0,1.12-.14,1.43-.41.32-.27.47-.65.47-1.14s-.16-.88-.47-1.15c-.31-.27-.79-.41-1.43-.41Z"/>
        <polygon class="cls-4" points="877.43 982.94 876 986.36 878.85 986.36 877.43 982.94"/>
        <polygon class="cls-4" points="903.77 986.36 906.61 986.36 905.19 982.94 903.77 986.36"/>
        <path class="cls-4" d="M912.26,994.9h-1.69v3.12h1.69c.64,0,1.12-.14,1.43-.42.32-.28.47-.66.47-1.14s-.16-.88-.47-1.15c-.32-.27-.79-.41-1.43-.41Z"/>
        <path class="cls-4" d="M918.84,916.99h-54.37c-4.86,0-8.8,3.94-8.8,8.8v73.11c0,.3.02.6.05.9.06.59.18,1.17.35,1.72.34,1.1.9,2.11,1.61,2.98.36.43.76.83,1.19,1.19,1.52,1.26,3.47,2.01,5.6,2.01h54.37c1.52,0,2.95-.38,4.2-1.06.62-.34,1.18-.75,1.7-1.22.21-.19.41-.39.6-.6,1.43-1.56,2.31-3.64,2.31-5.93v-23.3s0-49.82,0-49.82c0-4.86-3.94-8.8-8.8-8.8ZM872.82,999.3c-.58.26-1.27.39-2.07.39h-1.8v2.47h-2.07v-8.95h3.87c.8,0,1.49.13,2.07.39.58.26,1.03.63,1.34,1.12.32.49.47,1.07.47,1.74s-.16,1.24-.47,1.73c-.32.49-.76.86-1.34,1.12ZM872.43,989.85l3.99-8.95h2.05l4,8.95h-2.17l-.79-1.92h-4.15l-.8,1.92h-2.12ZM882.34,1002.16l-.79-1.92h-4.15l-.8,1.92h-2.12l3.99-8.95h2.05l4,8.95h-2.17ZM891.32,989.85h-2.24l-1.72-2.5s-.06,0-.1,0h-1.8v2.49h-2.07v-8.95h3.82c1.24,0,2.21.29,2.9.86.69.58,1.04,1.37,1.04,2.38,0,.67-.16,1.24-.47,1.72-.32.48-.76.85-1.34,1.11,0,0-.01,0-.02,0l2,2.87ZM891.14,1002.16l-1.72-2.5s-.06,0-.1,0h-1.8v2.49h-2.07v-8.95h3.82c1.24,0,2.21.29,2.9.86.69.58,1.04,1.37,1.04,2.38,0,.66-.16,1.24-.47,1.72-.32.48-.76.85-1.34,1.11,0,0-.01,0-.02,0l2,2.87h-2.24ZM899.01,984.51v1.61h-4.15v2.07h4.87v1.66h-6.93v-8.95h6.76v1.66h-4.7v1.94h4.15ZM900.97,1002.16l-2.87-3.51-1.2,1.25v2.26h-2.06v-8.95h2.06v4.18l3.96-4.18h2.3l-3.7,3.99,3.92,4.96h-2.42ZM906.38,1002.16h-2.07v-8.95h2.07v8.95ZM907.26,987.94h-4.15l-.8,1.92h-2.12l3.99-8.95h2.05l4,8.95h-2.17l-.79-1.92ZM914.19,1002.16l-1.72-2.5s-.06,0-.1,0h-1.8v2.49h-2.07v-8.95h3.82c1.24,0,2.21.29,2.9.86.69.58,1.04,1.37,1.04,2.38,0,.66-.16,1.24-.47,1.72-.32.48-.76.85-1.34,1.11,0,0-.01,0-.02,0l2,2.87h-2.24ZM926.59,975.6h-69.88v-49.82c0-4.28,3.48-7.76,7.76-7.76h54.37c4.28,0,7.76,3.48,7.76,7.76v49.82Z"/>
      </g>
      <g>
        <path class="cls-4" d="M1057.32,927.15h-17.66v43.52h7.4v-16.19h10.26c7.53,0,13.66-6.13,13.66-13.66s-6.13-13.66-13.66-13.66ZM1057.32,947.07h-10.26v-12.53h10.26c3.46,0,6.27,2.81,6.27,6.27s-2.81,6.27-6.27,6.27Z"/>
        <path class="cls-4" d="M1049.16,982.59h-1.69v3.12h1.69c.64,0,1.12-.14,1.43-.42.32-.28.47-.66.47-1.14s-.16-.88-.47-1.15-.79-.41-1.43-.41Z"/>
        <path class="cls-4" d="M1051.21,994.9h-1.69v3.12h1.69c.64,0,1.12-.14,1.43-.42.32-.28.47-.66.47-1.14s-.16-.88-.47-1.15-.79-.41-1.43-.41Z"/>
        <polygon class="cls-4" points="1040.06 998.67 1042.9 998.67 1041.48 995.25 1040.06 998.67"/>
        <path class="cls-4" d="M1032.64,994.9h-1.69v3.11h1.69c.64,0,1.12-.14,1.43-.41.32-.27.47-.65.47-1.14s-.16-.88-.47-1.15c-.31-.27-.79-.41-1.43-.41Z"/>
        <polygon class="cls-4" points="1039.43 982.94 1038.01 986.36 1040.85 986.36 1039.43 982.94"/>
        <polygon class="cls-4" points="1065.77 986.36 1068.61 986.36 1067.2 982.94 1065.77 986.36"/>
        <path class="cls-4" d="M1074.26,994.9h-1.69v3.12h1.69c.64,0,1.12-.14,1.43-.42.32-.28.47-.66.47-1.14s-.16-.88-.47-1.15c-.32-.27-.79-.41-1.43-.41Z"/>
        <path class="cls-4" d="M1080.84,916.99h-54.37c-4.86,0-8.8,3.94-8.8,8.8v73.11c0,.3.02.6.05.9.06.59.18,1.17.35,1.72.34,1.1.9,2.11,1.61,2.98.36.43.76.83,1.19,1.19,1.52,1.26,3.47,2.01,5.6,2.01h54.37c1.52,0,2.95-.38,4.2-1.06.62-.34,1.18-.75,1.7-1.22.21-.19.41-.39.6-.6,1.43-1.56,2.31-3.64,2.31-5.93v-23.3s0-49.82,0-49.82c0-4.86-3.94-8.8-8.8-8.8ZM1034.82,999.3c-.58.26-1.27.39-2.07.39h-1.8v2.47h-2.07v-8.95h3.87c.8,0,1.49.13,2.07.39.58.26,1.03.63,1.34,1.12.32.49.47,1.07.47,1.74s-.16,1.24-.47,1.73c-.32.49-.76.86-1.34,1.12ZM1034.43,989.85l3.99-8.95h2.05l4,8.95h-2.17l-.79-1.92h-4.15l-.8,1.92h-2.12ZM1044.35,1002.16l-.79-1.92h-4.15l-.8,1.92h-2.12l3.99-8.95h2.05l4,8.95h-2.17ZM1053.33,989.85h-2.24l-1.72-2.5s-.06,0-.1,0h-1.8v2.49h-2.07v-8.95h3.82c1.24,0,2.21.29,2.9.86.69.58,1.04,1.37,1.04,2.38,0,.67-.16,1.24-.47,1.72-.32.48-.76.85-1.34,1.11,0,0-.01,0-.02,0l2,2.87ZM1053.14,1002.16l-1.72-2.5s-.06,0-.1,0h-1.8v2.49h-2.07v-8.95h3.82c1.24,0,2.21.29,2.9.86.69.58,1.04,1.37,1.04,2.38,0,.66-.16,1.24-.47,1.72-.32.48-.76.85-1.34,1.11,0,0-.01,0-.02,0l2,2.87h-2.24ZM1061.01,984.51v1.61h-4.15v2.07h4.87v1.66h-6.93v-8.95h6.76v1.66h-4.7v1.94h4.15ZM1062.97,1002.16l-2.87-3.51-1.2,1.25v2.26h-2.06v-8.95h2.06v4.18l3.96-4.18h2.3l-3.7,3.99,3.92,4.96h-2.42ZM1068.38,1002.16h-2.07v-8.95h2.07v8.95ZM1069.27,987.94h-4.15l-.8,1.92h-2.12l3.99-8.95h2.05l4,8.95h-2.17l-.79-1.92ZM1076.19,1002.16l-1.72-2.5s-.06,0-.1,0h-1.8v2.49h-2.07v-8.95h3.82c1.24,0,2.21.29,2.9.86.69.58,1.04,1.37,1.04,2.38,0,.66-.16,1.24-.47,1.72-.32.48-.76.85-1.34,1.11,0,0-.01,0-.02,0l2,2.87h-2.24ZM1088.6,975.6h-69.88v-49.82c0-4.28,3.48-7.76,7.76-7.76h54.37c4.28,0,7.76,3.48,7.76,7.76v49.82Z"/>
      </g>
      <g>
        <path class="cls-4" d="M1219.32,927.15h-17.66v43.52h7.4v-16.19h10.26c7.53,0,13.66-6.13,13.66-13.66s-6.13-13.66-13.66-13.66ZM1219.32,947.07h-10.26v-12.53h10.26c3.46,0,6.27,2.81,6.27,6.27s-2.81,6.27-6.27,6.27Z"/>
        <path class="cls-4" d="M1211.16,982.59h-1.69v3.12h1.69c.64,0,1.12-.14,1.43-.42.32-.28.47-.66.47-1.14s-.16-.88-.47-1.15-.79-.41-1.43-.41Z"/>
        <path class="cls-4" d="M1213.22,994.9h-1.69v3.12h1.69c.64,0,1.12-.14,1.43-.42.32-.28.47-.66.47-1.14s-.16-.88-.47-1.15-.79-.41-1.43-.41Z"/>
        <polygon class="cls-4" points="1202.06 998.67 1204.9 998.67 1203.49 995.25 1202.06 998.67"/>
        <path class="cls-4" d="M1194.64,994.9h-1.69v3.11h1.69c.64,0,1.12-.14,1.43-.41.32-.27.47-.65.47-1.14s-.16-.88-.47-1.15c-.31-.27-.79-.41-1.43-.41Z"/>
        <polygon class="cls-4" points="1201.43 982.94 1200.01 986.36 1202.85 986.36 1201.43 982.94"/>
        <polygon class="cls-4" points="1227.78 986.36 1230.62 986.36 1229.2 982.94 1227.78 986.36"/>
        <path class="cls-4" d="M1236.26,994.9h-1.69v3.12h1.69c.64,0,1.12-.14,1.43-.42.32-.28.47-.66.47-1.14s-.16-.88-.47-1.15c-.32-.27-.79-.41-1.43-.41Z"/>
        <path class="cls-4" d="M1242.84,916.99h-54.37c-4.86,0-8.8,3.94-8.8,8.8v73.11c0,.3.02.6.05.9.06.59.18,1.17.35,1.72.34,1.1.9,2.11,1.61,2.98.36.43.76.83,1.19,1.19,1.52,1.26,3.47,2.01,5.6,2.01h54.37c1.52,0,2.95-.38,4.2-1.06.62-.34,1.18-.75,1.7-1.22.21-.19.41-.39.6-.6,1.43-1.56,2.31-3.64,2.31-5.93v-23.3s0-49.82,0-49.82c0-4.86-3.94-8.8-8.8-8.8ZM1196.83,999.3c-.58.26-1.27.39-2.07.39h-1.8v2.47h-2.07v-8.95h3.87c.8,0,1.49.13,2.07.39.58.26,1.03.63,1.34,1.12.32.49.47,1.07.47,1.74s-.16,1.24-.47,1.73c-.32.49-.76.86-1.34,1.12ZM1196.44,989.85l3.99-8.95h2.05l4,8.95h-2.17l-.79-1.92h-4.15l-.8,1.92h-2.12ZM1206.35,1002.16l-.79-1.92h-4.15l-.8,1.92h-2.12l3.99-8.95h2.05l4,8.95h-2.17ZM1215.33,989.85h-2.24l-1.72-2.5s-.06,0-.1,0h-1.8v2.49h-2.07v-8.95h3.82c1.24,0,2.21.29,2.9.86.69.58,1.04,1.37,1.04,2.38,0,.67-.16,1.24-.47,1.72-.32.48-.76.85-1.34,1.11,0,0-.01,0-.02,0l2,2.87ZM1215.15,1002.16l-1.72-2.5s-.06,0-.1,0h-1.8v2.49h-2.07v-8.95h3.82c1.24,0,2.21.29,2.9.86.69.58,1.04,1.37,1.04,2.38,0,.66-.16,1.24-.47,1.72-.32.48-.76.85-1.34,1.11,0,0-.01,0-.02,0l2,2.87h-2.24ZM1223.01,984.51v1.61h-4.15v2.07h4.87v1.66h-6.93v-8.95h6.76v1.66h-4.7v1.94h4.15ZM1224.98,1002.16l-2.87-3.51-1.2,1.25v2.26h-2.06v-8.95h2.06v4.18l3.96-4.18h2.3l-3.7,3.99,3.92,4.96h-2.42ZM1230.38,1002.16h-2.07v-8.95h2.07v8.95ZM1231.27,987.94h-4.15l-.8,1.92h-2.12l3.99-8.95h2.05l4,8.95h-2.17l-.79-1.92ZM1238.19,1002.16l-1.72-2.5s-.06,0-.1,0h-1.8v2.49h-2.07v-8.95h3.82c1.24,0,2.21.29,2.9.86.69.58,1.04,1.37,1.04,2.38,0,.66-.16,1.24-.47,1.72-.32.48-.76.85-1.34,1.11,0,0-.01,0-.02,0l2,2.87h-2.24ZM1250.6,975.6h-69.88v-49.82c0-4.28,3.48-7.76,7.76-7.76h54.37c4.28,0,7.76,3.48,7.76,7.76v49.82Z"/>
      </g>
      <g>
        <path class="cls-4" d="M1381.32,927.15h-17.66v43.52h7.4v-16.19h10.26c7.53,0,13.66-6.13,13.66-13.66s-6.13-13.66-13.66-13.66ZM1381.32,947.07h-10.26v-12.53h10.26c3.46,0,6.27,2.81,6.27,6.27s-2.81,6.27-6.27,6.27Z"/>
        <path class="cls-4" d="M1373.17,982.59h-1.69v3.12h1.69c.64,0,1.12-.14,1.43-.42.32-.28.47-.66.47-1.14s-.16-.88-.47-1.15-.79-.41-1.43-.41Z"/>
        <path class="cls-4" d="M1375.22,994.9h-1.69v3.12h1.69c.64,0,1.12-.14,1.43-.42.32-.28.47-.66.47-1.14s-.16-.88-.47-1.15-.79-.41-1.43-.41Z"/>
        <polygon class="cls-4" points="1364.06 998.67 1366.91 998.67 1365.49 995.25 1364.06 998.67"/>
        <path class="cls-4" d="M1356.64,994.9h-1.69v3.11h1.69c.64,0,1.12-.14,1.43-.41.32-.27.47-.65.47-1.14s-.16-.88-.47-1.15c-.31-.27-.79-.41-1.43-.41Z"/>
        <polygon class="cls-4" points="1363.44 982.94 1362.01 986.36 1364.86 986.36 1363.44 982.94"/>
        <polygon class="cls-4" points="1389.78 986.36 1392.62 986.36 1391.2 982.94 1389.78 986.36"/>
        <path class="cls-4" d="M1398.27,994.9h-1.69v3.12h1.69c.64,0,1.12-.14,1.43-.42.32-.28.47-.66.47-1.14s-.16-.88-.47-1.15c-.32-.27-.79-.41-1.43-.41Z"/>
        <path class="cls-4" d="M1404.85,916.99h-54.37c-4.86,0-8.8,3.94-8.8,8.8v73.11c0,.3.02.6.05.9.06.59.18,1.17.35,1.72.34,1.1.9,2.11,1.61,2.98.36.43.76.83,1.19,1.19,1.52,1.26,3.47,2.01,5.6,2.01h54.37c1.52,0,2.95-.38,4.2-1.06.62-.34,1.18-.75,1.7-1.22.21-.19.41-.39.6-.6,1.43-1.56,2.31-3.64,2.31-5.93v-23.3s0-49.82,0-49.82c0-4.86-3.94-8.8-8.8-8.8ZM1358.83,999.3c-.58.26-1.27.39-2.07.39h-1.8v2.47h-2.07v-8.95h3.87c.8,0,1.49.13,2.07.39.58.26,1.03.63,1.34,1.12.32.49.47,1.07.47,1.74s-.16,1.24-.47,1.73c-.32.49-.76.86-1.34,1.12ZM1358.44,989.85l3.99-8.95h2.05l4,8.95h-2.17l-.79-1.92h-4.15l-.8,1.92h-2.12ZM1368.35,1002.16l-.79-1.92h-4.15l-.8,1.92h-2.12l3.99-8.95h2.05l4,8.95h-2.17ZM1377.33,989.85h-2.24l-1.72-2.5s-.06,0-.1,0h-1.8v2.49h-2.07v-8.95h3.82c1.24,0,2.21.29,2.9.86.69.58,1.04,1.37,1.04,2.38,0,.67-.16,1.24-.47,1.72-.32.48-.76.85-1.34,1.11,0,0-.01,0-.02,0l2,2.87ZM1377.15,1002.16l-1.72-2.5s-.06,0-.1,0h-1.8v2.49h-2.07v-8.95h3.82c1.24,0,2.21.29,2.9.86.69.58,1.04,1.37,1.04,2.38,0,.66-.16,1.24-.47,1.72-.32.48-.76.85-1.34,1.11,0,0-.01,0-.02,0l2,2.87h-2.24ZM1385.02,984.51v1.61h-4.15v2.07h4.87v1.66h-6.93v-8.95h6.76v1.66h-4.7v1.94h4.15ZM1386.98,1002.16l-2.87-3.51-1.2,1.25v2.26h-2.06v-8.95h2.06v4.18l3.96-4.18h2.3l-3.7,3.99,3.92,4.96h-2.42ZM1392.39,1002.16h-2.07v-8.95h2.07v8.95ZM1393.27,987.94h-4.15l-.8,1.92h-2.12l3.99-8.95h2.05l4,8.95h-2.17l-.79-1.92ZM1400.2,1002.16l-1.72-2.5s-.06,0-.1,0h-1.8v2.49h-2.07v-8.95h3.82c1.24,0,2.21.29,2.9.86.69.58,1.04,1.37,1.04,2.38,0,.66-.16,1.24-.47,1.72-.32.48-.76.85-1.34,1.11,0,0-.01,0-.02,0l2,2.87h-2.24ZM1412.6,975.6h-69.88v-49.82c0-4.28,3.48-7.76,7.76-7.76h54.37c4.28,0,7.76,3.48,7.76,7.76v49.82Z"/>
      </g>
      <g>
        <path class="cls-4" d="M1707,927.15h-17.66v43.52h7.4v-16.19h10.26c7.53,0,13.66-6.13,13.66-13.66s-6.13-13.66-13.66-13.66ZM1707,947.07h-10.26v-12.53h10.26c3.46,0,6.27,2.81,6.27,6.27s-2.81,6.27-6.27,6.27Z"/>
        <path class="cls-4" d="M1698.84,982.59h-1.69v3.12h1.69c.64,0,1.12-.14,1.43-.42.32-.28.47-.66.47-1.14s-.16-.88-.47-1.15-.79-.41-1.43-.41Z"/>
        <path class="cls-4" d="M1700.89,994.9h-1.69v3.12h1.69c.64,0,1.12-.14,1.43-.42.32-.28.47-.66.47-1.14s-.16-.88-.47-1.15-.79-.41-1.43-.41Z"/>
        <polygon class="cls-4" points="1689.74 998.67 1692.58 998.67 1691.16 995.25 1689.74 998.67"/>
        <path class="cls-4" d="M1682.32,994.9h-1.69v3.11h1.69c.64,0,1.12-.14,1.43-.41.32-.27.47-.65.47-1.14s-.16-.88-.47-1.15c-.31-.27-.79-.41-1.43-.41Z"/>
        <polygon class="cls-4" points="1689.11 982.94 1687.69 986.36 1690.53 986.36 1689.11 982.94"/>
        <polygon class="cls-4" points="1715.45 986.36 1718.29 986.36 1716.87 982.94 1715.45 986.36"/>
        <path class="cls-4" d="M1723.94,994.9h-1.69v3.12h1.69c.64,0,1.12-.14,1.43-.42.32-.28.47-.66.47-1.14s-.16-.88-.47-1.15c-.32-.27-.79-.41-1.43-.41Z"/>
        <path class="cls-4" d="M1730.52,916.99h-54.37c-4.86,0-8.8,3.94-8.8,8.8v73.11c0,.3.02.6.05.9.06.59.18,1.17.35,1.72.34,1.1.9,2.11,1.61,2.98.36.43.76.83,1.19,1.19,1.52,1.26,3.47,2.01,5.6,2.01h54.37c1.52,0,2.95-.38,4.2-1.06.62-.34,1.18-.75,1.7-1.22.21-.19.41-.39.6-.6,1.43-1.56,2.31-3.64,2.31-5.93v-23.3s0-49.82,0-49.82c0-4.86-3.94-8.8-8.8-8.8ZM1684.5,999.3c-.58.26-1.27.39-2.07.39h-1.8v2.47h-2.07v-8.95h3.87c.8,0,1.49.13,2.07.39.58.26,1.03.63,1.34,1.12.32.49.47,1.07.47,1.74s-.16,1.24-.47,1.73c-.32.49-.76.86-1.34,1.12ZM1684.11,989.85l3.99-8.95h2.05l4,8.95h-2.17l-.79-1.92h-4.15l-.8,1.92h-2.12ZM1694.03,1002.16l-.79-1.92h-4.15l-.8,1.92h-2.12l3.99-8.95h2.05l4,8.95h-2.17ZM1703.01,989.85h-2.24l-1.72-2.5s-.06,0-.1,0h-1.8v2.49h-2.07v-8.95h3.82c1.24,0,2.21.29,2.9.86.69.58,1.04,1.37,1.04,2.38,0,.67-.16,1.24-.47,1.72-.32.48-.76.85-1.34,1.11,0,0-.01,0-.02,0l2,2.87ZM1702.82,1002.16l-1.72-2.5s-.06,0-.1,0h-1.8v2.49h-2.07v-8.95h3.82c1.24,0,2.21.29,2.9.86.69.58,1.04,1.37,1.04,2.38,0,.66-.16,1.24-.47,1.72-.32.48-.76.85-1.34,1.11,0,0-.01,0-.02,0l2,2.87h-2.24ZM1710.69,984.51v1.61h-4.15v2.07h4.87v1.66h-6.93v-8.95h6.76v1.66h-4.7v1.94h4.15ZM1712.65,1002.16l-2.87-3.51-1.2,1.25v2.26h-2.06v-8.95h2.06v4.18l3.96-4.18h2.3l-3.7,3.99,3.92,4.96h-2.42ZM1718.06,1002.16h-2.07v-8.95h2.07v8.95ZM1718.94,987.94h-4.15l-.8,1.92h-2.12l3.99-8.95h2.05l4,8.95h-2.17l-.79-1.92ZM1725.87,1002.16l-1.72-2.5s-.06,0-.1,0h-1.8v2.49h-2.07v-8.95h3.82c1.24,0,2.21.29,2.9.86.69.58,1.04,1.37,1.04,2.38,0,.66-.16,1.24-.47,1.72-.32.48-.76.85-1.34,1.11,0,0-.01,0-.02,0l2,2.87h-2.24ZM1738.27,975.6h-69.88v-49.82c0-4.28,3.48-7.76,7.76-7.76h54.37c4.28,0,7.76,3.48,7.76,7.76v49.82Z"/>
      </g>
      <g>
        <path class="cls-4" d="M1543.33,927.15h-17.66v43.52h7.4v-16.19h10.26c7.53,0,13.66-6.13,13.66-13.66s-6.13-13.66-13.66-13.66ZM1543.33,947.07h-10.26v-12.53h10.26c3.46,0,6.27,2.81,6.27,6.27s-2.81,6.27-6.27,6.27Z"/>
        <path class="cls-4" d="M1535.17,982.59h-1.69v3.12h1.69c.64,0,1.12-.14,1.43-.42.32-.28.47-.66.47-1.14s-.16-.88-.47-1.15-.79-.41-1.43-.41Z"/>
        <path class="cls-4" d="M1537.22,994.9h-1.69v3.12h1.69c.64,0,1.12-.14,1.43-.42.32-.28.47-.66.47-1.14s-.16-.88-.47-1.15-.79-.41-1.43-.41Z"/>
        <polygon class="cls-4" points="1526.07 998.67 1528.91 998.67 1527.49 995.25 1526.07 998.67"/>
        <path class="cls-4" d="M1518.65,994.9h-1.69v3.11h1.69c.64,0,1.12-.14,1.43-.41.32-.27.47-.65.47-1.14s-.16-.88-.47-1.15c-.31-.27-.79-.41-1.43-.41Z"/>
        <polygon class="cls-4" points="1525.44 982.94 1524.02 986.36 1526.86 986.36 1525.44 982.94"/>
        <polygon class="cls-4" points="1551.78 986.36 1554.62 986.36 1553.21 982.94 1551.78 986.36"/>
        <path class="cls-4" d="M1560.27,994.9h-1.69v3.12h1.69c.64,0,1.12-.14,1.43-.42.32-.28.47-.66.47-1.14s-.16-.88-.47-1.15c-.32-.27-.79-.41-1.43-.41Z"/>
        <path class="cls-4" d="M1566.85,916.99h-54.37c-4.86,0-8.8,3.94-8.8,8.8v73.11c0,.3.02.6.05.9.06.59.18,1.17.35,1.72.34,1.1.9,2.11,1.61,2.98.36.43.76.83,1.19,1.19,1.52,1.26,3.47,2.01,5.6,2.01h54.37c1.52,0,2.95-.38,4.2-1.06.62-.34,1.18-.75,1.7-1.22.21-.19.41-.39.6-.6,1.43-1.56,2.31-3.64,2.31-5.93v-23.3s0-49.82,0-49.82c0-4.86-3.94-8.8-8.8-8.8ZM1520.83,999.3c-.58.26-1.27.39-2.07.39h-1.8v2.47h-2.07v-8.95h3.87c.8,0,1.49.13,2.07.39.58.26,1.03.63,1.34,1.12.32.49.47,1.07.47,1.74s-.16,1.24-.47,1.73c-.32.49-.76.86-1.34,1.12ZM1520.44,989.85l3.99-8.95h2.05l4,8.95h-2.17l-.79-1.92h-4.15l-.8,1.92h-2.12ZM1530.36,1002.16l-.79-1.92h-4.15l-.8,1.92h-2.12l3.99-8.95h2.05l4,8.95h-2.17ZM1539.34,989.85h-2.24l-1.72-2.5s-.06,0-.1,0h-1.8v2.49h-2.07v-8.95h3.82c1.24,0,2.21.29,2.9.86.69.58,1.04,1.37,1.04,2.38,0,.67-.16,1.24-.47,1.72-.32.48-.76.85-1.34,1.11,0,0-.01,0-.02,0l2,2.87ZM1539.15,1002.16l-1.72-2.5s-.06,0-.1,0h-1.8v2.49h-2.07v-8.95h3.82c1.24,0,2.21.29,2.9.86.69.58,1.04,1.37,1.04,2.38,0,.66-.16,1.24-.47,1.72-.32.48-.76.85-1.34,1.11,0,0-.01,0-.02,0l2,2.87h-2.24ZM1547.02,984.51v1.61h-4.15v2.07h4.87v1.66h-6.93v-8.95h6.76v1.66h-4.7v1.94h4.15ZM1548.98,1002.16l-2.87-3.51-1.2,1.25v2.26h-2.06v-8.95h2.06v4.18l3.96-4.18h2.3l-3.7,3.99,3.92,4.96h-2.42ZM1554.39,1002.16h-2.07v-8.95h2.07v8.95ZM1555.28,987.94h-4.15l-.8,1.92h-2.12l3.99-8.95h2.05l4,8.95h-2.17l-.79-1.92ZM1562.2,1002.16l-1.72-2.5s-.06,0-.1,0h-1.8v2.49h-2.07v-8.95h3.82c1.24,0,2.21.29,2.9.86.69.58,1.04,1.37,1.04,2.38,0,.66-.16,1.24-.47,1.72-.32.48-.76.85-1.34,1.11,0,0-.01,0-.02,0l2,2.87h-2.24ZM1574.6,975.6h-69.88v-49.82c0-4.28,3.48-7.76,7.76-7.76h54.37c4.28,0,7.76,3.48,7.76,7.76v49.82Z"/>
      </g>
      <g>
        <path class="cls-4" d="M571.31,927.15h-17.66v43.52h7.4v-16.19h10.26c7.53,0,13.66-6.13,13.66-13.66s-6.13-13.66-13.66-13.66ZM571.31,947.07h-10.26v-12.53h10.26c3.46,0,6.27,2.81,6.27,6.27s-2.81,6.27-6.27,6.27Z"/>
        <path class="cls-4" d="M563.15,982.59h-1.69v3.12h1.69c.64,0,1.12-.14,1.43-.42.32-.28.47-.66.47-1.14s-.16-.88-.47-1.15-.79-.41-1.43-.41Z"/>
        <path class="cls-4" d="M565.2,994.9h-1.69v3.12h1.69c.64,0,1.12-.14,1.43-.42.32-.28.47-.66.47-1.14,0-.49-.16-.88-.47-1.15s-.79-.41-1.43-.41Z"/>
        <polygon class="cls-4" points="554.05 998.67 556.89 998.67 555.47 995.25 554.05 998.67"/>
        <path class="cls-4" d="M546.63,994.9h-1.69v3.11h1.69c.64,0,1.12-.14,1.43-.41.32-.27.47-.65.47-1.14s-.16-.88-.47-1.15c-.31-.27-.79-.41-1.43-.41Z"/>
        <polygon class="cls-4" points="553.42 982.94 552 986.36 554.84 986.36 553.42 982.94"/>
        <polygon class="cls-4" points="579.76 986.36 582.6 986.36 581.19 982.94 579.76 986.36"/>
        <path class="cls-4" d="M588.25,994.9h-1.69v3.12h1.69c.64,0,1.12-.14,1.43-.42.32-.28.47-.66.47-1.14s-.16-.88-.47-1.15c-.32-.27-.79-.41-1.43-.41Z"/>
        <path class="cls-4" d="M594.83,916.99h-54.37c-4.86,0-8.8,3.94-8.8,8.8v73.11c0,.3.02.6.05.9.06.59.18,1.17.35,1.72.34,1.1.9,2.11,1.61,2.98.36.43.76.83,1.19,1.19,1.52,1.26,3.47,2.01,5.6,2.01h54.37c1.52,0,2.95-.38,4.2-1.06.62-.34,1.18-.75,1.7-1.22.21-.19.41-.39.6-.6,1.43-1.56,2.31-3.64,2.31-5.93v-23.3s0-49.82,0-49.82c0-4.86-3.94-8.8-8.8-8.8ZM548.81,999.3c-.58.26-1.27.39-2.07.39h-1.8v2.47h-2.07v-8.95h3.87c.8,0,1.49.13,2.07.39.58.26,1.03.63,1.34,1.12.32.49.47,1.07.47,1.74s-.16,1.24-.47,1.73c-.32.49-.76.86-1.34,1.12ZM548.42,989.85l3.99-8.95h2.05l4,8.95h-2.17l-.79-1.92h-4.15l-.8,1.92h-2.12ZM558.34,1002.16l-.79-1.92h-4.15l-.8,1.92h-2.12l3.99-8.95h2.05l4,8.95h-2.17ZM567.32,989.85h-2.24l-1.72-2.5s-.06,0-.1,0h-1.8v2.49h-2.07v-8.95h3.82c1.24,0,2.21.29,2.9.86.69.58,1.04,1.37,1.04,2.38,0,.67-.16,1.24-.47,1.72-.32.48-.76.85-1.34,1.11,0,0-.01,0-.02,0l2,2.87ZM567.13,1002.16l-1.72-2.5s-.06,0-.1,0h-1.8v2.49h-2.07v-8.95h3.82c1.24,0,2.21.29,2.9.86.69.58,1.04,1.37,1.04,2.38,0,.66-.16,1.24-.47,1.72-.32.48-.76.85-1.34,1.11,0,0-.01,0-.02,0l2,2.87h-2.24ZM575,984.51v1.61h-4.15v2.07h4.87v1.66h-6.93v-8.95h6.76v1.66h-4.7v1.94h4.15ZM576.96,1002.16l-2.87-3.51-1.2,1.25v2.26h-2.06v-8.95h2.06v4.18l3.96-4.18h2.3l-3.7,3.99,3.92,4.96h-2.42ZM582.37,1002.16h-2.07v-8.95h2.07v8.95ZM583.26,987.94h-4.15l-.8,1.92h-2.12l3.99-8.95h2.05l4,8.95h-2.17l-.79-1.92ZM590.18,1002.16l-1.72-2.5s-.06,0-.1,0h-1.8v2.49h-2.07v-8.95h3.82c1.24,0,2.21.29,2.9.86.69.58,1.04,1.37,1.04,2.38,0,.66-.16,1.24-.47,1.72-.32.48-.76.85-1.34,1.11,0,0-.01,0-.02,0l2,2.87h-2.24ZM602.59,975.6h-69.88v-49.82c0-4.28,3.48-7.76,7.76-7.76h54.37c4.28,0,7.76,3.48,7.76,7.76v49.82Z"/>
      </g>
    </g>
    <g>
      <line class="cls-7" x1="162.2" y1="1135.37" x2="162.2" y2="810.98"/>
      <line class="cls-7" x1="324.39" y1="1135.37" x2="324.39" y2="810.98"/>
      <line class="cls-7" x1="486.59" y1="1135.37" x2="486.59" y2="810.98"/>
      <line class="cls-7" x1="648.78" y1="1135.37" x2="648.78" y2="810.98"/>
      <line class="cls-7" x1="810.98" y1="1135.37" x2="810.98" y2="810.98"/>
      <line class="cls-7" x1="973.17" y1="1135.37" x2="973.17" y2="810.98"/>
      <line class="cls-7" x1="1135.37" y1="1135.37" x2="1135.37" y2="810.98"/>
      <line class="cls-7" x1="1297.57" y1="1135.37" x2="1297.57" y2="810.98"/>
      <line class="cls-7" x1="1459.76" y1="1135.37" x2="1459.76" y2="810.98"/>
      <line class="cls-7" x1="1621.96" y1="1135.37" x2="1621.96" y2="810.98"/>
      <line class="cls-7" x1="1784.15" y1="1135.37" x2="1784.15" y2="810.98"/>
    </g>
  </g>
</svg>