<?xml version="1.0" encoding="UTF-8"?>
<svg id="Layer_2" data-name="Layer 2" xmlns="http://www.w3.org/2000/svg" viewBox="0 0 137.88 250.35">
  <defs>
    <style>
      .cls-1 {
        fill: #383a37;
      }

      .cls-2 {
        fill: #e9fff0;
      }

      .cls-3 {
        fill: #f48603;
      }

      .cls-4 {
        fill: #fff;
      }

      .cls-5 {
        fill: #f05a22;
      }

      .cls-6 {
        fill: #2f302a;
      }

      .cls-7 {
        fill: #b7121a;
      }

      .cls-8 {
        fill: #bad0da;
      }

      .cls-9 {
        fill: #383839;
      }

      .cls-10 {
        fill: #fca22d;
      }

      .cls-11 {
        fill: #40413c;
      }

      .cls-12 {
        fill: #ffc176;
      }
    </style>
  </defs>
  <g id="Layer_1-2" data-name="Layer 1">
    <g>
      <g>
        <g>
          <path class="cls-3" d="M68.92,250.35c-7.05,0-14.51-.03-21.39-.31-1.36-.06-2.56-.12-3.74-.19l-.26-.02c-1.16-.08-2.19-.14-3.2-.22l-.56-.04c-1.08-.09-2.13-.19-3.17-.3l-.56-.06c-.9-.11-1.77-.21-2.62-.33l-.57-.08c-.96-.14-1.89-.29-2.8-.46l-.6-.12c-.77-.15-1.53-.31-2.26-.48l-.51-.12c-.85-.2-1.66-.42-2.44-.65l-.56-.18c-.68-.21-1.33-.44-1.97-.68l-.41-.15c-.71-.28-1.4-.58-2.06-.91l-.37-.19c-.69-.35-1.25-.68-1.77-1.01l-.25-.16c-.56-.37-1.1-.78-1.66-1.25,0,0-.4-.36-.44-.41l-.05.04-1.18-1.28-.03-.05s-.07-.07-.1-.11c-.37-.44-.73-.95-1.09-1.55l1.31-1.02-1.41.84-.13-.24c-.33-.61-.58-1.15-.79-1.7-.3-.81-.47-1.5-.61-2.28-.01-.04-.05-.27-.05-.27l-.02-.18c-.12-.8-.18-1.53-.18-2.24V30.9c0-.64.05-1.27.12-1.9.02-.14.08-.59.08-.59.07-.43.14-.86.24-1.3.05-.22.1-.43.17-.65.11-.41.24-.84.39-1.26l.2-.56c.23-.6.48-1.18.77-1.77.29-.58.62-1.15.98-1.72.07-.12.33-.5.33-.5.26-.4.53-.79.83-1.18.13-.18.27-.36.41-.54.3-.39.62-.77.95-1.15l.41-.46c.95-1.03,2.01-2.04,3.18-3.01l.49-.39c.43-.34.88-.69,1.34-1.03l.59-.43c.47-.34.96-.66,1.45-.99l.55-.36c.41-.26.84-.51,1.27-.77l.47-.28c.37-.22.76-.42,1.14-.64l.68-.37,1.21-.62.69-.34c.36-.17,1.52-.71,1.52-.71l1.54-.67,2.06-.83c.4-.15.81-.3,1.21-.44C45.61,1.86,57.04,0,68.92,0s23.18,1.83,32.9,5.3c.52.18,1.03.37,1.54.56l2.06.83c.23.1.46.2.69.3h.05l.35.18.43.18,1.7.8.91.45.8.42.71.38c.38.2.75.41,1.12.62l.42.25c.5.3.92.55,1.33.8l.57.37c.49.32.97.64,1.43.97l.62.45c.46.33.89.68,1.32,1.02l.5.4c1.16.97,2.23,1.98,3.17,3.01l.42.47c.33.37.65.75.94,1.13.14.18.29.36.42.55.29.39.56.78.82,1.17l.33.51c.35.57.68,1.14.97,1.72.29.59.54,1.18.77,1.77l.2.56c.14.43.28.86.39,1.28.05.21.11.42.16.64.1.43.18.86.24,1.3,0,0,.07.46.08.6.07.62.11,1.26.11,1.9v201.1c0,.72-.06,1.44-.18,2.27,0,.07-.03.3-.03.3l-.03.15c-.14.74-.31,1.44-.55,2.08l-.07.18c-.2.54-.45,1.08-.76,1.64-.06.12-.16.3-.16.3l-.08.13c-.38.61-.74,1.13-1.13,1.6l-1.26,1.45-.08-.07s-.45.41-.45.41c-.54.46-1.09.87-1.65,1.25l-.2.13c-.59.37-1.14.69-1.72.99l-.48.25c-.64.32-1.33.63-2.05.91l-.27.11c-.77.29-1.42.51-2.09.72l-.57.19c-.78.23-1.58.45-2.42.65l-.52.12c-.73.17-1.48.33-2.25.48l-.62.12c-.9.16-1.83.32-2.79.45l-.57.08c-.86.12-1.72.22-2.62.33l-.56.06c-1.04.12-2.09.21-3.17.3l-.56.05c-1.01.08-2.03.15-3.08.22l-.23.02c-1.33.08-2.53.14-3.75.19-7.03.28-14.48.31-21.53.31Z"/>
          <g>
            <g>
              <rect class="cls-3" x="7.74" y="187.95" width="5.41" height="41.95"/>
              <g>
                <rect class="cls-10" x="7.74" y="196.28" width="5.41" height="25.28"/>
                <rect class="cls-12" x="7.74" y="202.03" width="5.41" height="13.79"/>
              </g>
            </g>
            <g>
              <rect class="cls-3" x="124.7" y="187.95" width="5.4" height="41.95"/>
              <g>
                <rect class="cls-10" x="124.7" y="196.28" width="5.4" height="25.28"/>
                <rect class="cls-12" x="124.7" y="202.03" width="5.4" height="13.79"/>
              </g>
            </g>
          </g>
          <g>
            <rect class="cls-3" x="7.74" y="31.24" width="5.41" height="41.95"/>
            <g>
              <rect class="cls-10" x="7.74" y="39.57" width="5.41" height="25.29"/>
              <rect class="cls-12" x="7.74" y="45.32" width="5.41" height="13.8"/>
            </g>
          </g>
          <g>
            <rect class="cls-3" x="124.7" y="31.24" width="5.4" height="41.95"/>
            <g>
              <rect class="cls-10" x="124.7" y="39.57" width="5.4" height="25.29"/>
              <rect class="cls-12" x="124.7" y="45.32" width="5.4" height="13.8"/>
            </g>
          </g>
          <g>
            <g>
              <path class="cls-10" d="M12.09,174.69v57.3c0,16.15,25.44,16.71,56.83,16.71s56.83-.56,56.83-16.71v-57.3H12.09Z"/>
              <path class="cls-10" d="M68.92,244.69c1.62,0,3.23,0,4.81,0,1.55,0,3.09,0,4.6,0h0c11.77,0,22.99-.14,30.94-1.87,8.5-1.85,12.46-5.29,12.46-10.83v-29.85l-105.63-.29v30.14c0,11.8,17.99,12.71,43.4,12.71,1.51,0,3.05,0,4.6,0,1.58,0,3.19,0,4.81,0Z"/>
              <path class="cls-12" d="M78.34,245.21h0c-1.52,0-3.05,0-4.6,0-3.18,0-6.45,0-9.62,0-1.55,0-3.09,0-4.6,0-25.71,0-43.9-.95-43.9-13.21v-30.39c0-.06.03-.13.07-.18.05-.05.11-.07.18-.07h0l106.13.29c.14,0,.25.12.25.25v30.1c0,5.83-4.08,9.42-12.85,11.33-8,1.74-19.25,1.88-31.05,1.88ZM68.92,244.69c1.62,0,3.23,0,4.81,0,1.55,0,3.09,0,4.6,0h0c11.77,0,22.99-.14,30.94-1.87,8.5-1.85,12.46-5.29,12.46-10.83v-29.85l-105.63-.29v30.14c0,11.8,17.99,12.71,43.4,12.71,1.51,0,3.05,0,4.6,0,1.58,0,3.19,0,4.81,0Z"/>
              <g>
                <g>
                  <path class="cls-10" d="M68.92,1.65C37.54,1.65,12.1,14.74,12.1,30.9v44.76h113.66V30.9c0-16.16-25.44-29.25-56.83-29.25Z"/>
                  <path class="cls-12" d="M121.99,72.14H15.85c-.14,0-.25-.11-.25-.25V30.9c0-13.95,24.42-25.74,53.32-25.74s53.32,11.79,53.32,25.74v40.99c0,.14-.11.25-.25.25ZM16.11,71.64h105.63V30.9c0-13.68-24.19-25.24-52.82-25.24S16.11,17.22,16.11,30.9v40.75h0Z"/>
                </g>
                <rect class="cls-10" x="12.09" y="75.65" width="113.66" height="102.71"/>
                <g>
                  <path class="cls-11" d="M21.25,137.94l-6.18-1.25v47.24s4.1-9.86,6.18-15.38v-30.6Z"/>
                  <path class="cls-6" d="M16.33,138.22l3.67.75v29.35c-1,2.64-2.44,6.24-3.67,9.26v-39.35M15.08,136.69v47.24s4.1-9.86,6.18-15.38v-30.6l-6.18-1.25h0Z"/>
                  <path class="cls-11" d="M116.59,137.94l6.18-1.25v47.24s-4.1-9.86-6.18-15.38v-30.6Z"/>
                  <path class="cls-6" d="M121.52,138.22v39.35c-1.23-3.02-2.67-6.62-3.67-9.26v-29.35l3.67-.75M122.77,136.69l-6.18,1.25v30.61c2.08,5.52,6.18,15.38,6.18,15.38v-47.24h0Z"/>
                  <g>
                    <polygon class="cls-11" points="116.59 104.82 122.77 85.52 122.77 154.28 116.59 155.53 116.59 104.82"/>
                    <path class="cls-6" d="M121.52,93.55v59.7l-3.67.74v-48.98l3.67-11.47M122.77,85.52l-6.18,19.3v50.72l6.18-1.25v-68.77h0Z"/>
                  </g>
                  <g>
                    <polygon class="cls-11" points="21.25 104.82 15.08 85.52 15.08 154.28 21.25 155.53 21.25 104.82"/>
                    <path class="cls-6" d="M16.33,93.55l3.67,11.47v48.98l-3.67-.74v-59.7M15.08,85.52v68.77l6.18,1.25v-50.72l-6.18-19.3h0Z"/>
                  </g>
                </g>
                <path class="cls-11" d="M69.01,59.05c-29.42,0-53.31,5.82-53.69,13.06-.01.06-.01.11-.01.18,0,.23.03.45.08.68,0,.02,0,.05,0,.06l.23.7,9.74,29.97c5.95-2.55,23.2-4.38,43.56-4.38s37.6,1.83,43.56,4.38l9.48-29.19.77-2.33v-.02c-.25-7.26-24.19-13.11-53.71-13.11Z"/>
                <path class="cls-6" d="M69.01,60.31c30.37,0,51.85,6.15,52.45,11.71l-.69,2.11-9.08,27.94c-7.17-2.41-23.92-3.99-42.77-3.99s-35.6,1.59-42.77,3.99l-9.34-28.72-.2-.64s0,0,0-.01c-.03-.13-.04-.26-.05-.41,0-.03,0-.07.01-.11.29-5.61,21.9-11.87,52.44-11.87M69.01,59.05c-29.42,0-53.31,5.82-53.69,13.06-.01.06-.01.11-.01.18,0,.23.03.45.08.68,0,.02,0,.05,0,.06l.23.7,9.74,29.97c5.95-2.55,23.2-4.38,43.56-4.38s37.6,1.83,43.56,4.38l9.48-29.19.77-2.33v-.02c-.25-7.26-24.19-13.11-53.71-13.11h0Z"/>
                <path class="cls-11" d="M69.02,212.95c29.43,0,53.32-5.82,53.69-13.06.02-.06.02-.11.02-.18,0-.22-.03-.45-.07-.67,0-.02,0-.05-.02-.07l-.23-.7-9.74-29.98c-5.95,2.55-23.2,4.38-43.56,4.38s-37.59-1.83-43.55-4.38l-9.48,29.19-.76,2.33h0c.25,7.28,24.2,13.13,53.71,13.13Z"/>
                <path class="cls-6" d="M26.34,169.94c7.16,2.41,23.92,4,42.76,4s35.61-1.59,42.77-4l9.33,28.72.21.64s0,.01,0,.02c.03.13.04.25.04.4,0,.04,0,.07-.02.11-.29,5.61-21.9,11.87-52.43,11.87s-51.84-6.16-52.45-11.71l.69-2.11,9.08-27.94M25.56,168.3l-9.48,29.19-.76,2.33h0c.25,7.28,24.19,13.13,53.71,13.13s53.32-5.82,53.69-13.06c.02-.06.02-.11.02-.18,0-.22-.03-.45-.07-.67,0-.02,0-.05-.02-.07l-.23-.7-9.74-29.98c-5.95,2.55-23.2,4.38-43.56,4.38-20.35,0-37.59-1.83-43.55-4.38h0Z"/>
              </g>
              <path class="cls-11" d="M15.31,199.82l.55-1.68v3.46c-.34-.57-.53-1.18-.55-1.77h0Z"/>
              <path class="cls-10" d="M112.83,167.46v-63.24l.1-.32c-5.5-2.65-23.12-4.58-44.01-4.58s-38.52,1.93-44.01,4.58l.1.32v64.66l-.1.33c5.49,2.65,23.11,4.58,44.01,4.58s38.51-1.93,44.01-4.58l-.1-.33v-1.42Z"/>
              <path class="cls-3" d="M68.92,170.27c-19.43,0-34.13-1.64-40.38-3.47v-60.47c6.25-1.83,20.95-3.47,40.38-3.47s34.13,1.64,40.38,3.47v60.47c-6.25,1.83-20.95,3.47-40.38,3.47Z"/>
              <path class="cls-1" d="M123.22,22.27l-2.74,2.73c-.14-.28-.3-.56-.48-.84-.03-.09-.09-.18-.16-.27-.06-.09-.11-.17-.16-.27-.18-.27-.35-.53-.53-.78-.25-.34-.48-.66-.74-.97-.21-.25-.42-.51-.65-.76-.12-.14-.25-.26-.37-.41-.28-.3-.58-.6-.88-.88-.34-.33-.69-.65-1.04-.96-.01,0-.03-.02-.03-.02-.37-.34-.77-.67-1.18-.97-1.1-.87-2.28-1.7-3.56-2.49-.09-.05-.18-.1-.27-.16-.05-.03-.11-.07-.17-.11-.41-.24-.85-.49-1.28-.72-.49-.28-1-.57-1.51-.81-.48-.25-.96-.5-1.47-.73-.55-.26-1.12-.53-1.69-.78-1.15-.49-2.33-.97-3.55-1.41v-.02c-8.93-3.28-20-5.24-31.83-5.24s-22.89,1.96-31.83,5.24v.02c-1.22.44-2.4.92-3.55,1.41-.58.25-1.15.51-1.69.78-.51.23-.99.48-1.47.73-.51.24-1.02.53-1.52.81-.43.23-.86.48-1.27.72-.07.03-.12.07-.17.11-.09.05-.18.11-.27.16-1.28.79-2.47,1.62-3.57,2.49-.41.3-.81.63-1.18.97,0,0-.02.02-.03.02-.35.31-.71.63-1.04.96-.3.29-.6.58-.88.88-.12.14-.25.27-.37.41-.23.25-.44.51-.65.76-.27.32-.49.64-.74.97-.18.24-.35.51-.53.78-.05.09-.1.17-.15.27-.07.08-.13.18-.16.27-.17.29-.34.56-.48.84l-2.74-2.73c.23-.41.49-.79.76-1.2.27-.39.56-.78.86-1.16.27-.36.57-.71.87-1.04.03-.04.05-.08.08-.11h.02s.07-.07.08-.11c.64-.73,1.34-1.43,2.1-2.1.3-.28.62-.56.95-.83.09-.08.2-.16.29-.24.31-.26.62-.52.95-.77.55-.43,1.12-.86,1.73-1.27.48-.34.97-.66,1.46-.97.51-.32,1.02-.63,1.56-.93.26-.16.53-.3.79-.46.28-.16.55-.3.83-.44,0,0,0-.02.02-.02.46-.23.91-.5,1.39-.73.09-.06.18-.09.27-.14.13-.07.27-.12.39-.18.41-.2.81-.39,1.22-.58.05-.02.1-.06.16-.07.6-.27,1.22-.53,1.83-.79.32-.12.62-.25.93-.37.51-.23,1.04-.42,1.59-.62.44-.16.86-.32,1.32-.47,9.07-3.18,20.03-5.01,31.83-5.01s22.75,1.83,31.83,5.01c.46.16.88.32,1.32.47.55.2,1.08.39,1.59.62.32.12.62.25.94.37.62.26,1.23.53,1.83.79.05.02.1.05.16.07.41.19.81.38,1.22.58.13.05.27.1.39.18.09.05.18.08.27.14.47.22.93.5,1.39.73.02,0,.02.02.02.02.28.14.55.29.83.44.26.16.53.3.79.46.53.3,1.05.62,1.56.93.49.32.99.64,1.46.97.6.41,1.17.83,1.73,1.27.32.25.64.51.93.78.11.07.21.14.3.23.34.27.65.55.95.83.21.16.39.34.58.53.19.18.37.37.57.56.33.34.63.67.95,1.01.02.03.05.07.09.11h.02s.05.07.09.11c.3.33.6.68.86,1.04.3.38.6.77.86,1.16.27.41.53.79.76,1.2Z"/>
            </g>
            <path class="cls-9" d="M39.04,58.09c0,.54-.43.97-.97.97s-.96-.43-.96-.97.43-.97.96-.97.97.44.97.97Z"/>
            <path class="cls-9" d="M101.72,58.09c0,.54-.43.97-.97.97s-.97-.43-.97-.97.43-.97.97-.97.97.44.97.97Z"/>
            <rect class="cls-4" x="51.15" y=".31" width="35.54" height="2.63"/>
            <rect class="cls-4" x="51.15" y="247.39" width="35.54" height="2.63"/>
            <g>
              <path class="cls-7" d="M118.68,243.15c-6.28,3.45-16.33,4.75-28.44,5.25v-3.55c11.17-.29,20.45-1.18,26-4.13l2.43,2.43Z"/>
              <path class="cls-7" d="M47.6,244.85v3.55c-12.11-.49-22.15-1.8-28.44-5.25l2.43-2.43c5.56,2.95,14.83,3.85,26,4.13Z"/>
            </g>
          </g>
          <path class="cls-10" d="M123.01,77.86v6.66l2.09-1.11,12.55,1.11s1.14-3.15-1.71-4.63c-2.85-1.48-9.7-.74-9.7-.74l-3.23-1.3Z"/>
          <path class="cls-10" d="M14.87,77.86v6.66l-2.09-1.11-12.55,1.11s-1.14-3.15,1.71-4.63c2.85-1.48,9.7-.74,9.7-.74l3.23-1.3Z"/>
        </g>
        <path class="cls-8" d="M123.22,22.27l-2.74,2.73c-.14-.28-.3-.56-.48-.84-.05-.09-.09-.18-.16-.27-.06-.09-.11-.17-.16-.27-.18-.27-.35-.53-.53-.78-.25-.34-.48-.66-.74-.97-.21-.25-.42-.51-.65-.76-.12-.14-.25-.26-.37-.41-.28-.3-.58-.6-.88-.88-.34-.32-.69-.65-1.04-.96-.01,0-.03-.02-.03-.02-.39-.34-.77-.65-1.18-.97-.46-.37-.96-.73-1.46-1.08-.14-.1-.29-.21-.43-.32-.55-.37-1.09-.74-1.67-1.09-.09-.05-.18-.1-.27-.16-.05-.03-.11-.07-.17-.11-.88-.51-1.82-1.02-2.77-1.52l-.02-.02c-.48-.25-.97-.47-1.47-.73-.39-.19-.78-.37-1.18-.54h-.02c-.16-.08-.34-.16-.5-.23-.99-.42-2.01-.85-3.05-1.22-.16-.07-.34-.14-.49-.19v-4.01c.46.16.88.32,1.32.47.21.09.42.16.64.25.32.1.63.24.95.37.32.12.62.25.94.37.16.07.34.14.49.21h.02c.44.19.88.39,1.33.58.05.02.1.05.16.07.41.19.81.38,1.22.58.13.05.27.1.39.18.09.05.18.08.27.14.47.22.93.5,1.39.73.02,0,.02.02.02.02.28.14.55.29.83.44.26.16.53.3.79.46.14.09.29.16.43.27.39.21.76.44,1.13.67.49.32.99.64,1.46.97,1.07.72,2.05,1.48,2.97,2.28.34.27.65.55.95.83.39.35.78.72,1.15,1.09.33.34.63.67.95,1.01.02.03.05.07.09.11,1.01,1.12,1.87,2.3,2.6,3.51Z"/>
        <path class="cls-8" d="M37.1,6.67v4.01c-.15.05-.34.13-.49.19-1.05.37-2.07.8-3.06,1.22-.16.07-.34.14-.49.23h-.02c-.41.18-.8.35-1.18.54-.5.25-.99.48-1.47.73l-.02.02c-.95.49-1.89,1.01-2.77,1.52-.07.03-.12.07-.17.11-.09.05-.18.11-.27.16-.58.35-1.13.73-1.68,1.09-.14.11-.28.22-.42.32-.51.35-1.01.71-1.46,1.08-.41.32-.79.63-1.18.97,0,0-.02.02-.03.02-.35.31-.71.65-1.04.96-.3.29-.6.58-.88.88-.12.14-.25.27-.37.41-.23.25-.44.51-.65.76-.27.32-.49.64-.74.97-.18.24-.35.51-.53.78-.05.09-.1.17-.15.27-.07.08-.1.18-.16.27-.17.29-.34.56-.48.84l-2.74-2.73c.73-1.2,1.59-2.38,2.6-3.51.03-.03.07-.07.08-.11.32-.33.62-.67.96-1.01.37-.37.76-.74,1.15-1.09.3-.28.62-.56.95-.83.92-.79,1.91-1.55,2.97-2.28.48-.34.97-.66,1.46-.97.37-.23.74-.46,1.13-.67.14-.11.28-.18.42-.27.26-.16.53-.3.79-.46.28-.16.55-.3.83-.44,0,0,0-.02.02-.02.46-.23.91-.5,1.39-.73.09-.06.18-.09.27-.14.13-.07.27-.12.39-.18.41-.2.81-.39,1.22-.58.05-.02.1-.06.16-.07.44-.19.88-.39,1.32-.58h.02c.16-.07.34-.14.49-.21.32-.12.62-.25.93-.37.32-.13.64-.27.95-.37.21-.09.42-.16.64-.25.43-.15.86-.31,1.32-.47Z"/>
        <path class="cls-5" d="M16.18,20.04c-.57.73-1.1,1.48-1.56,2.23l2.74,2.73c.14-.28.3-.56.48-.84.06-.09.09-.18.16-.27.05-.09.1-.17.15-.27.18-.27.35-.53.53-.78.05-.06.09-.12.13-.18l-2.64-2.64Z"/>
        <path class="cls-5" d="M121.66,20.04c.57.73,1.1,1.48,1.55,2.23l-2.74,2.73c-.14-.28-.3-.56-.48-.84-.05-.09-.09-.18-.16-.27-.06-.09-.11-.17-.16-.27-.18-.27-.35-.53-.53-.78-.05-.06-.09-.12-.13-.18l2.64-2.64Z"/>
        <g>
          <path class="cls-2" d="M47.6,244.85v3.55c-12.11-.49-22.15-1.8-28.44-5.25l2.43-2.43c5.56,2.95,14.83,3.85,26,4.13Z"/>
          <path class="cls-2" d="M118.68,243.15c-6.28,3.45-16.33,4.75-28.44,5.25v-3.55c11.17-.29,20.45-1.18,26-4.13l2.43,2.43Z"/>
        </g>
        <path class="cls-10" d="M115.29,242.62c-5.36,2.84-14.28,3.7-25.05,3.98v1.79c10.95-.45,20.18-1.58,26.5-4.33l-1.45-1.45Z"/>
        <path class="cls-10" d="M22.55,242.62c5.36,2.84,14.29,3.7,25.05,3.98v1.79c-10.95-.45-20.18-1.58-26.49-4.33l1.44-1.45Z"/>
      </g>
      <path class="cls-12" d="M94.29,152.13h-50.75c-5.57,0-10.11-4.54-10.11-10.11v-10.93c0-5.57,4.53-10.11,10.11-10.11h50.75c5.58,0,10.11,4.54,10.11,10.11v10.93c0,5.57-4.53,10.11-10.11,10.11ZM43.55,121.87c-5.09,0-9.22,4.13-9.22,9.22v10.93c0,5.09,4.14,9.23,9.22,9.23h50.75c5.09,0,9.23-4.14,9.23-9.23v-10.93c0-5.09-4.14-9.22-9.23-9.22h-50.75Z"/>
      <path class="cls-12" d="M81.64,30.77v17.83c-.9-.06-1.79-.11-2.65-.14v-15.77c-2.38-.7-5.72-1.34-9.92-1.34-3.53,0-6.92.46-9.92,1.34v15.77c-.87.03-1.77.08-2.65.14v-17.83c3.42-1.25,7.73-2.06,12.57-2.06,4.82,0,9.14.81,12.57,2.06Z"/>
      <path class="cls-3" d="M131.19,222.97h0s0,0,0,0c-40.01,10.94-82.22,10.94-122.23,0h0v13.91h0c.56.15,1.12.27,1.67.41,1.47.37,2.94.74,4.41,1.07h0c36.21,8.35,73.86,8.35,110.07-.01v.02c1.61-.36,3.21-.76,4.8-1.17.42-.11.85-.2,1.26-.31h0v-13.91h0Z"/>
      <g>
        <g>
          <path class="cls-12" d="M130.32,223.84v13.91c-40.08,10.34-82.15,10.34-122.23,0v-13.91c40.01,10.94,82.22,10.94,122.23,0Z"/>
          <path class="cls-10" d="M69.21,243.74c-20,0-39.96-2.47-59.35-7.36v-10.25c19.36,5.09,39.32,7.67,59.35,7.67s39.98-2.58,59.35-7.67v10.25c-19.39,4.88-39.35,7.36-59.35,7.36Z"/>
          <path class="cls-3" d="M14.17,225.41v13.82c-2.03-.46-4.06-.96-6.09-1.48v-13.91c2.03.55,4.04,1.07,6.09,1.57Z"/>
          <path class="cls-3" d="M130.33,223.84v13.91c-2.01.53-4.04,1.02-6.07,1.48v-13.82c2.03-.49,4.06-1.02,6.07-1.57Z"/>
        </g>
        <path class="cls-10" d="M127.97,224.45c.78-.21,1.57-.4,2.36-.61v13.91c-.79.2-1.57.38-2.36.57v-13.87Z"/>
        <path class="cls-10" d="M10.45,224.45c-.78-.21-1.57-.4-2.36-.61v13.91c.79.2,1.58.38,2.36.57v-13.87Z"/>
      </g>
    </g>
  </g>
</svg>