<?xml version="1.0" encoding="UTF-8"?>
<svg id="Layer_2" data-name="Layer 2" xmlns="http://www.w3.org/2000/svg" viewBox="0 0 156.38 156.38">
  <defs>
    <style>
      .cls-1 {
        fill: #fff;
      }

      .cls-2 {
        fill: #cef848;
      }

      .cls-3 {
        fill: #287100;
      }

      .cls-4 {
        fill: #8ac900;
      }

      .cls-5 {
        fill: #4fb000;
      }
    </style>
  </defs>
  <g id="Layer_1-2" data-name="Layer 1">
    <g>
      <g>
        <circle class="cls-4" cx="78.19" cy="78.19" r="78.19" transform="translate(-15.87 136.32) rotate(-76.72)"/>
        <circle class="cls-4" cx="78.19" cy="78.19" r="73.81" transform="translate(-32.39 78.19) rotate(-45)"/>
        <path class="cls-5" d="M105.05,97.02c-28.08-1.79-50.9-24.37-53.02-52.42-.18-2.38-.21-4.73-.1-7.04.31-6.5-7.19-10.37-12.22-6.24-14.31,11.76-23.14,29.93-22.09,50.13,1.62,31,26.99,56.08,58.01,57.35,24.64,1.01,46.19-12.68,56.58-33.03,2.94-5.75-2.44-12.24-8.68-10.56-5.84,1.57-12.05,2.23-18.48,1.82Z"/>
        <ellipse class="cls-2" cx="101.58" cy="48.92" rx="23.39" ry="39.09" transform="translate(.13 98.11) rotate(-51.58)"/>
        <path class="cls-3" d="M78.19,0C35.01,0,0,35.01,0,78.19s35.01,78.19,78.19,78.19,78.19-35.01,78.19-78.19S121.37,0,78.19,0ZM78.19,144.73c-36.75,0-66.54-29.79-66.54-66.54S41.44,11.65,78.19,11.65s66.54,29.79,66.54,66.54-29.79,66.54-66.54,66.54Z"/>
      </g>
      <polygon class="cls-3" points="53.43 30.91 123.03 78.19 53.43 125.47 53.43 30.91"/>
      <polygon class="cls-1" points="60.46 44.19 60.46 112.19 110.51 78.19 60.46 44.19"/>
    </g>
  </g>
</svg>