<?xml version="1.0" encoding="UTF-8"?>
<svg id="Layer_2" data-name="Layer 2" xmlns="http://www.w3.org/2000/svg" viewBox="0 0 119.61 426.67">
  <defs>
    <style>
      .cls-1 {
        fill: #1f934e;
      }

      .cls-2 {
        fill: #fff;
      }

      .cls-3 {
        fill: #f05a22;
      }

      .cls-4 {
        fill: #e2e0c9;
      }

      .cls-5 {
        fill: #108643;
      }

      .cls-6 {
        fill: #bad0da;
      }

      .cls-7 {
        fill: #cecdb6;
      }

      .cls-8 {
        fill: #40413c;
      }

      .cls-9 {
        fill: #096830;
      }
    </style>
  </defs>
  <g id="Layer_1-2" data-name="Layer 1">
    <g>
      <g>
        <path class="cls-8" d="M88.42,4.41c0,2.37-1.74,4.3-3.88,4.3h-49.12c-2.14,0-3.88-1.92-3.88-4.3h0c0-2.37,1.74-4.3,3.88-4.3h49.12c2.14,0,3.88,1.92,3.88,4.3h0Z"/>
        <path class="cls-5" d="M98.46,20.72c-2.4-5.31-10.57-17.06-14.9-17.82-3.21-.56-16.37-.29-22.93-.11-6.81-.18-20.49-.45-23.83.11-4.5.76-12.99,12.51-15.49,17.82-2.5,5.31-4,53.08-4,53.08h84.99s-1.44-47.77-3.85-53.08Z"/>
        <path class="cls-1" d="M59.81,6.43s-17.15-.86-20.45,1.41c-3.3,2.27-15.9,34.33-15.9,34.33l36.35,1.41V6.43Z"/>
        <path class="cls-1" d="M59.81,6.43s17.15-.86,20.45,1.41c3.3,2.27,15.9,34.33,15.9,34.33l-36.35,1.41V6.43Z"/>
        <path class="cls-5" d="M96.46,73.04c0,2.51-2.42,4.55-5.4,4.55H28.55c-2.98,0-5.4-2.04-5.4-4.55v-29.36c0-2.51,2.42-4.55,5.4-4.55h62.51c2.98,0,5.4,2.04,5.4,4.55v29.36Z"/>
        <path class="cls-8" d="M93.31,76.73c0,2.51-2.24,4.55-5.01,4.55H30.27c-2.77,0-5.01-2.04-5.01-4.55v-29.36c0-2.51,2.24-4.55,5.01-4.55h58.03c2.77,0,5.01,2.04,5.01,4.55v29.36Z"/>
        <path class="cls-5" d="M102.28,67.09c-.72-9.75-19.46-17.56-42.47-17.56s-41.75,7.81-42.47,17.56h-.02v59.96h84.99v-59.96h-.02Z"/>
        <path class="cls-1" d="M96.72,68.32c-.62-8.49-16.88-15.3-36.84-15.3-.02,0-.04,0-.06,0s-.04,0-.06,0c-19.97,0-36.22,6.8-36.84,15.3h-.02v52.25h7.29v-44.84h.02c1.42-2.5,4.12-6.5,8.82-9.76,7.53-5.23,15.38-5.23,20.8-5.23s13.27,0,20.8,5.23c4.69,3.26,7.4,7.26,8.82,9.76h.02v44.84h7.29v-52.25h-.02Z"/>
        <g>
          <path class="cls-9" d="M80.49,100.34c0,2.51-2.42,4.55-5.4,4.55h-30.58c-2.98,0-5.4-2.04-5.4-4.55v-15.17c0-2.51,2.42-4.55,5.4-4.55h30.58c2.98,0,5.4,2.04,5.4,4.55v15.17Z"/>
          <path class="cls-1" d="M80.49,98.25c0,2.51-2.42,4.55-5.4,4.55h-30.58c-2.98,0-5.4-2.04-5.4-4.55v-15.17c0-2.51,2.42-4.55,5.4-4.55h30.58c2.98,0,5.4,2.04,5.4,4.55v15.17Z"/>
        </g>
      </g>
      <rect class="cls-4" x="6.33" y="127.23" width="105.9" height="299.44"/>
      <rect class="cls-7" x="6.33" y="161.74" width="105.9" height="4.44"/>
      <rect class="cls-7" x="6.33" y="207.01" width="105.9" height="4.44"/>
      <rect class="cls-7" x="6.33" y="252.28" width="105.9" height="4.44"/>
      <rect class="cls-7" x="6.33" y="297.54" width="105.9" height="4.44"/>
      <rect class="cls-7" x="6.33" y="342.81" width="105.9" height="4.44"/>
      <rect class="cls-7" x="6.33" y="388.08" width="105.9" height="4.44"/>
      <path class="cls-5" d="M22.54,46.93c-.62-3.78-3.9-6.67-7.86-6.67h-6.82c-3.96,0-7.24,2.89-7.86,6.67h22.54Z"/>
      <path class="cls-5" d="M119.61,46.93c-.62-3.78-3.9-6.67-7.86-6.67h-6.82c-3.96,0-7.24,2.89-7.86,6.67h22.54Z"/>
      <rect class="cls-2" x="44.23" width="31.15" height="1.78"/>
      <path class="cls-3" d="M38.07,3.02h-2.81c-3.04,0-5.51,2.46-5.52,5.5v.06s0,3.4,0,3.4h1.26v-2.92c0-2.6,2.11-4.71,4.71-4.71h2.37"/>
      <path class="cls-6" d="M35.62,2.56h6.29v2.69h-8.98c0-1.49,1.21-2.69,2.69-2.69Z"/>
      <path class="cls-3" d="M82.13,3.06h2.81c3.04,0,5.51,2.46,5.52,5.5v.06s0,3.4,0,3.4h-1.26v-2.92c0-2.6-2.11-4.71-4.71-4.71h-2.37"/>
      <path class="cls-6" d="M77.98,2.56h6.29c1.49,0,2.69,1.21,2.69,2.69h0s-8.98,0-8.98,0v-2.69Z"/>
    </g>
  </g>
</svg>