<?xml version="1.0" encoding="UTF-8"?>
<svg id="Layer_2" data-name="Layer 2" xmlns="http://www.w3.org/2000/svg" viewBox="0 0 111.16 111.16">
  <defs>
    <style>
      .cls-1 {
        fill: #0062e0;
      }

      .cls-2 {
        fill: #fff;
      }

      .cls-3 {
        fill: #00aeff;
      }

      .cls-4 {
        fill: #59cfff;
      }

      .cls-5 {
        fill: #0099e2;
      }

      .cls-6 {
        fill: #8ac900;
      }
    </style>
  </defs>
  <g id="Layer_1-2" data-name="Layer 1">
    <g>
      <g>
        <circle class="cls-6" cx="55.58" cy="55.58" r="55.58" transform="translate(-23.02 55.58) rotate(-45)"/>
        <circle class="cls-3" cx="55.58" cy="55.58" r="52.47" transform="translate(-17.04 25.5) rotate(-22.5)"/>
        <path class="cls-5" d="M74.67,68.96c-19.96-1.27-36.18-17.32-37.69-37.26-.13-1.69-.15-3.36-.07-5.01.22-4.62-5.11-7.37-8.69-4.44-10.17,8.36-16.45,21.28-15.7,35.63,1.15,22.03,19.19,39.86,41.23,40.77,17.52.72,32.83-9.02,40.22-23.48,2.09-4.09-1.74-8.7-6.17-7.51-4.15,1.11-8.57,1.58-13.13,1.29Z"/>
        <path class="cls-4" d="M93.98,52.04c-5.71,7.2-20.08,5.3-32.11-4.24-12.03-9.54-17.15-23.1-11.44-30.3,5.71-7.2,20.08-5.3,32.11,4.24,12.03,9.54,17.15,23.1,11.44,30.3Z"/>
        <path class="cls-1" d="M55.58,0C24.88,0,0,24.88,0,55.58s24.88,55.58,55.58,55.58,55.58-24.88,55.58-55.58S86.28,0,55.58,0ZM55.58,102.88c-26.12,0-47.3-21.18-47.3-47.3S29.46,8.28,55.58,8.28s47.3,21.18,47.3,47.3-21.18,47.3-47.3,47.3Z"/>
      </g>
      <path class="cls-1" d="M55.58,88.25c-18.01,0-32.67-14.66-32.67-32.67s14.66-32.67,32.67-32.67c6.66,0,13.06,2.01,18.47,5.73l6.73-7.39,8.32,33.75-34.38-5.12,5.77-6.34c-1.54-.63-3.2-.96-4.91-.96-7.17,0-13,5.83-13,13s5.83,13,13,13c5.45,0,10.37-3.46,12.22-8.6l1.45-4.03,19.21,3.73-1.59,5.29c-4.11,13.71-16.98,23.28-31.29,23.28Z"/>
      <path class="cls-2" d="M55.58,73.58c-9.94,0-18-8.06-18-18s8.06-18,18-18c4.86,0,9.25,1.93,12.49,5.06l-3.36,3.69,17.74,2.64-4.29-17.41-3.58,3.94c-4.96-4.69-11.63-7.58-19-7.58-15.28,0-27.67,12.39-27.67,27.67s12.39,27.67,27.67,27.67c12.51,0,23.08-8.31,26.5-19.71l-9.58-1.86c-2.5,6.94-9.12,11.91-16.92,11.91Z"/>
    </g>
  </g>
</svg>