<?xml version="1.0" encoding="UTF-8"?>
<svg id="Layer_2" data-name="Layer 2" xmlns="http://www.w3.org/2000/svg" viewBox="0 0 111.16 111.16">
  <defs>
    <style>
      .cls-1 {
        fill: #0062e0;
      }

      .cls-2 {
        fill: #fff;
      }

      .cls-3 {
        fill: #00aeff;
      }

      .cls-4 {
        fill: #59cfff;
      }

      .cls-5 {
        fill: #0099e2;
      }

      .cls-6 {
        fill: #8ac900;
      }
    </style>
  </defs>
  <g id="Layer_1-2" data-name="Layer 1">
    <g>
      <g>
        <circle class="cls-6" cx="55.58" cy="55.58" r="55.58" transform="translate(-11.52 96.52) rotate(-76.39)"/>
        <circle class="cls-3" cx="55.58" cy="55.58" r="52.47" transform="translate(-16.05 23.21) rotate(-20.68)"/>
        <path class="cls-5" d="M74.67,68.96c-19.96-1.27-36.18-17.32-37.69-37.26-.13-1.69-.15-3.36-.07-5.01.22-4.62-5.11-7.37-8.69-4.44-10.17,8.36-16.45,21.28-15.7,35.63,1.15,22.03,19.19,39.86,41.23,40.77,17.52.72,32.83-9.02,40.22-23.48,2.09-4.09-1.74-8.7-6.17-7.51-4.15,1.11-8.57,1.58-13.13,1.29Z"/>
        <path class="cls-4" d="M93.98,52.04c-5.71,7.2-20.08,5.3-32.11-4.24-12.03-9.54-17.15-23.1-11.44-30.3,5.71-7.2,20.08-5.3,32.11,4.24,12.03,9.54,17.15,23.1,11.44,30.3Z"/>
        <path class="cls-1" d="M55.58,0C24.88,0,0,24.88,0,55.58s24.88,55.58,55.58,55.58,55.58-24.88,55.58-55.58S86.28,0,55.58,0ZM55.58,102.88c-26.12,0-47.3-21.18-47.3-47.3S29.46,8.28,55.58,8.28s47.3,21.18,47.3,47.3-21.18,47.3-47.3,47.3Z"/>
      </g>
      <g>
        <path class="cls-1" d="M54.06,82.46l-3.72,5.01-15.82-7.28,1.39-6.08-6.17.91-6.04-16.34,5.28-3.31-5.01-3.71,7.28-15.82,6.08,1.39-.91-6.17,16.34-6.04,3.32,5.28,3.72-5.01,15.82,7.28-1.39,6.08,6.17-.91,6.04,16.34-5.28,3.32,5.01,3.72-7.28,15.82-6.08-1.39.91,6.17-16.34,6.04-3.32-5.28ZM55.08,48.96c-2.89,0-5.53,1.69-6.74,4.31-.83,1.8-.91,3.81-.22,5.67.69,1.86,2.05,3.33,3.85,4.16.98.45,2.02.68,3.09.68,2.89,0,5.53-1.69,6.74-4.31,1.71-3.71.08-8.12-3.63-9.83-.98-.45-2.02-.68-3.09-.68Z"/>
        <path class="cls-2" d="M74.07,55.93l6.27-3.93-3.22-8.72-7.32,1.08c-.49-.61-1.03-1.18-1.6-1.73l1.65-7.21-8.44-3.89-4.41,5.94c-.79-.08-1.57-.11-2.36-.09l-3.93-6.27-8.72,3.22,1.08,7.32c-.61.49-1.18,1.03-1.73,1.6l-7.21-1.65-3.89,8.45,5.94,4.41c-.08.79-.11,1.57-.09,2.36l-6.27,3.93,3.22,8.72,7.32-1.08c.49.61,1.03,1.18,1.6,1.73l-1.65,7.21,8.44,3.89,4.41-5.94c.79.08,1.57.11,2.36.09l3.93,6.27,8.72-3.22-1.08-7.32c.61-.49,1.18-1.03,1.73-1.6l7.21,1.65,3.89-8.45-5.94-4.41c.08-.79.11-1.57.09-2.36ZM66.34,61.56c-2.87,6.22-10.24,8.95-16.46,6.08-6.22-2.87-8.95-10.24-6.08-16.46,2.87-6.22,10.24-8.95,16.46-6.08,6.22,2.87,8.95,10.24,6.08,16.46Z"/>
      </g>
    </g>
  </g>
</svg>