<?xml version="1.0" encoding="UTF-8"?>
<svg id="Layer_2" data-name="Layer 2" xmlns="http://www.w3.org/2000/svg" viewBox="0 0 135.75 261.16">
  <defs>
    <style>
      .cls-1 {
        fill: #383a37;
      }

      .cls-2 {
        fill: #fff;
      }

      .cls-3 {
        fill: #ced0c4;
      }

      .cls-4 {
        fill: #f05a22;
      }

      .cls-5 {
        fill: #ffe300;
      }

      .cls-6 {
        fill: #dfe4e8;
      }

      .cls-7 {
        fill: #ffcf01;
      }

      .cls-8 {
        fill: #2f302a;
      }

      .cls-9 {
        fill: #b7121a;
      }

      .cls-10 {
        fill: #bad0da;
      }

      .cls-11 {
        fill: #231f20;
      }

      .cls-12 {
        fill: #fbbd14;
      }

      .cls-13 {
        fill: #383839;
      }

      .cls-14 {
        fill: #40413c;
      }
    </style>
  </defs>
  <g id="Layer_1-2" data-name="Layer 1">
    <g>
      <g>
        <g>
          <path class="cls-12" d="M68.02,261.16c-6.91,0-14.22-.03-20.95-.3-1.33-.05-2.51-.12-3.66-.18l-.26-.02c-1.14-.07-2.15-.14-3.14-.22l-.55-.04c-1.06-.09-2.09-.18-3.11-.3l-.54-.06c-.87-.1-1.74-.21-2.57-.32l-.55-.08c-.94-.13-1.86-.29-2.74-.45l-.59-.12c-.76-.15-1.5-.3-2.22-.47l-.5-.12c-.83-.2-1.62-.41-2.38-.64l-.55-.17c-.67-.21-1.31-.43-1.93-.67l-.39-.15c-.7-.27-1.37-.57-2.01-.89l-.36-.19c-.68-.35-1.22-.66-1.74-.99l-.25-.16c-.55-.36-1.08-.76-1.63-1.23,0,0-.39-.35-.44-.4l-.04.04-1.16-1.26-.03-.05s-.06-.07-.1-.11c-.36-.43-.72-.94-1.07-1.52l1.28-1-1.39.83-.13-.24c-.32-.6-.57-1.13-.77-1.66-.29-.79-.47-1.47-.6-2.24-.02-.04-.06-.26-.06-.26l-.02-.17c-.11-.79-.17-1.5-.17-2.2V30.28c0-.62.04-1.24.11-1.86.01-.13.09-.58.09-.58.06-.42.14-.85.23-1.27.05-.22.1-.42.16-.64.1-.4.23-.82.38-1.23l.19-.55c.22-.58.47-1.16.76-1.74.28-.57.61-1.13.95-1.69.07-.12.32-.49.32-.49.25-.39.52-.78.81-1.17.13-.17.27-.35.41-.52.3-.38.61-.75.94-1.12l.4-.45c.92-1.01,1.97-2,3.11-2.95l.48-.38c.42-.34.86-.68,1.31-1.01l.58-.42c.47-.33.94-.66,1.42-.97l.54-.36c.4-.26.83-.51,1.25-.76l.46-.28c.36-.22.74-.42,1.11-.63l.67-.36,1.19-.61.68-.33c.35-.17,1.49-.7,1.49-.7l1.51-.65,2.02-.81c.39-.15.79-.29,1.19-.44C45.17,1.82,56.38,0,68.02,0s22.72,1.79,32.24,5.2c.51.18,1.01.36,1.51.55l2.03.82c.23.09.45.19.68.29h.05l.35.18.42.18,1.67.78.89.44.78.41.7.38c.37.2.74.4,1.1.61l.41.24c.49.29.9.54,1.3.79l.56.37c.48.31.95.63,1.4.95l.6.44c.45.33.87.66,1.29,1l.49.39c1.14.95,2.19,1.94,3.11,2.95l.4.47c.32.36.63.73.93,1.11.14.18.27.36.41.54.28.38.55.77.8,1.15l.32.5c.35.56.66,1.11.95,1.68.29.58.53,1.15.76,1.73l.19.55c.15.42.27.84.38,1.25.06.21.1.41.16.63.1.42.17.85.24,1.27,0,0,.07.45.08.59.07.61.11,1.23.11,1.85v212.89c0,.7-.06,1.41-.18,2.22,0,.06-.04.29-.04.29l-.03.15c-.13.73-.31,1.41-.53,2.04l-.06.17c-.2.53-.44,1.06-.74,1.6-.07.12-.16.3-.16.3l-.08.13c-.36.6-.72,1.11-1.1,1.57l-1.24,1.43-.07-.07s-.45.4-.45.4c-.53.45-1.06.86-1.62,1.22l-.2.12c-.58.37-1.12.68-1.69.97l-.47.25c-.63.32-1.31.61-2.01.89l-.26.1c-.75.28-1.39.5-2.05.71l-.56.18c-.76.22-1.55.44-2.37.64l-.51.12c-.71.17-1.45.32-2.21.47l-.6.12c-.88.16-1.79.31-2.73.44l-.56.08c-.84.12-1.69.22-2.57.32l-.55.06c-1.01.11-2.05.21-3.1.29l-.55.04c-.99.08-1.99.15-3.01.21l-.23.02c-1.31.07-2.48.13-3.67.18-6.88.29-14.18.32-21.09.32Z"/>
          <g>
            <g>
              <path class="cls-7" d="M12.33,187.02v56.15c0,15.83,24.94,16.37,55.69,16.37s55.69-.55,55.69-16.37v-56.15H12.33Z"/>
              <path class="cls-5" d="M68.02,255.61c1.59,0,3.16,0,4.72,0,1.52,0,3.03,0,4.51,0h0c11.53,0,22.52-.14,30.32-1.84,8.32-1.81,12.2-5.18,12.2-10.61v-29.25l-103.5-.28v29.53c0,11.55,17.63,12.45,42.52,12.45,1.49,0,2.99,0,4.51,0,1.56,0,3.13,0,4.71,0Z"/>
              <path class="cls-12" d="M77.25,256.12h0c-1.49,0-2.99,0-4.51,0-3.11,0-6.32,0-9.43,0-1.52,0-3.03,0-4.51,0-25.19,0-43.02-.93-43.02-12.94v-29.78c0-.06.03-.13.07-.17s.1-.07.17-.07h0l103.99.28c.14,0,.25.12.25.25v29.5c0,5.7-4,9.22-12.59,11.09-7.84,1.71-18.86,1.85-30.42,1.85ZM68.02,255.61c1.59,0,3.16,0,4.72,0,1.52,0,3.03,0,4.51,0h0c11.53,0,22.52-.14,30.32-1.84,8.32-1.81,12.2-5.18,12.2-10.61v-29.25l-103.5-.28v29.53c0,11.55,17.63,12.45,42.52,12.45,1.49,0,2.99,0,4.51,0,1.56,0,3.13,0,4.71,0Z"/>
              <g>
                <g>
                  <path class="cls-7" d="M68.02,1.62C37.27,1.62,12.33,14.45,12.33,30.28v43.86h111.38V30.28c0-15.83-24.94-28.66-55.69-28.66Z"/>
                  <path class="cls-12" d="M120.03,70.7H16.02c-.13,0-.25-.11-.25-.24V30.28c0-13.67,23.93-25.22,52.25-25.22s52.25,11.55,52.25,25.22v40.18c0,.13-.12.24-.25.24ZM16.27,70.21h103.51V30.28c0-13.4-23.7-24.73-51.76-24.73S16.27,16.88,16.27,30.28v39.93h0Z"/>
                </g>
                <rect class="cls-7" x="12.33" y="74.14" width="111.38" height="116.47"/>
                <g>
                  <g>
                    <path class="cls-14" d="M21.31,141.57l-6.05-1.23v55.73s4.02-9.67,6.05-15.07v-39.42Z"/>
                    <polygon class="cls-14" points="21.31 102.72 15.26 83.81 15.26 138.56 21.31 139.78 21.31 102.72"/>
                  </g>
                  <g>
                    <path class="cls-8" d="M16.49,141.85l3.59.73v38.2c-.98,2.59-2.39,6.11-3.59,9.07v-47.99M15.26,140.34v55.73s4.02-9.67,6.05-15.07v-39.43l-6.05-1.23h0Z"/>
                    <path class="cls-8" d="M16.49,91.68l3.59,11.24v35.36l-3.59-.73v-45.87M15.26,83.81v54.75l6.05,1.22v-37.06l-6.05-18.91h0Z"/>
                  </g>
                  <g>
                    <path class="cls-14" d="M114.74,141.57l6.05-1.23v55.73s-4.02-9.67-6.05-15.07v-39.42Z"/>
                    <polygon class="cls-14" points="114.74 102.72 120.79 83.81 120.79 138.56 114.74 139.78 114.74 102.72"/>
                  </g>
                  <g>
                    <path class="cls-8" d="M119.56,141.85v47.99c-1.21-2.96-2.62-6.48-3.6-9.07v-38.2l3.6-.73M120.79,140.34l-6.05,1.23v39.43c2.03,5.41,6.05,15.07,6.05,15.07v-55.73h0Z"/>
                    <path class="cls-8" d="M119.56,91.68v45.87l-3.6.73v-35.36l3.6-11.24M120.79,83.81l-6.05,18.91v37.06l6.05-1.22v-54.75h0Z"/>
                  </g>
                </g>
                <path class="cls-14" d="M68.11,57.88c-28.83,0-52.24,5.7-52.61,12.79-.01.06-.01.11-.01.17,0,.22.02.44.07.66,0,.03,0,.05.01.06l.22.69,9.55,29.37c5.83-2.5,22.73-4.29,42.68-4.29s36.85,1.79,42.68,4.29l9.29-28.6.75-2.29v-.02c-.25-7.11-23.71-12.84-52.64-12.84Z"/>
                <path class="cls-8" d="M68.11,59.1c29.76,0,50.8,6.03,51.4,11.48l-.68,2.06-8.9,27.37c-7.02-2.36-23.44-3.91-41.91-3.91s-34.89,1.56-41.91,3.91l-9.15-28.14-.2-.63s0,0,0,0c-.03-.13-.04-.25-.04-.4,0-.04,0-.07.01-.11.29-5.5,21.46-11.63,51.38-11.63M68.11,57.88c-28.83,0-52.24,5.7-52.61,12.79-.01.06-.01.11-.01.17,0,.22.02.44.07.66,0,.03,0,.05.01.06l.22.69,9.55,29.37c5.83-2.5,22.73-4.29,42.68-4.29s36.85,1.79,42.68,4.29l9.29-28.6.75-2.29v-.02c-.25-7.11-23.71-12.84-52.64-12.84h0Z"/>
                <path class="cls-14" d="M68.12,224.51c28.83,0,52.25-5.7,52.61-12.79.01-.06.01-.11.01-.17,0-.22-.03-.44-.07-.66,0-.02,0-.05-.01-.06l-.22-.68-9.55-29.37c-5.83,2.49-22.73,4.29-42.68,4.29s-36.84-1.79-42.68-4.29l-9.29,28.6-.75,2.29h0c.25,7.13,23.71,12.87,52.64,12.87Z"/>
                <path class="cls-8" d="M26.3,182.36c7.02,2.36,23.44,3.92,41.91,3.92s34.89-1.56,41.91-3.92l9.15,28.15.2.63s0,.01,0,.02c.03.13.04.25.04.4,0,.04,0,.07-.01.11-.29,5.5-21.46,11.63-51.38,11.63s-50.81-6.03-51.4-11.48l.68-2.07,8.89-27.38M25.52,180.76l-9.29,28.6-.75,2.29h0c.24,7.13,23.71,12.87,52.64,12.87s52.25-5.7,52.61-12.79c.01-.06.01-.11.01-.17,0-.22-.03-.44-.07-.66,0-.02,0-.05-.01-.06l-.22-.68-9.55-29.37c-5.83,2.49-22.73,4.29-42.68,4.29-19.94,0-36.84-1.79-42.68-4.29h0Z"/>
              </g>
              <path class="cls-14" d="M15.49,211.64l.54-1.64v3.4c-.33-.57-.52-1.15-.54-1.74v-.02Z"/>
              <path class="cls-7" d="M111.05,179.94v-77.79l.1-.32c-5.38-2.6-22.65-4.49-43.12-4.49s-37.74,1.89-43.12,4.49l.1.32v79.19l-.1.32c5.38,2.6,22.65,4.49,43.12,4.49s37.74-1.9,43.12-4.49l-.1-.32v-1.4Z"/>
              <path class="cls-5" d="M68.02,182.68c-19.04,0-33.45-1.61-39.56-3.4v-75.09c6.12-1.79,20.52-3.4,39.56-3.4s33.45,1.61,39.57,3.4v75.09c-6.12,1.79-20.52,3.4-39.57,3.4Z"/>
              <path class="cls-1" d="M121.23,21.83l-2.68,2.68c-.14-.27-.3-.55-.47-.83-.03-.09-.09-.17-.16-.26-.05-.09-.1-.17-.16-.26-.17-.26-.35-.52-.52-.76-.24-.33-.47-.64-.73-.95-.21-.25-.42-.5-.64-.74-.12-.14-.25-.26-.36-.4-.28-.3-.57-.59-.86-.87-.33-.32-.67-.64-1.02-.95-.02,0-.03-.02-.03-.02-.36-.33-.76-.66-1.16-.95-1.08-.85-2.23-1.66-3.5-2.44-.09-.05-.17-.11-.26-.16-.05-.03-.11-.07-.17-.1-.39-.24-.83-.48-1.24-.71-.49-.28-.99-.55-1.49-.79-.47-.25-.94-.49-1.44-.71-.53-.26-1.09-.52-1.66-.76-1.12-.48-2.28-.95-3.47-1.38v-.02c-8.75-3.22-19.6-5.13-31.19-5.13s-22.43,1.92-31.18,5.13v.02c-1.2.43-2.36.9-3.48,1.38-.57.24-1.13.5-1.66.76-.5.22-.97.47-1.43.71-.5.24-1.01.52-1.49.79-.42.23-.85.47-1.24.71-.07.03-.12.07-.17.1-.09.05-.17.11-.26.16-1.26.77-2.42,1.59-3.49,2.44-.4.29-.79.62-1.16.95,0,0-.02.02-.03.02-.35.31-.69.62-1.02.95-.29.28-.58.57-.86.87-.12.13-.24.26-.36.4-.23.24-.43.5-.64.74-.26.31-.49.62-.73.95-.17.24-.35.5-.52.76-.05.09-.1.17-.16.26-.07.09-.12.17-.16.26-.17.28-.33.55-.47.83l-2.68-2.68c.22-.4.48-.78.74-1.18.26-.38.55-.77.85-1.14.26-.35.55-.7.85-1.02.03-.04.05-.07.09-.11h.02s.07-.07.09-.1c.62-.71,1.31-1.4,2.06-2.06.29-.28.6-.55.93-.81.1-.08.19-.16.29-.23.31-.26.61-.51.93-.75.54-.43,1.11-.84,1.69-1.25.47-.32.95-.64,1.44-.95.5-.31,1-.62,1.52-.92.26-.15.52-.29.78-.45.28-.16.54-.3.81-.43,0,0,0-.02.02-.02.45-.23.9-.49,1.37-.71.09-.05.17-.09.26-.14.12-.07.26-.12.39-.17.39-.19.79-.38,1.19-.57.05-.02.1-.06.15-.07.59-.26,1.19-.52,1.8-.78.32-.12.61-.24.92-.37.5-.22,1.02-.41,1.56-.6.43-.15.85-.31,1.3-.46,8.89-3.12,19.63-4.92,31.18-4.92s22.3,1.8,31.19,4.92c.45.15.86.31,1.3.46.53.19,1.05.38,1.56.6.31.12.6.24.92.37.6.26,1.21.52,1.8.78.05.01.1.05.16.07.4.19.8.38,1.19.57.12.05.26.1.38.17.09.05.17.08.26.14.47.22.92.48,1.37.71.02,0,.02.02.02.02.28.14.54.28.81.43.26.15.52.29.78.45.52.3,1.02.6,1.52.92.48.31.97.63,1.44.95.58.4,1.14.82,1.69,1.25.31.24.62.5.92.76.1.07.21.14.29.23.33.26.64.53.93.81.21.16.38.33.57.52.19.17.36.36.55.55.33.33.62.66.93.98.02.04.05.07.09.1h.02s.05.07.09.11c.29.32.59.67.85,1.02.29.37.59.76.85,1.14.26.4.52.77.75,1.18Z"/>
            </g>
            <path class="cls-13" d="M38.73,56.93c0,.52-.42.95-.95.95s-.95-.43-.95-.95.43-.95.95-.95.95.42.95.95Z"/>
            <path class="cls-13" d="M100.16,56.93c0,.52-.42.95-.95.95s-.95-.43-.95-.95.42-.95.95-.95.95.42.95.95Z"/>
            <rect class="cls-2" x="50.61" y=".32" width="34.83" height="2.58"/>
            <rect class="cls-2" x="50.61" y="258.25" width="34.83" height="2.58"/>
            <g>
              <path class="cls-9" d="M116.78,254.1c-6.16,3.37-16,4.65-27.87,5.14v-3.47c10.95-.28,20.03-1.16,25.48-4.05l2.39,2.38Z"/>
              <path class="cls-9" d="M47.13,255.76v3.47c-11.87-.48-21.71-1.76-27.87-5.14l2.38-2.39c5.45,2.89,14.54,3.77,25.48,4.05Z"/>
            </g>
          </g>
          <path class="cls-7" d="M120.88,74.14v6.66l2.09-1.11,12.55,1.11s1.14-3.15-1.71-4.63c-2.85-1.48-9.7-.74-9.7-.74l-3.23-1.3Z"/>
          <path class="cls-7" d="M14.87,74.14v6.66l-2.09-1.11-12.55,1.11s-1.14-3.15,1.71-4.63c2.85-1.48,9.7-.74,9.7-.74l3.23-1.3Z"/>
        </g>
        <path class="cls-10" d="M121.23,21.83l-2.68,2.68c-.14-.27-.3-.55-.47-.83-.05-.09-.09-.17-.16-.26-.05-.09-.1-.17-.16-.26-.17-.26-.35-.52-.52-.76-.24-.33-.47-.64-.73-.95-.21-.25-.42-.5-.64-.74-.12-.14-.25-.26-.36-.4-.28-.3-.57-.59-.86-.87-.33-.31-.67-.64-1.02-.95-.02,0-.03-.02-.03-.02-.38-.33-.76-.64-1.16-.95-.45-.37-.93-.71-1.44-1.05-.14-.1-.28-.21-.42-.32-.53-.36-1.07-.73-1.64-1.07-.09-.05-.17-.11-.26-.16-.05-.03-.11-.07-.17-.1-.86-.5-1.78-1.01-2.72-1.49v-.02c-.48-.25-.96-.47-1.45-.71-.38-.19-.76-.36-1.16-.53h-.02c-.15-.09-.33-.16-.49-.23-.96-.41-1.97-.83-2.99-1.19-.16-.07-.33-.14-.48-.19v-3.92c.45.15.86.31,1.3.46.21.09.42.16.62.25.31.09.63.24.94.36.31.12.6.24.92.37.16.07.33.14.49.2h.02c.43.19.86.39,1.3.58.05.01.1.05.16.07.4.19.8.38,1.19.57.12.05.26.1.38.17.09.05.17.08.26.14.47.22.92.48,1.37.71.02,0,.02.02.02.02.28.14.54.28.81.43.26.15.52.29.78.45.14.08.27.15.41.26.38.21.74.43,1.11.66.48.31.97.63,1.44.95,1.04.71,2,1.46,2.91,2.23.33.26.64.53.93.81.38.35.76.71,1.13,1.07.33.33.62.66.93.98.02.04.05.07.09.1.99,1.1,1.84,2.26,2.55,3.44Z"/>
        <path class="cls-10" d="M36.84,6.55v3.92c-.16.05-.33.12-.49.19-1.02.36-2.02.78-2.99,1.19-.16.07-.33.14-.49.23h-.02c-.4.17-.78.35-1.16.53-.48.25-.97.47-1.43.71l-.02.02c-.93.48-1.85.99-2.71,1.49-.07.03-.12.07-.17.1-.09.05-.17.11-.26.16-.57.34-1.11.71-1.65,1.07-.14.1-.28.21-.41.32-.5.34-.98.69-1.44,1.05-.4.31-.78.62-1.16.95,0,0-.02.02-.03.02-.35.31-.69.64-1.02.95-.29.28-.58.57-.86.87-.12.13-.24.26-.36.4-.23.24-.43.5-.64.74-.26.31-.49.62-.73.95-.17.24-.35.5-.52.76-.05.09-.1.17-.16.26-.07.09-.1.17-.16.26-.17.28-.33.55-.47.83l-2.68-2.68c.71-1.18,1.56-2.34,2.54-3.44.03-.04.07-.07.09-.1.31-.33.6-.66.93-.98.36-.36.74-.73,1.12-1.07.29-.28.6-.55.93-.81.9-.78,1.87-1.52,2.91-2.23.47-.32.95-.64,1.44-.95.36-.22.73-.45,1.11-.66.14-.11.27-.18.41-.26.26-.15.52-.29.78-.45.28-.16.54-.3.81-.43,0,0,0-.02.02-.02.45-.23.9-.49,1.37-.71.09-.05.17-.09.26-.14.12-.07.26-.12.39-.17.39-.19.79-.38,1.19-.57.05-.02.1-.06.15-.07.43-.19.87-.39,1.3-.58h.01c.16-.07.33-.13.48-.2.32-.12.61-.24.92-.37.31-.12.62-.26.93-.36.21-.09.41-.16.62-.25.43-.15.85-.31,1.3-.46Z"/>
        <path class="cls-4" d="M16.34,19.64c-.56.72-1.08,1.45-1.53,2.19l2.68,2.68c.15-.27.3-.55.47-.83.05-.09.09-.17.16-.26.05-.09.1-.17.16-.26.17-.26.35-.52.52-.76.04-.06.09-.11.13-.17l-2.58-2.59Z"/>
        <path class="cls-4" d="M119.7,19.64c.56.72,1.08,1.45,1.53,2.19l-2.68,2.68c-.14-.27-.3-.55-.47-.83-.05-.09-.09-.17-.16-.26-.05-.09-.1-.17-.16-.26-.17-.26-.35-.52-.52-.76-.04-.06-.09-.11-.13-.17l2.59-2.59Z"/>
        <g>
          <path class="cls-9" d="M47.13,255.76v3.47c-11.87-.48-21.71-1.76-27.87-5.14l2.38-2.39c5.45,2.89,14.54,3.77,25.48,4.05Z"/>
          <path class="cls-9" d="M116.78,254.1c-6.16,3.37-16,4.65-27.87,5.14v-3.47c10.95-.28,20.03-1.16,25.48-4.05l2.39,2.38Z"/>
        </g>
        <path class="cls-5" d="M23.97,20.46c3.11-2.76,7.48-5.32,12.87-7.41v38.92l-12.87-31.51Z"/>
        <path class="cls-5" d="M112.08,20.46l-12.87,31.51V13.05c5.38,2.09,9.76,4.65,12.87,7.41Z"/>
      </g>
      <g>
        <path class="cls-3" d="M57.13,134.28c-.82,0-2.19,0-5.54-5.55l-.3-.5v-.58c0-1.83,1.68-3.21,3.92-3.21h25.62c2.23,0,3.91,1.38,3.91,3.21v.58l-.3.5c-3.35,5.55-4.72,5.55-5.54,5.55h-21.79Z"/>
        <path class="cls-6" d="M78.92,130.1h-21.79c-1.01,0-3.75-4.54-3.75-4.54,0-.62.82-1.12,1.83-1.12h25.62c1.01,0,1.83.5,1.83,1.12,0,0-2.74,4.54-3.75,4.54Z"/>
        <g>
          <path d="M76.43,125.81v2.35h1.18v.36h-3.85v-.36h1.14v-2.35h1.53Z"/>
          <path d="M73.37,125.81l-1.44,2.71h-2.03l-1.53-2.71h1.43l.24.48h1.63l.22-.48h1.48ZM70.21,126.63l.68,1.37h.02l.62-1.37h-1.32Z"/>
          <path d="M64.53,125.81l1.03.83.83-.83h1.48l-1.55,1.45,1.55,1.26h-1.3l-1.01-.81-.8.81h-1.44l1.52-1.39-1.65-1.32h1.33Z"/>
          <path d="M62.22,125.81v2.71h-1.53v-2.71h1.53Z"/>
        </g>
      </g>
      <g>
        <g>
          <rect class="cls-7" x="56.32" y="24.95" width="3.67" height="3.66"/>
          <rect class="cls-11" x="59.99" y="24.95" width="3.66" height="3.66"/>
          <rect class="cls-11" x="52.66" y="24.95" width="3.66" height="3.66"/>
          <rect class="cls-7" x="63.65" y="24.95" width="3.66" height="3.66"/>
          <rect class="cls-11" x="67.31" y="24.95" width="3.66" height="3.66"/>
          <rect class="cls-7" x="70.98" y="24.95" width="3.66" height="3.66"/>
          <rect class="cls-11" x="74.64" y="24.95" width="3.66" height="3.66"/>
          <rect class="cls-7" x="78.31" y="24.95" width="3.66" height="3.66"/>
          <rect class="cls-11" x="81.97" y="24.95" width="3.66" height="3.66"/>
        </g>
        <g>
          <rect class="cls-11" x="56.32" y="28.62" width="3.67" height="3.66"/>
          <rect class="cls-7" x="59.99" y="28.62" width="3.66" height="3.66"/>
          <rect class="cls-7" x="52.66" y="28.62" width="3.66" height="3.66"/>
          <rect class="cls-11" x="63.65" y="28.62" width="3.66" height="3.66"/>
          <rect class="cls-7" x="67.31" y="28.62" width="3.66" height="3.66"/>
          <rect class="cls-11" x="70.98" y="28.62" width="3.66" height="3.66"/>
          <rect class="cls-7" x="74.64" y="28.62" width="3.66" height="3.66"/>
          <rect class="cls-11" x="78.31" y="28.62" width="3.66" height="3.66"/>
          <rect class="cls-7" x="81.97" y="28.62" width="3.66" height="3.66"/>
        </g>
      </g>
    </g>
  </g>
</svg>