<?xml version="1.0" encoding="UTF-8"?>
<svg xmlns="http://www.w3.org/2000/svg" xmlns:xlink="http://www.w3.org/1999/xlink" viewBox="0 0 118.56 424.29">
  <defs>
    <style>
      .cls-1 {
        fill: #c7c8c8;
      }

      .cls-2, .cls-3 {
        fill: #929393;
      }

      .cls-4 {
        fill: #fff;
      }

      .cls-5 {
        fill: #f05a22;
      }

      .cls-6 {
        fill: #f4911c;
      }

      .cls-7 {
        fill: #bad0da;
      }

      .cls-8 {
        filter: url(#drop-shadow-1);
      }

      .cls-9 {
        isolation: isolate;
      }

      .cls-10 {
        fill: #e9e9e9;
      }

      .cls-3 {
        mix-blend-mode: multiply;
        opacity: .4;
      }

      .cls-11 {
        fill: #40413c;
      }

      .cls-12 {
        fill: #000d20;
      }
    </style>
    <filter id="drop-shadow-1" x="0" y="0" width="118.56" height="424.29" filterUnits="userSpaceOnUse">
      <feOffset dx="2" dy="0"/>
      <feGaussianBlur result="blur" stdDeviation="1"/>
      <feFlood flood-color="#000" flood-opacity=".2"/>
      <feComposite in2="blur" operator="in"/>
      <feComposite in="SourceGraphic"/>
    </filter>
  </defs>
  <g class="cls-9">
    <g id="Layer_2" data-name="Layer 2">
      <g id="Layer_1-2" data-name="Layer 1">
        <g class="cls-8">
          <g>
            <path class="cls-12" d="M103.18,6.84c0,2.67-1.08,5.06-2.41,5.06H18.94c-1.33,0-2.41-2.39-2.41-5.06h0c0-2.68,1.08-5.06,2.41-5.06h81.83c1.33,0,2.41,2.38,2.41,5.06h0Z"/>
            <path class="cls-2" d="M101.96,98.77V17.18c0-6.27-4.2-10.96-6.81-10.96H23.91c-2.86,0-7.33,4.95-7.33,11.39v81.15h85.39Z"/>
            <path class="cls-11" d="M59.27,38.01c-8.45,0-26.32,1.9-33.77,5.73l11.84,33.94h43.86l11.84-33.94c-7.45-3.83-25.32-5.73-33.77-5.73Z"/>
            <polygon class="cls-11" points="33.06 80.51 22.54 52.11 22.54 94.13 32.62 94.13 33.06 80.51"/>
            <polygon class="cls-11" points="86.75 80.51 97.17 52.11 97.17 94.13 87.27 94.13 86.75 80.51"/>
            <g>
              <rect class="cls-3" x="45.31" y="19.49" width="30.36" height="3.79"/>
              <rect class="cls-3" x="45.31" y="24.55" width="30.36" height="3.79"/>
              <rect class="cls-3" x="45.31" y="29.61" width="30.36" height="3.79"/>
            </g>
            <rect x="16.22" y="97.92" width="86.02" height="8.85"/>
            <rect x="36.46" y="105.51" width="45.54" height="8.85"/>
            <rect class="cls-1" x="7.36" y="113.1" width="104.99" height="306.13"/>
            <rect class="cls-10" x="12.42" y="118.16" width="94.87" height="296.01"/>
            <rect class="cls-12" x="7.36" y="417.96" width="104.99" height="6.32"/>
            <rect class="cls-6" x="7.36" y="417.96" width="13.91" height="6.32"/>
            <rect class="cls-6" x="98.44" y="417.96" width="13.91" height="6.32"/>
            <path class="cls-2" d="M22.54,51.43c-.62-3.78-3.9-6.67-7.86-6.67h-6.82c-3.96,0-7.24,2.89-7.86,6.67h22.54Z"/>
            <path class="cls-2" d="M118.56,51.43c-.62-3.78-3.9-6.67-7.86-6.67h-6.82c-3.96,0-7.24,2.89-7.86,6.67h22.54Z"/>
            <rect class="cls-4" x="44.91" width="31.15" height="1.78"/>
          </g>
          <path class="cls-5" d="M25.28,6.33h-2.81c-3.04,0-5.51,2.46-5.52,5.5v.06s0,3.4,0,3.4h1.26v-2.92c0-2.6,2.11-4.71,4.71-4.71h2.37"/>
          <path class="cls-7" d="M22.83,5.87h12.84c.8,0,1.45.65,1.45,1.45v1.24h-16.98c0-1.49,1.21-2.69,2.69-2.69Z"/>
          <path class="cls-5" d="M93.41,6.37h2.81c3.04,0,5.51,2.46,5.52,5.5v.06s0,3.4,0,3.4h-1.26v-2.92c0-2.6-2.11-4.71-4.71-4.71h-2.37"/>
          <path class="cls-7" d="M95.87,5.91h-12.84c-.8,0-1.45.65-1.45,1.45v1.24s16.98,0,16.98,0h0c0-1.49-1.21-2.69-2.69-2.69Z"/>
        </g>
      </g>
    </g>
  </g>
</svg>